<?xml version="1.0" encoding="UTF-8" standalone="no"?>
<!-- Created with Inkscape (http://www.inkscape.org/) -->

<svg
   width="220.79309mm"
   height="71.276443mm"
   viewBox="0 0 220.79309 71.276444"
   version="1.1"
   id="svg1"
   inkscape:version="1.3.2 (1:1.3.2+202311252150+091e20ef0f)"
   sodipodi:docname="abaco-02-2.svg"
   xml:space="preserve"
   xmlns:inkscape="http://www.inkscape.org/namespaces/inkscape"
   xmlns:sodipodi="http://sodipodi.sourceforge.net/DTD/sodipodi-0.dtd"
   xmlns:xlink="http://www.w3.org/1999/xlink"
   xmlns="http://www.w3.org/2000/svg"
   xmlns:svg="http://www.w3.org/2000/svg"><sodipodi:namedview
     id="namedview1"
     pagecolor="#ffffff"
     bordercolor="#000000"
     borderopacity="0.25"
     inkscape:showpageshadow="2"
     inkscape:pageopacity="0.0"
     inkscape:pagecheckerboard="0"
     inkscape:deskcolor="#d1d1d1"
     inkscape:document-units="mm"
     inkscape:zoom="0.98394783"
     inkscape:cx="430.409"
     inkscape:cy="214.95042"
     inkscape:window-width="1864"
     inkscape:window-height="1016"
     inkscape:window-x="56"
     inkscape:window-y="27"
     inkscape:window-maximized="1"
     inkscape:current-layer="layer2"
     showguides="true"
     showgrid="false" /><defs
     id="defs1"><linearGradient
       id="linearGradient451"
       inkscape:collect="always"><stop
         style="stop-color:#ffffff;stop-opacity:1;"
         offset="0"
         id="stop450" /><stop
         style="stop-color:#00fcff;stop-opacity:0;"
         offset="1"
         id="stop451" /></linearGradient><linearGradient
       id="linearGradient66"
       inkscape:collect="always"><stop
         style="stop-color:#ffffff;stop-opacity:1;"
         offset="0"
         id="stop65" /><stop
         style="stop-color:#06ff00;stop-opacity:0;"
         offset="1"
         id="stop66" /></linearGradient><radialGradient
       inkscape:collect="always"
       xlink:href="#linearGradient66"
       id="radialGradient65"
       gradientUnits="userSpaceOnUse"
       gradientTransform="matrix(0.73949191,-0.24664459,0.14286875,0.54272342,24.161286,12.976725)"
       cx="141.85136"
       cy="19.137009"
       fx="141.85136"
       fy="19.137009"
       r="3.0076399" /><radialGradient
       inkscape:collect="always"
       xlink:href="#linearGradient66"
       id="radialGradient72"
       gradientUnits="userSpaceOnUse"
       gradientTransform="matrix(0.73949191,-0.24664459,0.14286875,0.54272342,24.161286,12.976725)"
       cx="141.85136"
       cy="19.137009"
       fx="141.85136"
       fy="19.137009"
       r="3.0076399" /><radialGradient
       inkscape:collect="always"
       xlink:href="#linearGradient66"
       id="radialGradient76"
       gradientUnits="userSpaceOnUse"
       gradientTransform="matrix(0.73949191,-0.24664459,0.14286875,0.54272342,24.161286,12.976725)"
       cx="141.85136"
       cy="19.137009"
       fx="141.85136"
       fy="19.137009"
       r="3.0076399" /><radialGradient
       inkscape:collect="always"
       xlink:href="#linearGradient66"
       id="radialGradient77"
       gradientUnits="userSpaceOnUse"
       gradientTransform="matrix(0.73949191,-0.24664459,0.14286875,0.54272342,24.161286,12.976725)"
       cx="141.85136"
       cy="19.137009"
       fx="141.85136"
       fy="19.137009"
       r="3.0076399" /><radialGradient
       inkscape:collect="always"
       xlink:href="#linearGradient66"
       id="radialGradient84"
       gradientUnits="userSpaceOnUse"
       gradientTransform="matrix(0.73949191,-0.24664459,0.14286875,0.54272342,24.161286,12.976725)"
       cx="141.85136"
       cy="19.137009"
       fx="141.85136"
       fy="19.137009"
       r="3.0076399" /><radialGradient
       inkscape:collect="always"
       xlink:href="#linearGradient66"
       id="radialGradient85"
       gradientUnits="userSpaceOnUse"
       gradientTransform="matrix(0.73949191,-0.24664459,0.14286875,0.54272342,24.161286,12.976725)"
       cx="141.85136"
       cy="19.137009"
       fx="141.85136"
       fy="19.137009"
       r="3.0076399" /><radialGradient
       inkscape:collect="always"
       xlink:href="#linearGradient66"
       id="radialGradient86"
       gradientUnits="userSpaceOnUse"
       gradientTransform="matrix(0.73949191,-0.24664459,0.14286875,0.54272342,24.161286,12.976725)"
       cx="141.85136"
       cy="19.137009"
       fx="141.85136"
       fy="19.137009"
       r="3.0076399" /><radialGradient
       inkscape:collect="always"
       xlink:href="#linearGradient66"
       id="radialGradient87"
       gradientUnits="userSpaceOnUse"
       gradientTransform="matrix(0.73949191,-0.24664459,0.14286875,0.54272342,24.161286,12.976725)"
       cx="141.85136"
       cy="19.137009"
       fx="141.85136"
       fy="19.137009"
       r="3.0076399" /><radialGradient
       inkscape:collect="always"
       xlink:href="#linearGradient66"
       id="radialGradient90"
       gradientUnits="userSpaceOnUse"
       gradientTransform="matrix(0.73949191,-0.24664459,0.14286875,0.54272342,24.161286,12.976725)"
       cx="141.85136"
       cy="19.137009"
       fx="141.85136"
       fy="19.137009"
       r="3.0076399" /><radialGradient
       inkscape:collect="always"
       xlink:href="#linearGradient66"
       id="radialGradient91"
       gradientUnits="userSpaceOnUse"
       gradientTransform="matrix(0.73949191,-0.24664459,0.14286875,0.54272342,24.161286,12.976725)"
       cx="141.85136"
       cy="19.137009"
       fx="141.85136"
       fy="19.137009"
       r="3.0076399" /><radialGradient
       inkscape:collect="always"
       xlink:href="#linearGradient451"
       id="radialGradient448"
       gradientUnits="userSpaceOnUse"
       gradientTransform="matrix(0.73949191,-0.24664459,0.14286875,0.54272342,-35.121953,11.768399)"
       cx="141.85136"
       cy="19.137009"
       fx="141.85136"
       fy="19.137009"
       r="3.0076399" /><radialGradient
       inkscape:collect="always"
       xlink:href="#linearGradient451"
       id="radialGradient452"
       gradientUnits="userSpaceOnUse"
       gradientTransform="matrix(0.73949191,-0.24664459,0.14286875,0.54272342,-35.121953,11.768399)"
       cx="141.85136"
       cy="19.137009"
       fx="141.85136"
       fy="19.137009"
       r="3.0076399" /><radialGradient
       inkscape:collect="always"
       xlink:href="#linearGradient451"
       id="radialGradient456"
       gradientUnits="userSpaceOnUse"
       gradientTransform="matrix(0.73949191,-0.24664459,0.14286875,0.54272342,-35.121953,11.768399)"
       cx="141.85136"
       cy="19.137009"
       fx="141.85136"
       fy="19.137009"
       r="3.0076399" /><radialGradient
       inkscape:collect="always"
       xlink:href="#linearGradient451"
       id="radialGradient457"
       gradientUnits="userSpaceOnUse"
       gradientTransform="matrix(0.73949191,-0.24664459,0.14286875,0.54272342,-35.121953,11.768399)"
       cx="141.85136"
       cy="19.137009"
       fx="141.85136"
       fy="19.137009"
       r="3.0076399" /><radialGradient
       inkscape:collect="always"
       xlink:href="#linearGradient451"
       id="radialGradient464"
       gradientUnits="userSpaceOnUse"
       gradientTransform="matrix(0.73949191,-0.24664459,0.14286875,0.54272342,-35.121953,11.768399)"
       cx="141.85136"
       cy="19.137009"
       fx="141.85136"
       fy="19.137009"
       r="3.0076399" /><radialGradient
       inkscape:collect="always"
       xlink:href="#linearGradient451"
       id="radialGradient465"
       gradientUnits="userSpaceOnUse"
       gradientTransform="matrix(0.73949191,-0.24664459,0.14286875,0.54272342,-35.121953,11.768399)"
       cx="141.85136"
       cy="19.137009"
       fx="141.85136"
       fy="19.137009"
       r="3.0076399" /><radialGradient
       inkscape:collect="always"
       xlink:href="#linearGradient451"
       id="radialGradient466"
       gradientUnits="userSpaceOnUse"
       gradientTransform="matrix(0.73949191,-0.24664459,0.14286875,0.54272342,-35.121953,11.768399)"
       cx="141.85136"
       cy="19.137009"
       fx="141.85136"
       fy="19.137009"
       r="3.0076399" /><radialGradient
       inkscape:collect="always"
       xlink:href="#linearGradient451"
       id="radialGradient467"
       gradientUnits="userSpaceOnUse"
       gradientTransform="matrix(0.73949191,-0.24664459,0.14286875,0.54272342,-35.121953,11.768399)"
       cx="141.85136"
       cy="19.137009"
       fx="141.85136"
       fy="19.137009"
       r="3.0076399" /><radialGradient
       inkscape:collect="always"
       xlink:href="#linearGradient451"
       id="radialGradient470"
       gradientUnits="userSpaceOnUse"
       gradientTransform="matrix(0.73949191,-0.24664459,0.14286875,0.54272342,-35.121953,11.768399)"
       cx="141.85136"
       cy="19.137009"
       fx="141.85136"
       fy="19.137009"
       r="3.0076399" /><radialGradient
       inkscape:collect="always"
       xlink:href="#linearGradient451"
       id="radialGradient471"
       gradientUnits="userSpaceOnUse"
       gradientTransform="matrix(0.73949191,-0.24664459,0.14286875,0.54272342,-35.121953,11.768399)"
       cx="141.85136"
       cy="19.137009"
       fx="141.85136"
       fy="19.137009"
       r="3.0076399" /><radialGradient
       inkscape:collect="always"
       xlink:href="#linearGradient66"
       id="radialGradient1155"
       gradientUnits="userSpaceOnUse"
       gradientTransform="matrix(0.73949191,-0.24664459,0.14286875,0.54272342,24.161286,12.976725)"
       cx="141.85136"
       cy="19.137009"
       fx="141.85136"
       fy="19.137009"
       r="3.0076399" /><radialGradient
       inkscape:collect="always"
       xlink:href="#linearGradient451"
       id="radialGradient1157"
       gradientUnits="userSpaceOnUse"
       gradientTransform="matrix(0.73949191,-0.24664459,0.14286875,0.54272342,-35.121953,11.768399)"
       cx="141.85136"
       cy="19.137009"
       fx="141.85136"
       fy="19.137009"
       r="3.0076399" /><marker
       style="overflow:visible"
       id="Triangle"
       refX="0"
       refY="0"
       orient="auto-start-reverse"
       inkscape:stockid="Triangle arrow"
       markerWidth="1"
       markerHeight="1"
       viewBox="0 0 1 1"
       inkscape:isstock="true"
       inkscape:collect="always"
       preserveAspectRatio="xMidYMid"><path
         transform="scale(0.5)"
         style="fill:context-stroke;fill-rule:evenodd;stroke:context-stroke;stroke-width:1pt"
         d="M 5.77,0 -2.88,5 V -5 Z"
         id="path135" /></marker></defs><g
     inkscape:groupmode="layer"
     id="layer2"
     inkscape:label="back"
     transform="translate(-21.483467,52.969242)"
     style="display:inline"><path
       style="opacity:0.908667;fill:none;fill-opacity:1;stroke:none;stroke-width:0.264583;stroke-linecap:round;stroke-linejoin:round;stroke-dasharray:none"
       d="m 148.77208,17.155084 h 1.88703 l 0.0364,1.130204 -1.92347,0.02191 z"
       id="path174" /><path
       style="opacity:0.908667;fill:none;fill-opacity:1;stroke:none;stroke-width:0.264583;stroke-linecap:round;stroke-linejoin:round;stroke-dasharray:none"
       d="m 148.77208,17.155084 h 1.88703 l 0.0364,1.130204 -1.92347,0.02191 z"
       id="path175" /><rect
       style="display:inline;fill:#ffffff;stroke:none;stroke-width:0.264583;stroke-linecap:round;stroke-linejoin:round;stroke-dasharray:none"
       id="rect18"
       width="220.79309"
       height="68.402672"
       x="21.483467"
       y="-52.969242" /></g><g
     inkscape:label="Capa 1"
     inkscape:groupmode="layer"
     id="layer1"
     transform="translate(-21.483467,52.969242)"
     style="display:inline"><text
       xml:space="preserve"
       style="font-weight:bold;font-size:5.29167px;font-family:Ubuntu;-inkscape-font-specification:'Ubuntu Bold';text-align:center;text-anchor:middle;display:inline;fill:#000000;stroke-width:0.79375;stroke-linecap:round;stroke-linejoin:round"
       x="78.620087"
       y="-39.123943"
       id="text128-7"><tspan
         sodipodi:role="line"
         style="text-align:center;text-anchor:middle;fill:#000000;stroke-width:0.79375"
         x="78.620087"
         y="-39.123943"
         id="tspan128-0">Ãbaco de unidades y decenas</tspan></text><text
       xml:space="preserve"
       style="font-weight:bold;font-size:5.29167px;font-family:Ubuntu;-inkscape-font-specification:'Ubuntu Bold';text-align:center;text-anchor:middle;display:inline;fill:#000000;stroke-width:0.79375;stroke-linecap:round;stroke-linejoin:round"
       x="110.10965"
       y="201.86952"
       id="text12"><tspan
         sodipodi:role="line"
         style="text-align:center;text-anchor:middle;fill:#000000;stroke-width:0.79375"
         x="110.10965"
         y="201.86952"
         id="tspan11" /><tspan
         sodipodi:role="line"
         style="font-style:normal;font-variant:normal;font-weight:normal;font-stretch:normal;font-family:Ubuntu;-inkscape-font-specification:Ubuntu;text-align:center;text-anchor:middle;fill:#000000;stroke-width:0.79375"
         x="110.10965"
         y="208.48412"
         id="tspan12" /></text><text
       xml:space="preserve"
       style="font-weight:bold;font-size:5.29167px;font-family:Ubuntu;-inkscape-font-specification:'Ubuntu Bold';text-align:center;text-anchor:middle;display:inline;fill:#000000;stroke-width:0.79375;stroke-linecap:round;stroke-linejoin:round"
       x="133.88434"
       y="201.86952"
       id="text14"><tspan
         sodipodi:role="line"
         style="text-align:center;text-anchor:middle;fill:#000000;stroke-width:0.79375"
         x="133.88434"
         y="201.86952"
         id="tspan13" /><tspan
         sodipodi:role="line"
         style="font-style:normal;font-variant:normal;font-weight:normal;font-stretch:normal;font-family:Ubuntu;-inkscape-font-specification:Ubuntu;text-align:center;text-anchor:middle;fill:#000000;stroke-width:0.79375"
         x="133.88434"
         y="208.48412"
         id="tspan14" /></text><g
       id="g426"
       transform="translate(0,5.3016731)"><rect
         style="opacity:0.908667;fill:#d3d4d0;fill-opacity:1;stroke:none;stroke-width:0.264581;stroke-linecap:round;stroke-linejoin:round;stroke-dasharray:none"
         id="rect52"
         width="79.780327"
         height="1.3608049"
         x="40.58773"
         y="-20.487467" /><rect
         style="opacity:0.908667;fill:#7e7f7a;fill-opacity:1;stroke:none;stroke-width:0.264581;stroke-linecap:round;stroke-linejoin:round;stroke-dasharray:none"
         id="rect53"
         width="79.780327"
         height="0.66587543"
         x="40.58773"
         y="-19.285847" /></g><text
       xml:space="preserve"
       style="font-weight:bold;font-size:5.29167px;font-family:Ubuntu;-inkscape-font-specification:'Ubuntu Bold';text-align:center;text-anchor:middle;display:inline;fill:#000000;stroke-width:0.79375;stroke-linecap:round;stroke-linejoin:round"
       x="36.455795"
       y="-19.281122"
       id="text133-9"><tspan
         sodipodi:role="line"
         style="text-align:center;text-anchor:middle;fill:#000000;stroke-width:0.79375"
         x="36.455795"
         y="-19.281122"
         id="tspan132-3" /><tspan
         sodipodi:role="line"
         style="font-style:normal;font-variant:normal;font-weight:normal;font-stretch:normal;font-family:Ubuntu;-inkscape-font-specification:Ubuntu;text-align:center;text-anchor:middle;fill:#000000;stroke-width:0.79375"
         x="36.455795"
         y="-12.666534"
         id="tspan133-6">0</tspan></text><g
       id="g66"
       transform="translate(-14.497799,-4.0067922)"><path
         style="fill:#008000;fill-opacity:1;stroke:none;stroke-width:0.264583;stroke-linecap:round;stroke-linejoin:round;stroke-dasharray:none"
         d="m 129.32469,-8.8942175 1e-5,-3.2210545 c 0,0 0.65963,-1.377093 2.42921,-1.377093 1.76958,0 2.51374,1.317102 2.51374,1.317102 l 0.0332,3.4784075 c 0,0 -0.43316,1.187815 -2.43595,1.192013 -2.00279,0.0042 -2.54017,-1.389375 -2.54017,-1.389375 z"
         id="path50"
         sodipodi:nodetypes="cczcczcc" /><path
         style="fill:url(#radialGradient65);stroke:none;stroke-width:0.264583;stroke-linecap:round;stroke-linejoin:round;stroke-dasharray:none"
         d="m 129.80968,-9.9685395 -0.48499,-1.8423935 c 0,0 0.30802,-0.892498 1.99061,-1.428739 1.68258,-0.53624 2.45019,-0.05232 2.45019,-0.05232 l 0.50887,1.9022 c 0,0 -0.36308,0.852134 -2.09989,1.4139365 -1.7368,0.561807 -2.36479,0.0073 -2.36479,0.0073 z"
         id="path61"
         sodipodi:nodetypes="cczcczc" /></g><g
       id="g72"
       transform="translate(-19.473959,-4.0067922)"><path
         style="fill:#008000;fill-opacity:1;stroke:none;stroke-width:0.264583;stroke-linecap:round;stroke-linejoin:round;stroke-dasharray:none"
         d="m 129.32469,-8.8942175 1e-5,-3.2210545 c 0,0 0.65963,-1.377093 2.42921,-1.377093 1.76958,0 2.51374,1.317102 2.51374,1.317102 l 0.0332,3.4784075 c 0,0 -0.43316,1.187815 -2.43595,1.192013 -2.00279,0.0042 -2.54017,-1.389375 -2.54017,-1.389375 z"
         id="path71"
         sodipodi:nodetypes="cczcczcc" /><path
         style="fill:url(#radialGradient72);stroke:none;stroke-width:0.264583;stroke-linecap:round;stroke-linejoin:round;stroke-dasharray:none"
         d="m 129.80968,-9.9685395 -0.48499,-1.8423935 c 0,0 0.30802,-0.892498 1.99061,-1.428739 1.68258,-0.53624 2.45019,-0.05232 2.45019,-0.05232 l 0.50887,1.9022 c 0,0 -0.36308,0.852134 -2.09989,1.4139365 -1.7368,0.561807 -2.36479,0.0073 -2.36479,0.0073 z"
         id="path72"
         sodipodi:nodetypes="cczcczc" /></g><g
       id="g74"
       transform="translate(-24.450119,-4.0067922)"><path
         style="fill:#008000;fill-opacity:1;stroke:none;stroke-width:0.264583;stroke-linecap:round;stroke-linejoin:round;stroke-dasharray:none"
         d="m 129.32469,-8.8942175 1e-5,-3.2210545 c 0,0 0.65963,-1.377093 2.42921,-1.377093 1.76958,0 2.51374,1.317102 2.51374,1.317102 l 0.0332,3.4784075 c 0,0 -0.43316,1.187815 -2.43595,1.192013 -2.00279,0.0042 -2.54017,-1.389375 -2.54017,-1.389375 z"
         id="path73"
         sodipodi:nodetypes="cczcczcc" /><path
         style="fill:url(#radialGradient77);stroke:none;stroke-width:0.264583;stroke-linecap:round;stroke-linejoin:round;stroke-dasharray:none"
         d="m 129.80968,-9.9685395 -0.48499,-1.8423935 c 0,0 0.30802,-0.892498 1.99061,-1.428739 1.68258,-0.53624 2.45019,-0.05232 2.45019,-0.05232 l 0.50887,1.9022 c 0,0 -0.36308,0.852134 -2.09989,1.4139365 -1.7368,0.561807 -2.36479,0.0073 -2.36479,0.0073 z"
         id="path74"
         sodipodi:nodetypes="cczcczc" /></g><g
       id="g76"
       transform="translate(-29.426279,-4.0067922)"><path
         style="fill:#008000;fill-opacity:1;stroke:none;stroke-width:0.264583;stroke-linecap:round;stroke-linejoin:round;stroke-dasharray:none"
         d="m 129.32469,-8.8942175 1e-5,-3.2210545 c 0,0 0.65963,-1.377093 2.42921,-1.377093 1.76958,0 2.51374,1.317102 2.51374,1.317102 l 0.0332,3.4784075 c 0,0 -0.43316,1.187815 -2.43595,1.192013 -2.00279,0.0042 -2.54017,-1.389375 -2.54017,-1.389375 z"
         id="path75"
         sodipodi:nodetypes="cczcczcc" /><path
         style="fill:url(#radialGradient76);stroke:none;stroke-width:0.264583;stroke-linecap:round;stroke-linejoin:round;stroke-dasharray:none"
         d="m 129.80968,-9.9685395 -0.48499,-1.8423935 c 0,0 0.30802,-0.892498 1.99061,-1.428739 1.68258,-0.53624 2.45019,-0.05232 2.45019,-0.05232 l 0.50887,1.9022 c 0,0 -0.36308,0.852134 -2.09989,1.4139365 -1.7368,0.561807 -2.36479,0.0073 -2.36479,0.0073 z"
         id="path76"
         sodipodi:nodetypes="cczcczc" /></g><g
       id="g78"
       transform="translate(-34.428929,-4.0067922)"><path
         style="fill:#008000;fill-opacity:1;stroke:none;stroke-width:0.264583;stroke-linecap:round;stroke-linejoin:round;stroke-dasharray:none"
         d="m 129.32469,-8.8942175 1e-5,-3.2210545 c 0,0 0.65963,-1.377093 2.42921,-1.377093 1.76958,0 2.51374,1.317102 2.51374,1.317102 l 0.0332,3.4784075 c 0,0 -0.43316,1.187815 -2.43595,1.192013 -2.00279,0.0042 -2.54017,-1.389375 -2.54017,-1.389375 z"
         id="path77"
         sodipodi:nodetypes="cczcczcc" /><path
         style="fill:url(#radialGradient87);stroke:none;stroke-width:0.264583;stroke-linecap:round;stroke-linejoin:round;stroke-dasharray:none"
         d="m 129.80968,-9.9685395 -0.48499,-1.8423935 c 0,0 0.30802,-0.892498 1.99061,-1.428739 1.68258,-0.53624 2.45019,-0.05232 2.45019,-0.05232 l 0.50887,1.9022 c 0,0 -0.36308,0.852134 -2.09989,1.4139365 -1.7368,0.561807 -2.36479,0.0073 -2.36479,0.0073 z"
         id="path78"
         sodipodi:nodetypes="cczcczc" /></g><g
       id="g80"
       transform="translate(-39.405089,-4.0067922)"><path
         style="fill:#008000;fill-opacity:1;stroke:none;stroke-width:0.264583;stroke-linecap:round;stroke-linejoin:round;stroke-dasharray:none"
         d="m 129.32469,-8.8942175 1e-5,-3.2210545 c 0,0 0.65963,-1.377093 2.42921,-1.377093 1.76958,0 2.51374,1.317102 2.51374,1.317102 l 0.0332,3.4784075 c 0,0 -0.43316,1.187815 -2.43595,1.192013 -2.00279,0.0042 -2.54017,-1.389375 -2.54017,-1.389375 z"
         id="path79"
         sodipodi:nodetypes="cczcczcc" /><path
         style="fill:url(#radialGradient86);stroke:none;stroke-width:0.264583;stroke-linecap:round;stroke-linejoin:round;stroke-dasharray:none"
         d="m 129.80968,-9.9685395 -0.48499,-1.8423935 c 0,0 0.30802,-0.892498 1.99061,-1.428739 1.68258,-0.53624 2.45019,-0.05232 2.45019,-0.05232 l 0.50887,1.9022 c 0,0 -0.36308,0.852134 -2.09989,1.4139365 -1.7368,0.561807 -2.36479,0.0073 -2.36479,0.0073 z"
         id="path80"
         sodipodi:nodetypes="cczcczc" /></g><g
       id="g82"
       transform="translate(-44.381249,-4.0067922)"><path
         style="fill:#008000;fill-opacity:1;stroke:none;stroke-width:0.264583;stroke-linecap:round;stroke-linejoin:round;stroke-dasharray:none"
         d="m 129.32469,-8.8942175 1e-5,-3.2210545 c 0,0 0.65963,-1.377093 2.42921,-1.377093 1.76958,0 2.51374,1.317102 2.51374,1.317102 l 0.0332,3.4784075 c 0,0 -0.43316,1.187815 -2.43595,1.192013 -2.00279,0.0042 -2.54017,-1.389375 -2.54017,-1.389375 z"
         id="path81"
         sodipodi:nodetypes="cczcczcc" /><path
         style="fill:url(#radialGradient85);stroke:none;stroke-width:0.264583;stroke-linecap:round;stroke-linejoin:round;stroke-dasharray:none"
         d="m 129.80968,-9.9685395 -0.48499,-1.8423935 c 0,0 0.30802,-0.892498 1.99061,-1.428739 1.68258,-0.53624 2.45019,-0.05232 2.45019,-0.05232 l 0.50887,1.9022 c 0,0 -0.36308,0.852134 -2.09989,1.4139365 -1.7368,0.561807 -2.36479,0.0073 -2.36479,0.0073 z"
         id="path82"
         sodipodi:nodetypes="cczcczc" /></g><g
       id="g84"
       transform="translate(-49.357409,-4.0067922)"><path
         style="fill:#008000;fill-opacity:1;stroke:none;stroke-width:0.264583;stroke-linecap:round;stroke-linejoin:round;stroke-dasharray:none"
         d="m 129.32469,-8.8942175 1e-5,-3.2210545 c 0,0 0.65963,-1.377093 2.42921,-1.377093 1.76958,0 2.51374,1.317102 2.51374,1.317102 l 0.0332,3.4784075 c 0,0 -0.43316,1.187815 -2.43595,1.192013 -2.00279,0.0042 -2.54017,-1.389375 -2.54017,-1.389375 z"
         id="path83"
         sodipodi:nodetypes="cczcczcc" /><path
         style="fill:url(#radialGradient84);stroke:none;stroke-width:0.264583;stroke-linecap:round;stroke-linejoin:round;stroke-dasharray:none"
         d="m 129.80968,-9.9685395 -0.48499,-1.8423935 c 0,0 0.30802,-0.892498 1.99061,-1.428739 1.68258,-0.53624 2.45019,-0.05232 2.45019,-0.05232 l 0.50887,1.9022 c 0,0 -0.36308,0.852134 -2.09989,1.4139365 -1.7368,0.561807 -2.36479,0.0073 -2.36479,0.0073 z"
         id="path84"
         sodipodi:nodetypes="cczcczc" /></g><g
       id="g88"
       transform="translate(-54.360059,-4.0067922)"><path
         style="fill:#008000;fill-opacity:1;stroke:none;stroke-width:0.264583;stroke-linecap:round;stroke-linejoin:round;stroke-dasharray:none"
         d="m 129.32469,-8.8942175 1e-5,-3.2210545 c 0,0 0.65963,-1.377093 2.42921,-1.377093 1.76958,0 2.51374,1.317102 2.51374,1.317102 l 0.0332,3.4784075 c 0,0 -0.43316,1.187815 -2.43595,1.192013 -2.00279,0.0042 -2.54017,-1.389375 -2.54017,-1.389375 z"
         id="path87"
         sodipodi:nodetypes="cczcczcc" /><path
         style="fill:url(#radialGradient91);stroke:none;stroke-width:0.264583;stroke-linecap:round;stroke-linejoin:round;stroke-dasharray:none"
         d="m 129.80968,-9.9685395 -0.48499,-1.8423935 c 0,0 0.30802,-0.892498 1.99061,-1.428739 1.68258,-0.53624 2.45019,-0.05232 2.45019,-0.05232 l 0.50887,1.9022 c 0,0 -0.36308,0.852134 -2.09989,1.4139365 -1.7368,0.561807 -2.36479,0.0073 -2.36479,0.0073 z"
         id="path88"
         sodipodi:nodetypes="cczcczc" /></g><g
       id="g90"
       transform="translate(-59.336219,-4.0067922)"><path
         style="fill:#008000;fill-opacity:1;stroke:none;stroke-width:0.264583;stroke-linecap:round;stroke-linejoin:round;stroke-dasharray:none"
         d="m 129.32469,-8.8942175 1e-5,-3.2210545 c 0,0 0.65963,-1.377093 2.42921,-1.377093 1.76958,0 2.51374,1.317102 2.51374,1.317102 l 0.0332,3.4784075 c 0,0 -0.43316,1.187815 -2.43595,1.192013 -2.00279,0.0042 -2.54017,-1.389375 -2.54017,-1.389375 z"
         id="path89"
         sodipodi:nodetypes="cczcczcc" /><path
         style="fill:url(#radialGradient90);stroke:none;stroke-width:0.264583;stroke-linecap:round;stroke-linejoin:round;stroke-dasharray:none"
         d="m 129.80968,-9.9685395 -0.48499,-1.8423935 c 0,0 0.30802,-0.892498 1.99061,-1.428739 1.68258,-0.53624 2.45019,-0.05232 2.45019,-0.05232 l 0.50887,1.9022 c 0,0 -0.36308,0.852134 -2.09989,1.4139365 -1.7368,0.561807 -2.36479,0.0073 -2.36479,0.0073 z"
         id="path90"
         sodipodi:nodetypes="cczcczc" /></g><g
       id="g427"
       transform="translate(0,13.187503)"><rect
         style="opacity:0.908667;fill:#d3d4d0;fill-opacity:1;stroke:none;stroke-width:0.264581;stroke-linecap:round;stroke-linejoin:round;stroke-dasharray:none"
         id="rect426"
         width="79.780327"
         height="1.3608049"
         x="40.58773"
         y="-20.487467" /><rect
         style="opacity:0.908667;fill:#7e7f7a;fill-opacity:1;stroke:none;stroke-width:0.264581;stroke-linecap:round;stroke-linejoin:round;stroke-dasharray:none"
         id="rect427"
         width="79.780327"
         height="0.66587543"
         x="40.58773"
         y="-19.285847" /></g><rect
       style="fill:none;stroke:#803300;stroke-width:0.793749;stroke-linecap:round;stroke-linejoin:round;stroke-dasharray:none"
       id="rect28"
       width="79.581894"
       height="19.54039"
       x="40.58773"
       y="-19.790432" /><g
       id="g451"
       transform="translate(44.785441,5.3016731)"><path
         style="fill:#00ffff;fill-opacity:1;stroke:none;stroke-width:0.264583;stroke-linecap:round;stroke-linejoin:round;stroke-dasharray:none"
         d="m 70.04145,-10.102544 1e-5,-3.221055 c 0,0 0.65963,-1.377092 2.42921,-1.377092 1.76958,0 2.51374,1.317101 2.51374,1.317101 l 0.0332,3.478408 c 0,0 -0.43316,1.187815 -2.43595,1.192013 -2.00279,0.0042 -2.54017,-1.389375 -2.54017,-1.389375 z"
         id="path447"
         sodipodi:nodetypes="cczcczcc" /><path
         style="fill:url(#radialGradient448);stroke:none;stroke-width:0.264583;stroke-linecap:round;stroke-linejoin:round;stroke-dasharray:none"
         d="m 70.52644,-11.176866 -0.48499,-1.842393 c 0,0 0.30802,-0.892498 1.99061,-1.428739 1.68258,-0.53624 2.45019,-0.05232 2.45019,-0.05232 l 0.50887,1.9022 c 0,0 -0.36308,0.852134 -2.09989,1.413936 -1.7368,0.561807 -2.36479,0.0073 -2.36479,0.0073 z"
         id="path448"
         sodipodi:nodetypes="cczcczc" /></g><text
       xml:space="preserve"
       style="font-weight:bold;font-size:5.29167px;font-family:Ubuntu;-inkscape-font-specification:'Ubuntu Bold';text-align:center;text-anchor:middle;display:inline;fill:#000000;stroke-width:0.79375;stroke-linecap:round;stroke-linejoin:round"
       x="36.072147"
       y="-11.180985"
       id="text450"><tspan
         sodipodi:role="line"
         style="text-align:center;text-anchor:middle;fill:#000000;stroke-width:0.79375"
         x="36.072147"
         y="-11.180985"
         id="tspan449" /><tspan
         sodipodi:role="line"
         style="font-style:normal;font-variant:normal;font-weight:normal;font-stretch:normal;font-family:Ubuntu;-inkscape-font-specification:Ubuntu;text-align:center;text-anchor:middle;fill:#000000;stroke-width:0.79375"
         x="36.072147"
         y="-4.5663981"
         id="tspan450">10</tspan></text><g
       id="g452"
       transform="translate(39.809281,5.3016731)"><path
         style="fill:#00ffff;fill-opacity:1;stroke:none;stroke-width:0.264583;stroke-linecap:round;stroke-linejoin:round;stroke-dasharray:none"
         d="m 70.04145,-10.102544 1e-5,-3.221055 c 0,0 0.65963,-1.377092 2.42921,-1.377092 1.76958,0 2.51374,1.317101 2.51374,1.317101 l 0.0332,3.478408 c 0,0 -0.43316,1.187815 -2.43595,1.192013 -2.00279,0.0042 -2.54017,-1.389375 -2.54017,-1.389375 z"
         id="path451"
         sodipodi:nodetypes="cczcczcc" /><path
         style="fill:url(#radialGradient452);stroke:none;stroke-width:0.264583;stroke-linecap:round;stroke-linejoin:round;stroke-dasharray:none"
         d="m 70.52644,-11.176866 -0.48499,-1.842393 c 0,0 0.30802,-0.892498 1.99061,-1.428739 1.68258,-0.53624 2.45019,-0.05232 2.45019,-0.05232 l 0.50887,1.9022 c 0,0 -0.36308,0.852134 -2.09989,1.413936 -1.7368,0.561807 -2.36479,0.0073 -2.36479,0.0073 z"
         id="path452"
         sodipodi:nodetypes="cczcczc" /></g><g
       id="g454"
       transform="translate(34.833121,5.3016731)"><path
         style="fill:#00ffff;fill-opacity:1;stroke:none;stroke-width:0.264583;stroke-linecap:round;stroke-linejoin:round;stroke-dasharray:none"
         d="m 70.04145,-10.102544 1e-5,-3.221055 c 0,0 0.65963,-1.377092 2.42921,-1.377092 1.76958,0 2.51374,1.317101 2.51374,1.317101 l 0.0332,3.478408 c 0,0 -0.43316,1.187815 -2.43595,1.192013 -2.00279,0.0042 -2.54017,-1.389375 -2.54017,-1.389375 z"
         id="path453"
         sodipodi:nodetypes="cczcczcc" /><path
         style="fill:url(#radialGradient457);stroke:none;stroke-width:0.264583;stroke-linecap:round;stroke-linejoin:round;stroke-dasharray:none"
         d="m 70.52644,-11.176866 -0.48499,-1.842393 c 0,0 0.30802,-0.892498 1.99061,-1.428739 1.68258,-0.53624 2.45019,-0.05232 2.45019,-0.05232 l 0.50887,1.9022 c 0,0 -0.36308,0.852134 -2.09989,1.413936 -1.7368,0.561807 -2.36479,0.0073 -2.36479,0.0073 z"
         id="path454"
         sodipodi:nodetypes="cczcczc" /></g><g
       id="g456"
       transform="translate(29.856961,5.3016731)"><path
         style="fill:#00ffff;fill-opacity:1;stroke:none;stroke-width:0.264583;stroke-linecap:round;stroke-linejoin:round;stroke-dasharray:none"
         d="m 70.04145,-10.102544 1e-5,-3.221055 c 0,0 0.65963,-1.377092 2.42921,-1.377092 1.76958,0 2.51374,1.317101 2.51374,1.317101 l 0.0332,3.478408 c 0,0 -0.43316,1.187815 -2.43595,1.192013 -2.00279,0.0042 -2.54017,-1.389375 -2.54017,-1.389375 z"
         id="path455"
         sodipodi:nodetypes="cczcczcc" /><path
         style="fill:url(#radialGradient456);stroke:none;stroke-width:0.264583;stroke-linecap:round;stroke-linejoin:round;stroke-dasharray:none"
         d="m 70.52644,-11.176866 -0.48499,-1.842393 c 0,0 0.30802,-0.892498 1.99061,-1.428739 1.68258,-0.53624 2.45019,-0.05232 2.45019,-0.05232 l 0.50887,1.9022 c 0,0 -0.36308,0.852134 -2.09989,1.413936 -1.7368,0.561807 -2.36479,0.0073 -2.36479,0.0073 z"
         id="path456"
         sodipodi:nodetypes="cczcczc" /></g><g
       id="g458"
       transform="translate(24.880801,5.3016731)"><path
         style="fill:#00ffff;fill-opacity:1;stroke:none;stroke-width:0.264583;stroke-linecap:round;stroke-linejoin:round;stroke-dasharray:none"
         d="m 70.04145,-10.102544 1e-5,-3.221055 c 0,0 0.65963,-1.377092 2.42921,-1.377092 1.76958,0 2.51374,1.317101 2.51374,1.317101 l 0.0332,3.478408 c 0,0 -0.43316,1.187815 -2.43595,1.192013 -2.00279,0.0042 -2.54017,-1.389375 -2.54017,-1.389375 z"
         id="path457"
         sodipodi:nodetypes="cczcczcc" /><path
         style="fill:url(#radialGradient467);stroke:none;stroke-width:0.264583;stroke-linecap:round;stroke-linejoin:round;stroke-dasharray:none"
         d="m 70.52644,-11.176866 -0.48499,-1.842393 c 0,0 0.30802,-0.892498 1.99061,-1.428739 1.68258,-0.53624 2.45019,-0.05232 2.45019,-0.05232 l 0.50887,1.9022 c 0,0 -0.36308,0.852134 -2.09989,1.413936 -1.7368,0.561807 -2.36479,0.0073 -2.36479,0.0073 z"
         id="path458"
         sodipodi:nodetypes="cczcczc" /></g><g
       id="g460"
       transform="translate(19.904641,5.3016731)"><path
         style="fill:#00ffff;fill-opacity:1;stroke:none;stroke-width:0.264583;stroke-linecap:round;stroke-linejoin:round;stroke-dasharray:none"
         d="m 70.04145,-10.102544 1e-5,-3.221055 c 0,0 0.65963,-1.377092 2.42921,-1.377092 1.76958,0 2.51374,1.317101 2.51374,1.317101 l 0.0332,3.478408 c 0,0 -0.43316,1.187815 -2.43595,1.192013 -2.00279,0.0042 -2.54017,-1.389375 -2.54017,-1.389375 z"
         id="path459"
         sodipodi:nodetypes="cczcczcc" /><path
         style="fill:url(#radialGradient466);stroke:none;stroke-width:0.264583;stroke-linecap:round;stroke-linejoin:round;stroke-dasharray:none"
         d="m 70.52644,-11.176866 -0.48499,-1.842393 c 0,0 0.30802,-0.892498 1.99061,-1.428739 1.68258,-0.53624 2.45019,-0.05232 2.45019,-0.05232 l 0.50887,1.9022 c 0,0 -0.36308,0.852134 -2.09989,1.413936 -1.7368,0.561807 -2.36479,0.0073 -2.36479,0.0073 z"
         id="path460"
         sodipodi:nodetypes="cczcczc" /></g><g
       id="g462"
       transform="translate(14.928481,5.3016731)"><path
         style="fill:#00ffff;fill-opacity:1;stroke:none;stroke-width:0.264583;stroke-linecap:round;stroke-linejoin:round;stroke-dasharray:none"
         d="m 70.04145,-10.102544 1e-5,-3.221055 c 0,0 0.65963,-1.377092 2.42921,-1.377092 1.76958,0 2.51374,1.317101 2.51374,1.317101 l 0.0332,3.478408 c 0,0 -0.43316,1.187815 -2.43595,1.192013 -2.00279,0.0042 -2.54017,-1.389375 -2.54017,-1.389375 z"
         id="path461"
         sodipodi:nodetypes="cczcczcc" /><path
         style="fill:url(#radialGradient465);stroke:none;stroke-width:0.264583;stroke-linecap:round;stroke-linejoin:round;stroke-dasharray:none"
         d="m 70.52644,-11.176866 -0.48499,-1.842393 c 0,0 0.30802,-0.892498 1.99061,-1.428739 1.68258,-0.53624 2.45019,-0.05232 2.45019,-0.05232 l 0.50887,1.9022 c 0,0 -0.36308,0.852134 -2.09989,1.413936 -1.7368,0.561807 -2.36479,0.0073 -2.36479,0.0073 z"
         id="path462"
         sodipodi:nodetypes="cczcczc" /></g><g
       id="g464"
       transform="translate(9.952321,5.3016731)"><path
         style="fill:#00ffff;fill-opacity:1;stroke:none;stroke-width:0.264583;stroke-linecap:round;stroke-linejoin:round;stroke-dasharray:none"
         d="m 70.04145,-10.102544 1e-5,-3.221055 c 0,0 0.65963,-1.377092 2.42921,-1.377092 1.76958,0 2.51374,1.317101 2.51374,1.317101 l 0.0332,3.478408 c 0,0 -0.43316,1.187815 -2.43595,1.192013 -2.00279,0.0042 -2.54017,-1.389375 -2.54017,-1.389375 z"
         id="path463"
         sodipodi:nodetypes="cczcczcc" /><path
         style="fill:url(#radialGradient464);stroke:none;stroke-width:0.264583;stroke-linecap:round;stroke-linejoin:round;stroke-dasharray:none"
         d="m 70.52644,-11.176866 -0.48499,-1.842393 c 0,0 0.30802,-0.892498 1.99061,-1.428739 1.68258,-0.53624 2.45019,-0.05232 2.45019,-0.05232 l 0.50887,1.9022 c 0,0 -0.36308,0.852134 -2.09989,1.413936 -1.7368,0.561807 -2.36479,0.0073 -2.36479,0.0073 z"
         id="path464"
         sodipodi:nodetypes="cczcczc" /></g><g
       id="g468"
       transform="translate(4.949671,5.3016731)"><path
         style="fill:#00ffff;fill-opacity:1;stroke:none;stroke-width:0.264583;stroke-linecap:round;stroke-linejoin:round;stroke-dasharray:none"
         d="m 70.04145,-10.102544 1e-5,-3.221055 c 0,0 0.65963,-1.377092 2.42921,-1.377092 1.76958,0 2.51374,1.317101 2.51374,1.317101 l 0.0332,3.478408 c 0,0 -0.43316,1.187815 -2.43595,1.192013 -2.00279,0.0042 -2.54017,-1.389375 -2.54017,-1.389375 z"
         id="path467"
         sodipodi:nodetypes="cczcczcc" /><path
         style="fill:url(#radialGradient471);stroke:none;stroke-width:0.264583;stroke-linecap:round;stroke-linejoin:round;stroke-dasharray:none"
         d="m 70.52644,-11.176866 -0.48499,-1.842393 c 0,0 0.30802,-0.892498 1.99061,-1.428739 1.68258,-0.53624 2.45019,-0.05232 2.45019,-0.05232 l 0.50887,1.9022 c 0,0 -0.36308,0.852134 -2.09989,1.413936 -1.7368,0.561807 -2.36479,0.0073 -2.36479,0.0073 z"
         id="path468"
         sodipodi:nodetypes="cczcczc" /></g><g
       id="g470"
       transform="translate(-0.052979,5.3016731)"><path
         style="fill:#00ffff;fill-opacity:1;stroke:none;stroke-width:0.264583;stroke-linecap:round;stroke-linejoin:round;stroke-dasharray:none"
         d="m 70.04145,-10.102544 1e-5,-3.221055 c 0,0 0.65963,-1.377092 2.42921,-1.377092 1.76958,0 2.51374,1.317101 2.51374,1.317101 l 0.0332,3.478408 c 0,0 -0.43316,1.187815 -2.43595,1.192013 -2.00279,0.0042 -2.54017,-1.389375 -2.54017,-1.389375 z"
         id="path469"
         sodipodi:nodetypes="cczcczcc" /><path
         style="fill:url(#radialGradient470);stroke:none;stroke-width:0.264583;stroke-linecap:round;stroke-linejoin:round;stroke-dasharray:none"
         d="m 70.52644,-11.176866 -0.48499,-1.842393 c 0,0 0.30802,-0.892498 1.99061,-1.428739 1.68258,-0.53624 2.45019,-0.05232 2.45019,-0.05232 l 0.50887,1.9022 c 0,0 -0.36308,0.852134 -2.09989,1.413936 -1.7368,0.561807 -2.36479,0.0073 -2.36479,0.0073 z"
         id="path470"
         sodipodi:nodetypes="cczcczc" /></g><g
       id="g1155"
       transform="translate(-1.1153715,-30.763319)"><path
         style="fill:#008000;fill-opacity:1;stroke:none;stroke-width:0.264583;stroke-linecap:round;stroke-linejoin:round;stroke-dasharray:none"
         d="m 129.32469,-8.8942175 1e-5,-3.2210545 c 0,0 0.65963,-1.377093 2.42921,-1.377093 1.76958,0 2.51374,1.317102 2.51374,1.317102 l 0.0332,3.4784075 c 0,0 -0.43316,1.187815 -2.43595,1.192013 -2.00279,0.0042 -2.54017,-1.389375 -2.54017,-1.389375 z"
         id="path1154"
         sodipodi:nodetypes="cczcczcc" /><path
         style="fill:url(#radialGradient1155);stroke:none;stroke-width:0.264583;stroke-linecap:round;stroke-linejoin:round;stroke-dasharray:none"
         d="m 129.80968,-9.9685395 -0.48499,-1.8423935 c 0,0 0.30802,-0.892498 1.99061,-1.428739 1.68258,-0.53624 2.45019,-0.05232 2.45019,-0.05232 l 0.50887,1.9022 c 0,0 -0.36308,0.852134 -2.09989,1.4139365 -1.7368,0.561807 -2.36479,0.0073 -2.36479,0.0073 z"
         id="path1155"
         sodipodi:nodetypes="cczcczc" /></g><g
       id="g1157"
       transform="translate(58.167869,-21.5228)"><path
         style="fill:#00ffff;fill-opacity:1;stroke:none;stroke-width:0.264583;stroke-linecap:round;stroke-linejoin:round;stroke-dasharray:none"
         d="m 70.04145,-10.102544 1e-5,-3.221055 c 0,0 0.65963,-1.377092 2.42921,-1.377092 1.76958,0 2.51374,1.317101 2.51374,1.317101 l 0.0332,3.478408 c 0,0 -0.43316,1.187815 -2.43595,1.192013 -2.00279,0.0042 -2.54017,-1.389375 -2.54017,-1.389375 z"
         id="path1156"
         sodipodi:nodetypes="cczcczcc" /><path
         style="fill:url(#radialGradient1157);stroke:none;stroke-width:0.264583;stroke-linecap:round;stroke-linejoin:round;stroke-dasharray:none"
         d="m 70.52644,-11.176866 -0.48499,-1.842393 c 0,0 0.30802,-0.892498 1.99061,-1.428739 1.68258,-0.53624 2.45019,-0.05232 2.45019,-0.05232 l 0.50887,1.9022 c 0,0 -0.36308,0.852134 -2.09989,1.413936 -1.7368,0.561807 -2.36479,0.0073 -2.36479,0.0073 z"
         id="path1157"
         sodipodi:nodetypes="cczcczc" /></g><text
       xml:space="preserve"
       style="font-weight:bold;font-size:5.29167px;font-family:Ubuntu;-inkscape-font-specification:'Ubuntu Bold';text-align:start;text-anchor:start;display:inline;fill:#000000;stroke-width:0.79375;stroke-linecap:round;stroke-linejoin:round"
       x="134.67413"
       y="-46.575905"
       id="text1158"><tspan
         sodipodi:role="line"
         style="text-align:start;text-anchor:start;fill:#000000;stroke-width:0.79375"
         x="134.67413"
         y="-46.575905"
         id="tspan1157" /><tspan
         sodipodi:role="line"
         style="font-style:normal;font-variant:normal;font-weight:normal;font-stretch:normal;font-family:Ubuntu;-inkscape-font-specification:Ubuntu;text-align:start;text-anchor:start;fill:#000000;stroke-width:0.79375"
         x="134.67413"
         y="-39.961319"
         id="tspan1158">Unidades</tspan></text><text
       xml:space="preserve"
       style="font-weight:bold;font-size:5.29167px;font-family:Ubuntu;-inkscape-font-specification:'Ubuntu Bold';text-align:start;text-anchor:start;display:inline;fill:#000000;stroke-width:0.79375;stroke-linecap:round;stroke-linejoin:round"
       x="134.67413"
       y="-38.191261"
       id="text1160"><tspan
         sodipodi:role="line"
         style="text-align:start;text-anchor:start;fill:#000000;stroke-width:0.79375"
         x="134.67413"
         y="-38.191261"
         id="tspan1159" /><tspan
         sodipodi:role="line"
         style="font-style:normal;font-variant:normal;font-weight:normal;font-stretch:normal;font-family:Ubuntu;-inkscape-font-specification:Ubuntu;text-align:start;text-anchor:start;fill:#000000;stroke-width:0.79375"
         x="134.67413"
         y="-31.576674"
         id="tspan1160">Decenas</tspan></text><text
       xml:space="preserve"
       style="font-weight:bold;font-size:5.29167px;font-family:Ubuntu;-inkscape-font-specification:'Ubuntu Bold';text-align:start;text-anchor:start;display:inline;fill:#000000;stroke-width:0.79375;stroke-linecap:round;stroke-linejoin:round"
       x="132.66638"
       y="-21.265757"
       id="text1158-4"><tspan
         sodipodi:role="line"
         style="text-align:start;text-anchor:start;fill:#000000;stroke-width:0.79375"
         x="132.66638"
         y="-21.265757"
         id="tspan1157-8" /><tspan
         sodipodi:role="line"
         style="font-style:normal;font-variant:normal;font-weight:normal;font-stretch:normal;font-family:Ubuntu;-inkscape-font-specification:Ubuntu;text-align:start;text-anchor:start;fill:#000000;stroke-width:0.79375"
         x="132.66638"
         y="-14.651169"
         id="tspan1158-1">Fila 1: Cuentas de unidades</tspan></text><path
       style="display:inline;fill:#000000;stroke:#000000;stroke-width:0.264999;stroke-linecap:round;stroke-linejoin:round;marker-end:url(#Triangle)"
       d="m 129.81268,-15.487839 -7.39956,0.796791"
       id="path2"
       sodipodi:nodetypes="cc" /><text
       xml:space="preserve"
       style="font-weight:bold;font-size:5.29167px;font-family:Ubuntu;-inkscape-font-specification:'Ubuntu Bold';text-align:start;text-anchor:start;display:inline;fill:#000000;stroke-width:0.79375;stroke-linecap:round;stroke-linejoin:round"
       x="132.66638"
       y="-9.0846615"
       id="text2"><tspan
         sodipodi:role="line"
         style="text-align:start;text-anchor:start;fill:#000000;stroke-width:0.79375"
         x="132.66638"
         y="-9.0846615"
         id="tspan1" /><tspan
         sodipodi:role="line"
         style="font-style:normal;font-variant:normal;font-weight:normal;font-stretch:normal;font-family:Ubuntu;-inkscape-font-specification:Ubuntu;text-align:start;text-anchor:start;fill:#000000;stroke-width:0.79375"
         x="132.66638"
         y="-2.4700742"
         id="tspan2">Fila 2: Cuentas de decenas</tspan></text><path
       style="display:inline;fill:#000000;stroke:#000000;stroke-width:0.264999;stroke-linecap:round;stroke-linejoin:round;marker-end:url(#Triangle)"
       d="m 130.42262,-4.4361302 -7.39956,-0.796791"
       id="path3"
       sodipodi:nodetypes="cc" /></g></svg>
