<?xml version="1.0" encoding="UTF-8" standalone="no"?>
<!-- Created with Inkscape (http://www.inkscape.org/) -->

<svg
   width="130.42076mm"
   height="89.255913mm"
   viewBox="0 0 130.42076 89.255913"
   version="1.1"
   id="svg1"
   xml:space="preserve"
   inkscape:version="1.3.2 (1:1.3.2+202311252150+091e20ef0f)"
   sodipodi:docname="Intro-04.svg"
   xmlns:inkscape="http://www.inkscape.org/namespaces/inkscape"
   xmlns:sodipodi="http://sodipodi.sourceforge.net/DTD/sodipodi-0.dtd"
   xmlns="http://www.w3.org/2000/svg"
   xmlns:svg="http://www.w3.org/2000/svg"><sodipodi:namedview
     id="namedview1"
     pagecolor="#ffffff"
     bordercolor="#000000"
     borderopacity="0.25"
     inkscape:showpageshadow="2"
     inkscape:pageopacity="0.0"
     inkscape:pagecheckerboard="0"
     inkscape:deskcolor="#d1d1d1"
     inkscape:document-units="mm"
     inkscape:zoom="0.98394782"
     inkscape:cx="327.25313"
     inkscape:cy="227.14619"
     inkscape:window-width="1864"
     inkscape:window-height="1016"
     inkscape:window-x="56"
     inkscape:window-y="27"
     inkscape:window-maximized="1"
     inkscape:current-layer="layer1" /><defs
     id="defs1" /><g
     inkscape:groupmode="layer"
     id="layer3"
     inkscape:label="back"
     transform="translate(-79.094658,-21.795067)"><rect
       style="fill:#ffffff;stroke:none;stroke-width:0.79375;stroke-linecap:round;stroke-linejoin:round"
       id="rect45"
       width="130.42076"
       height="89.255913"
       x="79.094658"
       y="21.795067" /></g><g
     inkscape:label="Capa 1"
     inkscape:groupmode="layer"
     id="layer1"
     transform="translate(-79.094658,-21.795067)"><g
       id="g1"
       transform="rotate(45,194.66039,95.589909)"><path
         d="m 111.42044,131.98657 c 1.42875,1.42875 0.87312,4.31271 -0.0794,5.29167 -0.97895,0.97896 -0.84666,-1.48167 -2.27541,-2.91042 -1.42875,-1.42875 -3.88938,-1.32291 -2.91042,-2.27541 0.9525,-0.97896 3.83646,-1.53459 5.26521,-0.10584"
         fill="#f2b5b5"
         id="path1"
         style="stroke-width:0.264583" /><path
         d="m 106.12877,132.06595 c 0,0 1.61396,0.0794 1.87854,1.34937 0.15875,0.635 -0.1852,1.21709 0.29105,1.69334 0.47625,0.47625 1.05833,0.13229 1.66687,0.29104 1.27,0.29104 1.34938,1.87854 1.34938,1.87854 0.97895,-0.97896 1.53458,-3.86292 0.0794,-5.29167 -1.40229,-1.42875 -4.28625,-0.87312 -5.26521,0.0794"
         fill="#ffe6e8"
         id="path2"
         style="stroke-width:0.264583" /><path
         d="m 116.28877,127.11824 c -1.42875,-1.42875 -0.87312,-4.31271 0.0794,-5.29167 0.97896,-0.97895 0.84666,1.48167 2.27541,2.91042 1.42875,1.42875 3.88938,1.32292 2.91042,2.27542 -0.9525,0.97895 -3.83646,1.53458 -5.26521,0.10583"
         fill="#f2b5b5"
         id="path3"
         style="stroke-width:0.264583" /><path
         d="m 121.58044,127.03886 c 0,0 -1.61396,-0.0794 -1.87854,-1.34937 -0.13229,-0.60854 0.21166,-1.19063 -0.26459,-1.66688 -0.47625,-0.47625 -1.05833,-0.13229 -1.66687,-0.26458 -1.27,-0.29104 -1.34938,-1.87854 -1.34938,-1.87854 -0.97895,0.97896 -1.53458,3.86292 -0.0794,5.29167 1.37583,1.37583 4.25979,0.8202 5.23875,-0.1323"
         fill="#ffe6e8"
         id="path4"
         style="stroke-width:0.264583" /><g
         fill="#f0154f"
         id="g8"
         transform="matrix(0.26458333,0,0,0.26458333,105.38794,121.08574)"><path
           d="m 32,32 c 0,0 0,0 0,0 -2.8,2 -6.8,1.7 -9.3,-0.8 C 20.5,29 20,25.8 21.2,23.1 17.7,27.4 17.1,33.3 19.5,38.1 28,40.2 30.4,33.9 32,32"
           id="path5" /><path
           d="m 32,32 c 0,0 0,0 0,0 -2,-2.8 -1.7,-6.8 0.9,-9.3 2.2,-2.2 5.4,-2.7 8,-1.5 C 36.6,17.7 30.7,17.1 25.9,19.5 23.7,28 30.1,30.4 32,32"
           id="path6" /><path
           d="m 32,32 c 0,0 0,0 0,0 2.9,-1.9 6.8,-1.7 9.3,0.8 2.2,2.2 2.7,5.3 1.6,8 3.4,-4.3 4,-10.1 1.7,-14.9 C 36,23.8 33.6,30.1 32,32"
           id="path7" /><path
           d="m 32.1,32.2 c 1.9,2.8 1.6,6.7 -0.9,9.2 -2.2,2.2 -5.3,2.7 -8,1.6 4.3,3.5 10.1,4 14.9,1.7 2.1,-8.6 -4,-11 -6,-12.5"
           id="path8" /></g><path
         d="m 116.42106,126.88011 c -0.0794,-0.0794 -0.15875,-0.13229 -0.23812,-0.21166 -0.71438,-0.29104 -1.53458,-0.15875 -2.11667,0.39687 -0.66146,0.68792 -0.74083,1.71979 -0.21166,2.48709 -0.50271,-0.39688 -2.16959,-1.03188 -1.61396,-3.3073 -0.10584,0.0529 -0.18521,0.10584 -0.29104,0.15875 -0.26459,0.15875 -0.50271,0.34396 -0.71438,0.55563 -0.0265,0.0265 -0.0265,0.0265 -0.0529,0.0529 -0.0794,0.0794 -0.13229,0.15875 -0.21166,0.23812 -0.3175,0.71438 -0.18521,1.56104 0.39687,2.14313 0.66146,0.66145 1.71979,0.74083 2.46063,0.21166 -0.39688,0.47625 -1.03188,2.16959 -3.30729,1.61396 0.0529,0.10583 0.10583,0.21167 0.15875,0.29104 0.15875,0.23813 0.34395,0.47625 0.55562,0.68792 0.0265,0.0265 0.0265,0.0265 0.0529,0.0529 0.0794,0.0794 0.15875,0.13229 0.23812,0.21166 0.71438,0.29104 1.53459,0.15875 2.11667,-0.42333 0.66146,-0.66146 0.74083,-1.69333 0.23812,-2.43417 0.52917,0.39688 2.14313,1.05834 1.5875,3.28084 0.10584,-0.0529 0.18521,-0.10584 0.29105,-0.15875 0.26458,-0.15875 0.5027,-0.34396 0.71437,-0.55563 0.0265,-0.0265 0.0265,-0.0265 0.0529,-0.0529 0.0794,-0.0794 0.15875,-0.15875 0.21166,-0.23812 0.29105,-0.68792 0.15875,-1.53458 -0.42333,-2.11667 -0.66146,-0.66146 -1.69333,-0.74083 -2.46062,-0.21166 0.39687,-0.50271 1.05833,-2.16959 3.33375,-1.61396 -0.0529,-0.0794 -0.0794,-0.18521 -0.1323,-0.26459 -0.15875,-0.26458 -0.34395,-0.5027 -0.58208,-0.74083 -0.0265,-0.0265 -0.0265,-0.0265 -0.0529,-0.0529"
         fill="#ffe6e8"
         id="path9"
         style="stroke-width:0.264583" /></g><g
       id="g18"
       transform="rotate(69.673736,184.94989,113.8064)"><path
         d="m 111.42044,131.98657 c 1.42875,1.42875 0.87312,4.31271 -0.0794,5.29167 -0.97895,0.97896 -0.84666,-1.48167 -2.27541,-2.91042 -1.42875,-1.42875 -3.88938,-1.32291 -2.91042,-2.27541 0.9525,-0.97896 3.83646,-1.53459 5.26521,-0.10584"
         fill="#f2b5b5"
         id="path10"
         style="stroke-width:0.264583" /><path
         d="m 106.12877,132.06595 c 0,0 1.61396,0.0794 1.87854,1.34937 0.15875,0.635 -0.1852,1.21709 0.29105,1.69334 0.47625,0.47625 1.05833,0.13229 1.66687,0.29104 1.27,0.29104 1.34938,1.87854 1.34938,1.87854 0.97895,-0.97896 1.53458,-3.86292 0.0794,-5.29167 -1.40229,-1.42875 -4.28625,-0.87312 -5.26521,0.0794"
         fill="#ffe6e8"
         id="path11"
         style="stroke-width:0.264583" /><path
         d="m 116.28877,127.11824 c -1.42875,-1.42875 -0.87312,-4.31271 0.0794,-5.29167 0.97896,-0.97895 0.84666,1.48167 2.27541,2.91042 1.42875,1.42875 3.88938,1.32292 2.91042,2.27542 -0.9525,0.97895 -3.83646,1.53458 -5.26521,0.10583"
         fill="#f2b5b5"
         id="path12"
         style="stroke-width:0.264583" /><path
         d="m 121.58044,127.03886 c 0,0 -1.61396,-0.0794 -1.87854,-1.34937 -0.13229,-0.60854 0.21166,-1.19063 -0.26459,-1.66688 -0.47625,-0.47625 -1.05833,-0.13229 -1.66687,-0.26458 -1.27,-0.29104 -1.34938,-1.87854 -1.34938,-1.87854 -0.97895,0.97896 -1.53458,3.86292 -0.0794,5.29167 1.37583,1.37583 4.25979,0.8202 5.23875,-0.1323"
         fill="#ffe6e8"
         id="path13"
         style="stroke-width:0.264583" /><g
         fill="#f0154f"
         id="g17"
         transform="matrix(0.26458333,0,0,0.26458333,105.38794,121.08574)"><path
           d="m 32,32 c 0,0 0,0 0,0 -2.8,2 -6.8,1.7 -9.3,-0.8 C 20.5,29 20,25.8 21.2,23.1 17.7,27.4 17.1,33.3 19.5,38.1 28,40.2 30.4,33.9 32,32"
           id="path14" /><path
           d="m 32,32 c 0,0 0,0 0,0 -2,-2.8 -1.7,-6.8 0.9,-9.3 2.2,-2.2 5.4,-2.7 8,-1.5 C 36.6,17.7 30.7,17.1 25.9,19.5 23.7,28 30.1,30.4 32,32"
           id="path15" /><path
           d="m 32,32 c 0,0 0,0 0,0 2.9,-1.9 6.8,-1.7 9.3,0.8 2.2,2.2 2.7,5.3 1.6,8 3.4,-4.3 4,-10.1 1.7,-14.9 C 36,23.8 33.6,30.1 32,32"
           id="path16" /><path
           d="m 32.1,32.2 c 1.9,2.8 1.6,6.7 -0.9,9.2 -2.2,2.2 -5.3,2.7 -8,1.6 4.3,3.5 10.1,4 14.9,1.7 2.1,-8.6 -4,-11 -6,-12.5"
           id="path17" /></g><path
         d="m 116.42106,126.88011 c -0.0794,-0.0794 -0.15875,-0.13229 -0.23812,-0.21166 -0.71438,-0.29104 -1.53458,-0.15875 -2.11667,0.39687 -0.66146,0.68792 -0.74083,1.71979 -0.21166,2.48709 -0.50271,-0.39688 -2.16959,-1.03188 -1.61396,-3.3073 -0.10584,0.0529 -0.18521,0.10584 -0.29104,0.15875 -0.26459,0.15875 -0.50271,0.34396 -0.71438,0.55563 -0.0265,0.0265 -0.0265,0.0265 -0.0529,0.0529 -0.0794,0.0794 -0.13229,0.15875 -0.21166,0.23812 -0.3175,0.71438 -0.18521,1.56104 0.39687,2.14313 0.66146,0.66145 1.71979,0.74083 2.46063,0.21166 -0.39688,0.47625 -1.03188,2.16959 -3.30729,1.61396 0.0529,0.10583 0.10583,0.21167 0.15875,0.29104 0.15875,0.23813 0.34395,0.47625 0.55562,0.68792 0.0265,0.0265 0.0265,0.0265 0.0529,0.0529 0.0794,0.0794 0.15875,0.13229 0.23812,0.21166 0.71438,0.29104 1.53459,0.15875 2.11667,-0.42333 0.66146,-0.66146 0.74083,-1.69333 0.23812,-2.43417 0.52917,0.39688 2.14313,1.05834 1.5875,3.28084 0.10584,-0.0529 0.18521,-0.10584 0.29105,-0.15875 0.26458,-0.15875 0.5027,-0.34396 0.71437,-0.55563 0.0265,-0.0265 0.0265,-0.0265 0.0529,-0.0529 0.0794,-0.0794 0.15875,-0.15875 0.21166,-0.23812 0.29105,-0.68792 0.15875,-1.53458 -0.42333,-2.11667 -0.66146,-0.66146 -1.69333,-0.74083 -2.46062,-0.21166 0.39687,-0.50271 1.05833,-2.16959 3.33375,-1.61396 -0.0529,-0.0794 -0.0794,-0.18521 -0.1323,-0.26459 -0.15875,-0.26458 -0.34395,-0.5027 -0.58208,-0.74083 -0.0265,-0.0265 -0.0265,-0.0265 -0.0529,-0.0529"
         fill="#ffe6e8"
         id="path18"
         style="stroke-width:0.264583" /></g><g
       id="g27"
       transform="rotate(20.553395,283.899,185.46007)"><path
         d="m 111.42044,131.98657 c 1.42875,1.42875 0.87312,4.31271 -0.0794,5.29167 -0.97895,0.97896 -0.84666,-1.48167 -2.27541,-2.91042 -1.42875,-1.42875 -3.88938,-1.32291 -2.91042,-2.27541 0.9525,-0.97896 3.83646,-1.53459 5.26521,-0.10584"
         fill="#f2b5b5"
         id="path19"
         style="stroke-width:0.264583" /><path
         d="m 106.12877,132.06595 c 0,0 1.61396,0.0794 1.87854,1.34937 0.15875,0.635 -0.1852,1.21709 0.29105,1.69334 0.47625,0.47625 1.05833,0.13229 1.66687,0.29104 1.27,0.29104 1.34938,1.87854 1.34938,1.87854 0.97895,-0.97896 1.53458,-3.86292 0.0794,-5.29167 -1.40229,-1.42875 -4.28625,-0.87312 -5.26521,0.0794"
         fill="#ffe6e8"
         id="path20"
         style="stroke-width:0.264583" /><path
         d="m 116.28877,127.11824 c -1.42875,-1.42875 -0.87312,-4.31271 0.0794,-5.29167 0.97896,-0.97895 0.84666,1.48167 2.27541,2.91042 1.42875,1.42875 3.88938,1.32292 2.91042,2.27542 -0.9525,0.97895 -3.83646,1.53458 -5.26521,0.10583"
         fill="#f2b5b5"
         id="path21"
         style="stroke-width:0.264583" /><path
         d="m 121.58044,127.03886 c 0,0 -1.61396,-0.0794 -1.87854,-1.34937 -0.13229,-0.60854 0.21166,-1.19063 -0.26459,-1.66688 -0.47625,-0.47625 -1.05833,-0.13229 -1.66687,-0.26458 -1.27,-0.29104 -1.34938,-1.87854 -1.34938,-1.87854 -0.97895,0.97896 -1.53458,3.86292 -0.0794,5.29167 1.37583,1.37583 4.25979,0.8202 5.23875,-0.1323"
         fill="#ffe6e8"
         id="path22"
         style="stroke-width:0.264583" /><g
         fill="#f0154f"
         id="g26"
         transform="matrix(0.26458333,0,0,0.26458333,105.38794,121.08574)"><path
           d="m 32,32 c 0,0 0,0 0,0 -2.8,2 -6.8,1.7 -9.3,-0.8 C 20.5,29 20,25.8 21.2,23.1 17.7,27.4 17.1,33.3 19.5,38.1 28,40.2 30.4,33.9 32,32"
           id="path23" /><path
           d="m 32,32 c 0,0 0,0 0,0 -2,-2.8 -1.7,-6.8 0.9,-9.3 2.2,-2.2 5.4,-2.7 8,-1.5 C 36.6,17.7 30.7,17.1 25.9,19.5 23.7,28 30.1,30.4 32,32"
           id="path24" /><path
           d="m 32,32 c 0,0 0,0 0,0 2.9,-1.9 6.8,-1.7 9.3,0.8 2.2,2.2 2.7,5.3 1.6,8 3.4,-4.3 4,-10.1 1.7,-14.9 C 36,23.8 33.6,30.1 32,32"
           id="path25" /><path
           d="m 32.1,32.2 c 1.9,2.8 1.6,6.7 -0.9,9.2 -2.2,2.2 -5.3,2.7 -8,1.6 4.3,3.5 10.1,4 14.9,1.7 2.1,-8.6 -4,-11 -6,-12.5"
           id="path26" /></g><path
         d="m 116.42106,126.88011 c -0.0794,-0.0794 -0.15875,-0.13229 -0.23812,-0.21166 -0.71438,-0.29104 -1.53458,-0.15875 -2.11667,0.39687 -0.66146,0.68792 -0.74083,1.71979 -0.21166,2.48709 -0.50271,-0.39688 -2.16959,-1.03188 -1.61396,-3.3073 -0.10584,0.0529 -0.18521,0.10584 -0.29104,0.15875 -0.26459,0.15875 -0.50271,0.34396 -0.71438,0.55563 -0.0265,0.0265 -0.0265,0.0265 -0.0529,0.0529 -0.0794,0.0794 -0.13229,0.15875 -0.21166,0.23812 -0.3175,0.71438 -0.18521,1.56104 0.39687,2.14313 0.66146,0.66145 1.71979,0.74083 2.46063,0.21166 -0.39688,0.47625 -1.03188,2.16959 -3.30729,1.61396 0.0529,0.10583 0.10583,0.21167 0.15875,0.29104 0.15875,0.23813 0.34395,0.47625 0.55562,0.68792 0.0265,0.0265 0.0265,0.0265 0.0529,0.0529 0.0794,0.0794 0.15875,0.13229 0.23812,0.21166 0.71438,0.29104 1.53459,0.15875 2.11667,-0.42333 0.66146,-0.66146 0.74083,-1.69333 0.23812,-2.43417 0.52917,0.39688 2.14313,1.05834 1.5875,3.28084 0.10584,-0.0529 0.18521,-0.10584 0.29105,-0.15875 0.26458,-0.15875 0.5027,-0.34396 0.71437,-0.55563 0.0265,-0.0265 0.0265,-0.0265 0.0529,-0.0529 0.0794,-0.0794 0.15875,-0.15875 0.21166,-0.23812 0.29105,-0.68792 0.15875,-1.53458 -0.42333,-2.11667 -0.66146,-0.66146 -1.69333,-0.74083 -2.46062,-0.21166 0.39687,-0.50271 1.05833,-2.16959 3.33375,-1.61396 -0.0529,-0.0794 -0.0794,-0.18521 -0.1323,-0.26459 -0.15875,-0.26458 -0.34395,-0.5027 -0.58208,-0.74083 -0.0265,-0.0265 -0.0265,-0.0265 -0.0529,-0.0529"
         fill="#ffe6e8"
         id="path27"
         style="stroke-width:0.264583" /></g><g
       id="g36"
       transform="rotate(-42.162676,64.793559,28.48575)"><path
         d="m 111.42044,131.98657 c 1.42875,1.42875 0.87312,4.31271 -0.0794,5.29167 -0.97895,0.97896 -0.84666,-1.48167 -2.27541,-2.91042 -1.42875,-1.42875 -3.88938,-1.32291 -2.91042,-2.27541 0.9525,-0.97896 3.83646,-1.53459 5.26521,-0.10584"
         fill="#f2b5b5"
         id="path28"
         style="stroke-width:0.264583" /><path
         d="m 106.12877,132.06595 c 0,0 1.61396,0.0794 1.87854,1.34937 0.15875,0.635 -0.1852,1.21709 0.29105,1.69334 0.47625,0.47625 1.05833,0.13229 1.66687,0.29104 1.27,0.29104 1.34938,1.87854 1.34938,1.87854 0.97895,-0.97896 1.53458,-3.86292 0.0794,-5.29167 -1.40229,-1.42875 -4.28625,-0.87312 -5.26521,0.0794"
         fill="#ffe6e8"
         id="path29"
         style="stroke-width:0.264583" /><path
         d="m 116.28877,127.11824 c -1.42875,-1.42875 -0.87312,-4.31271 0.0794,-5.29167 0.97896,-0.97895 0.84666,1.48167 2.27541,2.91042 1.42875,1.42875 3.88938,1.32292 2.91042,2.27542 -0.9525,0.97895 -3.83646,1.53458 -5.26521,0.10583"
         fill="#f2b5b5"
         id="path30"
         style="stroke-width:0.264583" /><path
         d="m 121.58044,127.03886 c 0,0 -1.61396,-0.0794 -1.87854,-1.34937 -0.13229,-0.60854 0.21166,-1.19063 -0.26459,-1.66688 -0.47625,-0.47625 -1.05833,-0.13229 -1.66687,-0.26458 -1.27,-0.29104 -1.34938,-1.87854 -1.34938,-1.87854 -0.97895,0.97896 -1.53458,3.86292 -0.0794,5.29167 1.37583,1.37583 4.25979,0.8202 5.23875,-0.1323"
         fill="#ffe6e8"
         id="path31"
         style="stroke-width:0.264583" /><g
         fill="#f0154f"
         id="g35"
         transform="matrix(0.26458333,0,0,0.26458333,105.38794,121.08574)"><path
           d="m 32,32 c 0,0 0,0 0,0 -2.8,2 -6.8,1.7 -9.3,-0.8 C 20.5,29 20,25.8 21.2,23.1 17.7,27.4 17.1,33.3 19.5,38.1 28,40.2 30.4,33.9 32,32"
           id="path32" /><path
           d="m 32,32 c 0,0 0,0 0,0 -2,-2.8 -1.7,-6.8 0.9,-9.3 2.2,-2.2 5.4,-2.7 8,-1.5 C 36.6,17.7 30.7,17.1 25.9,19.5 23.7,28 30.1,30.4 32,32"
           id="path33" /><path
           d="m 32,32 c 0,0 0,0 0,0 2.9,-1.9 6.8,-1.7 9.3,0.8 2.2,2.2 2.7,5.3 1.6,8 3.4,-4.3 4,-10.1 1.7,-14.9 C 36,23.8 33.6,30.1 32,32"
           id="path34" /><path
           d="m 32.1,32.2 c 1.9,2.8 1.6,6.7 -0.9,9.2 -2.2,2.2 -5.3,2.7 -8,1.6 4.3,3.5 10.1,4 14.9,1.7 2.1,-8.6 -4,-11 -6,-12.5"
           id="path35" /></g><path
         d="m 116.42106,126.88011 c -0.0794,-0.0794 -0.15875,-0.13229 -0.23812,-0.21166 -0.71438,-0.29104 -1.53458,-0.15875 -2.11667,0.39687 -0.66146,0.68792 -0.74083,1.71979 -0.21166,2.48709 -0.50271,-0.39688 -2.16959,-1.03188 -1.61396,-3.3073 -0.10584,0.0529 -0.18521,0.10584 -0.29104,0.15875 -0.26459,0.15875 -0.50271,0.34396 -0.71438,0.55563 -0.0265,0.0265 -0.0265,0.0265 -0.0529,0.0529 -0.0794,0.0794 -0.13229,0.15875 -0.21166,0.23812 -0.3175,0.71438 -0.18521,1.56104 0.39687,2.14313 0.66146,0.66145 1.71979,0.74083 2.46063,0.21166 -0.39688,0.47625 -1.03188,2.16959 -3.30729,1.61396 0.0529,0.10583 0.10583,0.21167 0.15875,0.29104 0.15875,0.23813 0.34395,0.47625 0.55562,0.68792 0.0265,0.0265 0.0265,0.0265 0.0529,0.0529 0.0794,0.0794 0.15875,0.13229 0.23812,0.21166 0.71438,0.29104 1.53459,0.15875 2.11667,-0.42333 0.66146,-0.66146 0.74083,-1.69333 0.23812,-2.43417 0.52917,0.39688 2.14313,1.05834 1.5875,3.28084 0.10584,-0.0529 0.18521,-0.10584 0.29105,-0.15875 0.26458,-0.15875 0.5027,-0.34396 0.71437,-0.55563 0.0265,-0.0265 0.0265,-0.0265 0.0529,-0.0529 0.0794,-0.0794 0.15875,-0.15875 0.21166,-0.23812 0.29105,-0.68792 0.15875,-1.53458 -0.42333,-2.11667 -0.66146,-0.66146 -1.69333,-0.74083 -2.46062,-0.21166 0.39687,-0.50271 1.05833,-2.16959 3.33375,-1.61396 -0.0529,-0.0794 -0.0794,-0.18521 -0.1323,-0.26459 -0.15875,-0.26458 -0.34395,-0.5027 -0.58208,-0.74083 -0.0265,-0.0265 -0.0265,-0.0265 -0.0529,-0.0529"
         fill="#ffe6e8"
         id="path36"
         style="stroke-width:0.264583" /></g><g
       id="g45"
       transform="rotate(39.904788,176.2315,137.34277)"><path
         d="m 111.42044,131.98657 c 1.42875,1.42875 0.87312,4.31271 -0.0794,5.29167 -0.97895,0.97896 -0.84666,-1.48167 -2.27541,-2.91042 -1.42875,-1.42875 -3.88938,-1.32291 -2.91042,-2.27541 0.9525,-0.97896 3.83646,-1.53459 5.26521,-0.10584"
         fill="#f2b5b5"
         id="path37"
         style="stroke-width:0.264583" /><path
         d="m 106.12877,132.06595 c 0,0 1.61396,0.0794 1.87854,1.34937 0.15875,0.635 -0.1852,1.21709 0.29105,1.69334 0.47625,0.47625 1.05833,0.13229 1.66687,0.29104 1.27,0.29104 1.34938,1.87854 1.34938,1.87854 0.97895,-0.97896 1.53458,-3.86292 0.0794,-5.29167 -1.40229,-1.42875 -4.28625,-0.87312 -5.26521,0.0794"
         fill="#ffe6e8"
         id="path38"
         style="stroke-width:0.264583" /><path
         d="m 116.28877,127.11824 c -1.42875,-1.42875 -0.87312,-4.31271 0.0794,-5.29167 0.97896,-0.97895 0.84666,1.48167 2.27541,2.91042 1.42875,1.42875 3.88938,1.32292 2.91042,2.27542 -0.9525,0.97895 -3.83646,1.53458 -5.26521,0.10583"
         fill="#f2b5b5"
         id="path39"
         style="stroke-width:0.264583" /><path
         d="m 121.58044,127.03886 c 0,0 -1.61396,-0.0794 -1.87854,-1.34937 -0.13229,-0.60854 0.21166,-1.19063 -0.26459,-1.66688 -0.47625,-0.47625 -1.05833,-0.13229 -1.66687,-0.26458 -1.27,-0.29104 -1.34938,-1.87854 -1.34938,-1.87854 -0.97895,0.97896 -1.53458,3.86292 -0.0794,5.29167 1.37583,1.37583 4.25979,0.8202 5.23875,-0.1323"
         fill="#ffe6e8"
         id="path40"
         style="stroke-width:0.264583" /><g
         fill="#f0154f"
         id="g44"
         transform="matrix(0.26458333,0,0,0.26458333,105.38794,121.08574)"><path
           d="m 32,32 c 0,0 0,0 0,0 -2.8,2 -6.8,1.7 -9.3,-0.8 C 20.5,29 20,25.8 21.2,23.1 17.7,27.4 17.1,33.3 19.5,38.1 28,40.2 30.4,33.9 32,32"
           id="path41" /><path
           d="m 32,32 c 0,0 0,0 0,0 -2,-2.8 -1.7,-6.8 0.9,-9.3 2.2,-2.2 5.4,-2.7 8,-1.5 C 36.6,17.7 30.7,17.1 25.9,19.5 23.7,28 30.1,30.4 32,32"
           id="path42" /><path
           d="m 32,32 c 0,0 0,0 0,0 2.9,-1.9 6.8,-1.7 9.3,0.8 2.2,2.2 2.7,5.3 1.6,8 3.4,-4.3 4,-10.1 1.7,-14.9 C 36,23.8 33.6,30.1 32,32"
           id="path43" /><path
           d="m 32.1,32.2 c 1.9,2.8 1.6,6.7 -0.9,9.2 -2.2,2.2 -5.3,2.7 -8,1.6 4.3,3.5 10.1,4 14.9,1.7 2.1,-8.6 -4,-11 -6,-12.5"
           id="path44" /></g><path
         d="m 116.42106,126.88011 c -0.0794,-0.0794 -0.15875,-0.13229 -0.23812,-0.21166 -0.71438,-0.29104 -1.53458,-0.15875 -2.11667,0.39687 -0.66146,0.68792 -0.74083,1.71979 -0.21166,2.48709 -0.50271,-0.39688 -2.16959,-1.03188 -1.61396,-3.3073 -0.10584,0.0529 -0.18521,0.10584 -0.29104,0.15875 -0.26459,0.15875 -0.50271,0.34396 -0.71438,0.55563 -0.0265,0.0265 -0.0265,0.0265 -0.0529,0.0529 -0.0794,0.0794 -0.13229,0.15875 -0.21166,0.23812 -0.3175,0.71438 -0.18521,1.56104 0.39687,2.14313 0.66146,0.66145 1.71979,0.74083 2.46063,0.21166 -0.39688,0.47625 -1.03188,2.16959 -3.30729,1.61396 0.0529,0.10583 0.10583,0.21167 0.15875,0.29104 0.15875,0.23813 0.34395,0.47625 0.55562,0.68792 0.0265,0.0265 0.0265,0.0265 0.0529,0.0529 0.0794,0.0794 0.15875,0.13229 0.23812,0.21166 0.71438,0.29104 1.53459,0.15875 2.11667,-0.42333 0.66146,-0.66146 0.74083,-1.69333 0.23812,-2.43417 0.52917,0.39688 2.14313,1.05834 1.5875,3.28084 0.10584,-0.0529 0.18521,-0.10584 0.29105,-0.15875 0.26458,-0.15875 0.5027,-0.34396 0.71437,-0.55563 0.0265,-0.0265 0.0265,-0.0265 0.0529,-0.0529 0.0794,-0.0794 0.15875,-0.15875 0.21166,-0.23812 0.29105,-0.68792 0.15875,-1.53458 -0.42333,-2.11667 -0.66146,-0.66146 -1.69333,-0.74083 -2.46062,-0.21166 0.39687,-0.50271 1.05833,-2.16959 3.33375,-1.61396 -0.0529,-0.0794 -0.0794,-0.18521 -0.1323,-0.26459 -0.15875,-0.26458 -0.34395,-0.5027 -0.58208,-0.74083 -0.0265,-0.0265 -0.0265,-0.0265 -0.0529,-0.0529"
         fill="#ffe6e8"
         id="path45"
         style="stroke-width:0.264583" /></g><text
       xml:space="preserve"
       style="font-weight:bold;font-size:5.29167px;font-family:Ubuntu;-inkscape-font-specification:'Ubuntu Bold';text-align:center;text-anchor:middle;display:inline;fill:#000000;stroke-width:0.79375;stroke-linecap:round;stroke-linejoin:round"
       x="145.86942"
       y="28.03438"
       id="text133-9"><tspan
         sodipodi:role="line"
         style="text-align:center;text-anchor:middle;fill:#000000;stroke-width:0.79375"
         x="145.86942"
         y="28.03438"
         id="tspan132-3" /><tspan
         sodipodi:role="line"
         style="text-align:center;text-anchor:middle;fill:#000000;stroke-width:0.79375"
         x="145.86942"
         y="34.648964"
         id="tspan133-6">Caramelos</tspan></text></g></svg>
