<?xml version="1.0" encoding="UTF-8" standalone="no"?>
<!-- Created with Inkscape (http://www.inkscape.org/) -->

<svg
   width="177.77263mm"
   height="134.75945mm"
   viewBox="0 0 177.77264 134.75944"
   version="1.1"
   id="svg1"
   xml:space="preserve"
   inkscape:version="1.3.2 (1:1.3.2+202311252150+091e20ef0f)"
   sodipodi:docname="Intro-08.svg"
   xmlns:inkscape="http://www.inkscape.org/namespaces/inkscape"
   xmlns:sodipodi="http://sodipodi.sourceforge.net/DTD/sodipodi-0.dtd"
   xmlns="http://www.w3.org/2000/svg"
   xmlns:svg="http://www.w3.org/2000/svg"><sodipodi:namedview
     id="namedview1"
     pagecolor="#ffffff"
     bordercolor="#000000"
     borderopacity="0.25"
     inkscape:showpageshadow="2"
     inkscape:pageopacity="0.0"
     inkscape:pagecheckerboard="0"
     inkscape:deskcolor="#d1d1d1"
     inkscape:document-units="mm"
     inkscape:zoom="0.24598695"
     inkscape:cx="995.98781"
     inkscape:cy="652.47365"
     inkscape:window-width="1864"
     inkscape:window-height="1016"
     inkscape:window-x="56"
     inkscape:window-y="27"
     inkscape:window-maximized="1"
     inkscape:current-layer="layer3"
     showgrid="false" /><defs
     id="defs1" /><g
     inkscape:groupmode="layer"
     id="layer3"
     inkscape:label="back"
     transform="translate(-139.946,-86.882317)"><rect
       style="fill:#ffffff;stroke:none;stroke-width:0.793748;stroke-linecap:round;stroke-linejoin:round;stroke-dasharray:none"
       id="rect45"
       width="177.77263"
       height="134.75945"
       x="139.946"
       y="86.882317" /></g><g
     inkscape:label="Capa 1"
     inkscape:groupmode="layer"
     id="layer1"
     transform="translate(-139.946,-86.882317)"
     style="display:inline"><text
       xml:space="preserve"
       style="font-style:normal;font-variant:normal;font-weight:normal;font-stretch:normal;font-size:5.29167px;font-family:Ubuntu;-inkscape-font-specification:Ubuntu;text-align:center;text-anchor:middle;fill:#ffffff;stroke:none;stroke-width:0.79375;stroke-linecap:round;stroke-linejoin:round"
       x="175.16397"
       y="85.469887"
       id="text86"><tspan
         sodipodi:role="line"
         id="tspan86"
         style="stroke-width:0.79375"
         x="175.16397"
         y="85.469887" /></text><rect
       style="fill:#344234;fill-opacity:1;stroke:none;stroke-width:0.793747;stroke-linecap:round;stroke-linejoin:round;stroke-dasharray:none"
       id="rect95"
       width="151.5663"
       height="114.84503"
       x="153.13577"
       y="97.232719" /><path
       style="fill:#c6bcbe;stroke:none;stroke-width:0.793747;stroke-linecap:round;stroke-linejoin:round;stroke-dasharray:none"
       d="m 210.09162,136.70849 -0.68513,-0.0597 -0.71256,2.71271 -0.74166,4.03547 -0.34109,1.83029 -0.0261,1.88852 1.51435,0.27404 0.0294,-2.81243 0.29548,-2.50781 0.45142,-2.21207 0.5699,-1.92536 0.11442,-1.11783 z"
       id="path89" /><path
       style="fill:#c6bcbe;stroke:none;stroke-width:0.793747;stroke-linecap:round;stroke-linejoin:round;stroke-dasharray:none"
       d="m 214.48828,149.87548 -1.71508,-0.51737 -0.19706,-2.10275 0.0859,-2.85377 0.35255,-2.69928 0.22686,-1.05754 0.38188,-1.01709 0.32777,-2.06171 0.22014,-0.71136 0.665,0.76293 -0.28965,2.73079 -0.12247,1.16546 -0.0295,1.82426 -0.0291,2.12551 0.001,1.79968 0.13852,1.50902 z"
       id="path90" /><path
       style="fill:#c6bcbe;stroke:none;stroke-width:0.793747;stroke-linecap:round;stroke-linejoin:round;stroke-dasharray:none"
       d="m 218.28579,137.80776 -0.30074,1.92007 -0.40068,1.54579 -0.2756,1.31428 -0.27054,1.25382 -0.0656,1.16266 -0.0303,1.01028 0.0425,1.04976 0.044,1.27572 1.33226,1.01727 0.25917,-0.52543 -0.57578,-1.51957 0.0475,-2.50136 0.14261,-2.32352 0.30756,-1.80761 0.35592,-1.93758 0.4387,-1.23768 z"
       id="path91" /><path
       style="fill:#c6bcbe;stroke:none;stroke-width:0.793747;stroke-linecap:round;stroke-linejoin:round;stroke-dasharray:none"
       d="m 221.45856,138.04561 -0.18335,3.48807 -0.3323,2.91844 0.0129,1.87569 0.1377,1.46461 0.36765,0.81618 0.86144,0.38878 0.4148,-0.43022 -0.25781,-1.34881 0.0358,-1.93925 0.0964,-2.411 v -2.38529 l -0.0915,-1.57317 -0.15535,-0.99303 z"
       id="path92" /><path
       style="fill:#c6bcbe;stroke:none;stroke-width:0.793747;stroke-linecap:round;stroke-linejoin:round;stroke-dasharray:none"
       d="m 234.64181,148.92282 -1.70641,-0.13256 0.0382,-1.52386 0.1387,-1.62337 0.50437,-1.90953 0.75826,-2.40177 0.83669,-1.97019 0.3318,-0.95522 0.51566,-1.24953 0.51337,-0.27019 0.38932,0.29088 0.14973,0.95161 -0.35652,1.47197 -0.55748,2.31907 -0.39487,1.37132 -0.50069,0.89388 -0.23184,1.11595 -0.11332,1.27513 -0.1653,1.15203 z"
       id="path93" /><path
       style="fill:#c6bcbe;stroke:none;stroke-width:0.793747;stroke-linecap:round;stroke-linejoin:round;stroke-dasharray:none"
       d="m 239.06526,137.32803 -0.17426,1.75327 -0.39268,1.78184 -1.365,5.08538 -0.22769,1.40275 -0.0945,1.51012 0.15574,0.918 0.19293,0.32345 1.45693,0.0992 0.39727,-0.70416 -0.31022,-0.67296 -0.1426,-1.38772 0.23709,-1.64939 0.56392,-2.41047 0.23601,-1.83144 0.32965,-2.14115 -0.0754,-1.55764 -0.14874,-0.55225 z"
       id="path94" /><path
       style="fill:#c6bcbe;stroke:none;stroke-width:0.793747;stroke-linecap:round;stroke-linejoin:round;stroke-dasharray:none"
       d="m 243.29826,137.86218 -0.39175,2.64046 -0.21951,1.66015 -0.40621,2.01466 -0.39544,1.4692 0.0436,1.6423 -0.0261,1.39998 1.3487,-0.0612 0.001,-1.32996 0.17915,-2.55307 0.6552,-2.34978 0.23426,-2.63366 0.0676,-1.45758 -0.54432,-0.69892 z"
       id="path95" /><path
       style="fill:#c6bcbe;fill-opacity:1;stroke:none;stroke-width:0.793747;stroke-linecap:round;stroke-linejoin:round;stroke-dasharray:none"
       d="m 224.58722,138.62076 -0.0951,1.5889 0.0475,1.36703 0.2341,1.44865 0.26116,1.56701 0.37844,1.38018 0.37269,1.30676 0.85853,1.24454 1.32303,0.64664 0.64983,-0.27465 -0.97236,-1.1357 -0.60039,-1.78561 -0.56569,-2.48052 -0.4123,-1.71319 v -1.9336 l -0.0475,-1.14586 -0.24664,-0.74859 -0.89405,-0.0942 z"
       id="path96" /><path
       style="fill:#c6bcbe;fill-opacity:1;stroke:none;stroke-width:0.793747;stroke-linecap:round;stroke-linejoin:round;stroke-dasharray:none"
       d="m 207.76475,157.97204 0.0389,4.36463 -0.0122,1.58194 0.12295,0.84982 0.41755,1.43099 0.19427,1.33069 0.18376,0.70025 0.54106,0.22102 0.55818,-0.18845 0.2481,-0.52388 -0.2379,-1.61563 -0.17237,-1.37496 -0.22455,-0.90892 -0.13388,-2.35809 -0.11942,-1.42384 -0.14502,-1.26514 -0.32792,-0.74121 -0.34538,-0.26042 z"
       id="path97" /><path
       style="fill:#c6bcbe;fill-opacity:1;stroke:none;stroke-width:0.793747;stroke-linecap:round;stroke-linejoin:round;stroke-dasharray:none"
       d="m 212.40727,156.92017 0.10041,0.9274 0.054,0.98328 -0.22305,0.99391 -0.12354,1.78688 -0.0672,1.4984 0.0645,1.82598 0.0752,1.44079 0.1276,1.24776 0.45869,0.7127 0.69364,0.36315 0.60083,-0.12596 0.24544,-1.0801 -0.0672,-1.71114 -0.24621,-1.63993 -0.28795,-1.63384 0.0504,-1.65201 0.0336,-1.63651 0.0672,-1.15099 -0.19258,-0.96844 -0.24466,-0.56589 -0.36891,-0.13973 -0.4934,0.11852 z"
       id="path98" /><path
       style="fill:#c6bcbe;fill-opacity:1;stroke:none;stroke-width:0.793747;stroke-linecap:round;stroke-linejoin:round;stroke-dasharray:none"
       d="m 215.69437,157.79509 -0.16293,1.58041 0.0707,1.96253 0.025,1.59498 0.0336,1.4754 0.13446,1.44916 0.18823,1.16953 0.22656,0.67206 0.0672,1.05948 0.39649,0.53446 0.56826,0.0901 0.7016,-0.017 0.006,-0.80602 -0.14629,-1.89145 -0.46623,-3.44791 -0.097,-2.21597 -0.28912,-1.80341 -0.40103,-1.00266 -0.32352,-0.45842 z"
       id="path99" /><path
       style="fill:#c6bcbe;fill-opacity:1;stroke:none;stroke-width:0.793747;stroke-linecap:round;stroke-linejoin:round;stroke-dasharray:none"
       d="m 219.02823,158.70082 0.0336,1.36044 0.0705,1.42107 0.0391,1.98726 0.10084,1.70974 0.11966,1.32672 0.23224,1.14108 0.12896,1.38422 0.31175,0.7842 1.30097,0.73061 0.87717,0.15803 0.1079,-0.20355 -0.27276,-0.99173 -0.15438,-1.37129 -0.41966,-1.97669 -0.41411,-1.53496 -0.31701,-1.6215 -0.35388,-1.70788 -0.32468,-1.50612 -0.39759,-1.27663 -0.3627,-0.28554 -0.36419,-0.084 z"
       id="path100" /><path
       id="rect100"
       style="fill:#ffb380;fill-opacity:1;stroke:none;stroke-width:0.793748;stroke-linecap:round;stroke-linejoin:round;stroke-dasharray:none"
       d="M 147.78244,93.49327 V 215.31529 H 310.61962 V 93.49327 Z m 9.99381,8.5561 H 299.70976 V 208.23206 H 157.77625 Z" /><g
       id="g117"
       transform="translate(25.796412,-62.541355)"><path
         style="fill:#c6bcbe;fill-opacity:1;stroke:#c6bcbe;stroke-width:0.793745;stroke-linecap:round;stroke-linejoin:round;stroke-dasharray:none"
         d="m 183.78727,172.94647 -0.17697,0.62374 0.28844,0.71084 1.58866,6.97459 0.74403,2.95675 0.23984,0.45367 0.22484,0.0157 0.22895,-0.55182 0.40625,-1.38664 0.56738,-1.58336 0.44553,-1.19443 0.70784,-1.60531 0.6287,-1.29359 0.6447,-1.31071 0.56968,-1.03863 0.4595,-0.89769 0.0772,-0.43072 0.049,-0.69921 -0.0316,-0.31991 -0.12218,-0.0634 -0.11289,0.10668 -0.0593,0.29255 -0.0456,0.54873 -0.62112,1.14419 -0.35809,0.63676 -0.37033,0.68858 -0.37583,0.76271 -0.35454,0.72261 -0.31205,0.70549 -0.28221,0.63492 -0.25751,0.61678 -0.28527,0.76625 -0.2848,0.77588 -0.29001,0.70045 -0.2584,0.8835 -0.23328,0.64759 -0.13777,0.46682 -0.12229,0.2535 -0.0972,-0.0281 -0.364,-1.32352 -0.46428,-2.03442 -0.43056,-1.99622 -0.63505,-2.80276 -0.40383,-1.57319 -0.10368,-0.46069 -0.12012,-0.25877 z"
         id="path101" /><path
         id="path102"
         style="fill:#c6bcbe;fill-opacity:1;stroke:#c6bcbe;stroke-width:0.793745;stroke-linecap:round;stroke-linejoin:round;stroke-dasharray:none"
         d="m 197.00171,176.2708 -0.55049,0.0654 -0.63796,0.12414 -0.96976,0.34104 -0.42506,0.16003 -0.70458,0.29246 -0.59762,0.42776 -0.5985,0.35986 -0.56644,0.5322 -0.34198,0.45237 -0.30805,0.56873 -0.14642,0.53972 -0.0113,0.45225 0.0267,0.55629 0.049,0.43957 0.15937,0.40869 0.40545,0.41521 0.53276,0.37493 0.59084,0.11384 0.62614,0.0703 0.71576,0.0815 0.46779,0.005 h 0.64601 l 0.5075,-0.0197 0.6577,-0.17233 0.78073,-0.29346 0.48464,-0.21451 0.56695,-0.35748 0.58769,-0.44596 0.41688,-0.46807 0.39113,-0.61541 0.15748,-0.57299 0.14416,-0.68307 -0.0723,-0.61442 -0.21492,-0.50709 -0.36561,-0.42237 -0.39527,-0.43115 -0.50725,-0.34569 -0.10181,-0.20371 -0.22647,-0.2248 -0.37429,-0.13644 z m -0.78941,1.05737 0.14667,0.2012 0.12367,0.0792 0.27625,0.0539 0.50864,-0.0585 0.48488,-0.0163 0.46326,0.17623 0.38484,0.23309 0.78941,0.817 0.21064,0.333 0.0423,0.19857 -0.0309,0.28769 -0.11424,0.40919 -0.18023,0.30463 -0.34324,0.3925 -0.8256,0.68395 -0.54911,0.34819 -0.63243,0.24162 -0.47483,0.17974 -0.62388,0.0963 -0.52649,0.0823 -0.76415,0.0313 -0.79581,-0.0803 -0.96097,-0.16129 -0.7331,-0.39802 -0.38924,-0.29986 -0.0949,-0.25417 -0.0842,-0.15778 -0.0816,-0.35836 0.0567,-0.36124 0.17809,-0.43065 0.39741,-0.52517 0.51127,-0.48425 0.49821,-0.36639 0.50574,-0.2735 0.45334,-0.18577 0.93193,-0.39563 0.61773,-0.21452 0.43196,-0.1038 z" /><path
         style="fill:#c6bcbe;fill-opacity:1;stroke:#c6bcbe;stroke-width:0.793745;stroke-linecap:round;stroke-linejoin:round;stroke-dasharray:none"
         d="m 204.02925,183.21798 0.02,0.18217 0.10335,0.13841 0.10498,0.0505 0.0409,-0.0977 0.0482,-0.27569 -0.0344,-0.31441 -0.0866,-1.65192 -0.0632,-1.2915 0.008,-0.5806 0.0456,-0.61339 0.0321,-0.55608 0.0737,-0.66648 0.0918,-0.88082 0.15247,-1.16009 0.0511,-0.4206 1.03037,0.0152 1.01635,-0.034 0.77931,0.007 0.74314,0.0516 0.54875,0.0375 0.38552,0.008 0.17484,-0.088 0.0638,-0.17477 -0.0478,-0.24426 -0.13439,-0.12539 -0.27407,-0.0958 -0.35994,-0.0808 -0.28632,-0.0381 -0.41706,-0.0373 -0.35173,-0.0161 -2.72959,-0.0949 -0.009,-0.22706 -0.0191,-0.20743 -0.0762,-0.11912 -0.15517,0.035 -0.0138,0.13165 -0.0237,0.23495 -0.01,0.13425 -0.92906,0.008 -0.92881,-0.0327 -0.48781,-0.0163 -0.43814,-0.0483 -0.32244,-0.03 -0.15025,-0.0163 -0.20127,-0.0654 -0.0488,0.098 -0.0457,0.32396 v 0.29451 l -0.008,0.29113 0.22534,0.13271 0.80275,0.0155 0.85086,0.0209 0.99626,-0.0245 0.39516,-0.0211 0.14774,0.001 -0.089,1.02396 -0.0833,0.8481 -0.097,0.83437 -0.0406,0.61142 -0.0405,0.44521 -0.0277,0.47164 -0.009,0.65743 -0.0163,0.56967 0.0276,0.63417 v 0.44884 0.5184 l 0.0636,0.44935 0.0222,0.30352 z"
         id="path104" /><path
         id="path105"
         style="fill:#c6bcbe;fill-opacity:1;stroke:#c6bcbe;stroke-width:0.793745;stroke-linecap:round;stroke-linejoin:round;stroke-dasharray:none"
         d="m 211.19788,177.78267 -0.40708,0.006 -0.36272,0.12853 -0.48049,0.20146 -0.47419,0.37467 -0.5838,0.54023 -0.36209,0.63676 -0.1023,0.67717 0.0172,0.73353 0.10809,0.57776 0.22082,0.41886 0.37064,0.47295 0.66121,0.31756 0.6215,0.22468 0.49406,0.0616 0.54922,-0.0262 0.58242,-0.15678 0.86004,-0.32547 0.7649,-0.44671 0.35317,-0.44974 0.2628,-0.57073 0.14566,-0.50483 0.11387,-0.5863 0.009,-0.58855 -0.0491,-0.45689 -0.15748,-0.36539 -0.25802,-0.30224 -0.39138,-0.22029 -0.45157,-0.0905 -0.67115,-0.14397 -0.44453,-0.0626 -0.50814,-0.0113 z m -0.46326,1.04155 0.46628,0.0326 0.35229,0.15602 0.10921,0.11573 0.14567,0.20647 0.12367,-0.054 0.0936,-0.23209 0.0205,-0.12739 0.56658,0.12878 0.56443,0.11836 0.36737,0.15263 0.38547,0.28882 0.17407,0.38572 0.0431,0.29321 -0.0573,0.35396 -0.29184,0.40869 -0.42682,0.39387 -0.41613,0.36526 -0.47696,0.22907 -0.4776,0.15979 -0.42518,0.12363 -0.58719,0.012 -0.39476,-0.0113 -0.38308,-0.10694 -0.62401,-0.23785 -0.3871,-0.33037 -0.26344,-0.36777 -0.13284,-0.28769 -0.0425,-0.39049 0.0217,-0.36325 0.15975,-0.393 0.31646,-0.34919 0.25778,-0.25794 0.34059,-0.17748 0.45322,-0.18966 z" /><path
         style="fill:#c6bcbe;fill-opacity:1;stroke:#c6bcbe;stroke-width:0.793745;stroke-linecap:round;stroke-linejoin:round;stroke-dasharray:none"
         d="m 221.93301,177.50166 -0.0125,0.36482 -0.0625,0.23882 -0.20323,0.0231 -0.2308,-0.0327 -0.21718,-0.10698 -0.48186,0.037 -1.07768,0.15625 -0.44574,0.0915 -0.70925,0.23844 -0.26424,0.17623 -0.21759,0.17137 -0.006,0.0951 0.035,0.0991 0.12158,0.19667 0.29621,0.28394 0.52145,0.48405 0.89668,0.6668 0.78769,0.60327 0.64479,0.52076 0.58793,0.57119 0.22543,0.37679 0.0747,0.5349 -0.0101,0.43353 -0.0388,0.27489 -0.10246,0.31755 -0.21398,0.28744 -0.27734,0.22095 -0.51976,0.21562 -0.63904,0.13062 -0.69411,0.0723 -0.85096,0.0109 -1.80061,0.0319 -1.40162,-0.0771 -0.592,5e-4 -0.27489,-0.0115 -0.13146,-0.25381 -0.0461,-0.39153 0.25693,-0.21383 0.35906,-0.11699 1.24635,0.0577 0.79229,0.0115 0.9939,0.0106 0.78014,0.0121 0.72553,-0.0386 0.57577,-0.0794 0.57812,-0.12336 0.36894,-0.1252 0.33485,-0.2189 0.11615,-0.18666 -0.12995,-0.29938 -0.25129,-0.37825 -0.35039,-0.34005 -0.4957,-0.46252 -1.36994,-1.06235 -0.95328,-0.7717 -0.33518,-0.33484 -0.18996,-0.31722 -0.0406,-0.29661 0.01,-0.37978 0.0518,-0.32747 0.24514,-0.37236 0.36025,-0.23979 0.52556,-0.15758 0.53417,-0.12532 0.69631,-0.11175 0.61508,-0.0912 0.48173,-0.079 0.42003,0.0119 0.17876,0.008 z"
         id="path107" /></g><g
       id="g118"
       transform="matrix(0.94610098,0,0,0.94470188,13.638877,-43.977762)"
       style="stroke-width:1.05775"><path
         style="fill:#c6bcbe;fill-opacity:1;stroke:#c6bcbe;stroke-width:0.839585;stroke-linecap:round;stroke-linejoin:round;stroke-dasharray:none"
         d="m 164.78726,201.29325 0.014,-0.82753 0.12215,-0.51286 0.34535,-1.02151 0.0979,-0.7992 0.17824,-0.94028 0.21198,-1.12194 0.13511,-0.70028 0.049,-0.21539 -0.16223,-0.0324 0.0466,-0.58808 0.0935,-0.36547 0.0964,-0.22147 0.15487,-0.001 0.11322,-0.93442 0.0574,-0.66754 0.12192,-0.9127 0.15133,-0.48549 0.14351,-0.36365 0.14404,0.12073 -0.0648,0.82205 -0.11425,0.87109 -0.0958,0.71949 -0.0216,0.27596 -0.0907,0.50703 1.22791,-0.13887 1.00968,-0.12756 0.87919,-0.1226 0.92413,-0.25645 0.36455,-0.19637 0.26173,-0.20111 -0.10917,-0.3811 -0.30202,-0.40108 -0.31847,-0.33344 -0.49813,-0.40849 -0.54653,-0.37666 -0.4566,-0.23392 -0.64957,-0.22874 -0.52871,-0.14352 -0.70605,-0.11474 -0.68588,-0.0163 -0.58112,0.0162 -0.56593,0.10831 -0.39766,0.12404 -0.39012,0.25786 -0.14204,0.15259 -0.14058,0.30786 0.004,0.32131 -0.10087,0.2315 -0.13627,0.0728 -0.2269,-0.24641 0.0682,-0.73857 0.30881,-0.74406 0.33076,-0.39522 0.46773,-0.18898 0.53685,-0.1216 0.76804,-0.0634 0.54011,0.049 0.62216,0.0312 0.58449,0.0662 0.79808,0.21048 0.67709,0.26533 0.61282,0.3675 0.60665,0.45152 0.59129,0.49794 0.28045,0.41462 0.1061,0.49972 0.0163,0.39424 -0.0418,0.52809 -0.073,0.42337 -0.27342,0.42647 -0.22768,0.27598 -0.81727,0.2393 -0.87762,0.17647 -1.04998,0.1287 -1.14197,0.13194 -0.38901,0.0611 -0.49842,0.10611 -0.43593,2.46173 -0.27139,1.8805 -0.27437,0.8891 -0.13598,0.59115 z"
         id="path108" /><path
         id="path109"
         style="fill:#c6bcbe;fill-opacity:1;stroke:#c6bcbe;stroke-width:0.839585;stroke-linecap:round;stroke-linejoin:round;stroke-dasharray:none"
         d="m 174.96146,195.64443 -0.64462,0.0304 -0.75183,0.15877 -0.53817,0.14573 -0.79419,0.39953 -0.73436,0.52944 -0.4326,0.56759 -0.33004,0.95946 -0.28643,-0.4904 -0.30063,0.0783 -0.10758,0.36513 -0.0665,0.56621 0.19179,0.48086 0.48212,0.12037 0.19104,0.47384 0.36975,0.41547 0.4913,0.36011 0.97642,0.32961 1.06541,0.12426 1.45628,-0.10167 0.71726,-0.40944 0.25174,-0.28041 -0.56217,-0.0382 -0.8334,-0.10317 -0.97668,-0.17409 -0.71035,-0.21326 -0.75887,-0.22016 -0.63595,-0.28455 1.02117,-0.32798 1.15564,-0.32622 0.77559,-0.30175 0.54319,-0.35974 0.47207,-0.38559 0.19028,-0.47458 0.15597,-0.65659 -0.13649,-0.51111 -0.23641,-0.27275 z m -1.07471,1.1859 0.64953,0.087 0.67743,0.16368 -0.57148,0.28129 -0.78941,0.3748 -0.8378,0.33262 -0.99389,0.19166 -0.67957,0.10694 -0.23426,0.003 0.8119,-0.71633 0.67403,-0.43366 0.6719,-0.29836 z" /><path
         style="fill:#c6bcbe;fill-opacity:1;stroke:#c6bcbe;stroke-width:0.839585;stroke-linecap:round;stroke-linejoin:round;stroke-dasharray:none"
         d="m 179.39971,202.44932 -0.0115,0.41244 -0.0755,0.41329 -0.14351,0.56081 -0.0537,0.22603 -0.20917,-0.0105 v -0.45003 l 0.0545,-0.78901 0.13365,-1.07225 0.10289,-0.66261 0.1277,-0.86542 0.17005,-0.88498 0.14848,-0.72625 0.10535,-0.67786 0.19203,-0.614 0.0642,-0.37911 -0.87218,0.0465 -0.29698,-0.0472 0.0114,-0.2937 0.0296,-0.38309 0.0758,-0.34248 0.085,-0.0825 1.24354,-0.0665 0.11334,-0.70741 0.0994,-0.34553 0.0652,-0.15438 0.1052,0.0167 0.091,0.13926 -0.0446,0.33556 -0.0788,0.42414 -0.045,0.28672 0.47141,-0.0106 0.63511,-0.0691 0.58226,-0.0756 0.5597,-0.11156 0.6012,-0.15024 0.57793,-0.15097 0.49948,-0.18605 0.28835,-0.17723 0.20916,-0.18831 0.0291,-0.15322 -0.11646,-0.15226 -0.40375,-0.38143 -0.33588,-0.24572 -0.35023,-0.22228 -0.57611,-0.26975 -0.39112,-0.1022 -0.51417,-0.10291 -0.51861,-0.10196 -0.47337,-0.0498 -0.57839,-0.0114 -0.42519,0.0369 -0.44629,0.0921 -0.34672,0.15792 -0.47472,0.27696 -0.31021,0.31619 -0.23462,0.30082 -0.13823,0.34926 -0.0731,0.30333 0.0346,0.1731 0.0852,0.32814 -0.0179,0.37788 -0.09,0.26374 -0.10801,0.24545 -0.0954,0.0651 -0.15377,-0.21735 -0.0748,-0.699 0.0693,-0.58433 0.23094,-0.9612 0.23512,-0.58621 0.36038,-0.40487 0.41468,-0.31188 0.5091,-0.24592 0.57529,-0.0899 0.62829,-0.0682 0.43753,-0.0511 0.58807,0.0115 0.57305,0.045 0.55405,0.17706 0.74837,0.2493 0.51353,0.25501 0.38725,0.25431 0.4231,0.31139 0.24798,0.36415 0.13929,0.21013 0.008,0.38079 -0.0326,0.60867 -0.12002,0.4263 -0.15042,0.36525 -0.32481,0.32945 -0.38403,0.24647 -0.5668,0.25215 -0.59523,0.19301 -0.68392,0.13004 -0.69536,0.0937 -0.83812,0.11411 -0.77341,0.0477 -0.0849,0.0651 -0.0992,0.34577 -0.16571,0.95683 -0.1242,0.47708 -0.0934,0.54281 -0.0855,0.52532 -0.13004,0.76398 -0.0958,0.60952 -0.0683,0.58935 -0.0347,0.44819 z"
         id="path111" /><path
         style="fill:#c6bcbe;fill-opacity:1;stroke:#c6bcbe;stroke-width:0.839585;stroke-linecap:round;stroke-linejoin:round;stroke-dasharray:none"
         d="m 189.74687,203.93251 0.87327,-0.0239 0.94552,-0.0977 0.68503,-0.12333 0.50361,-0.1815 0.18444,-0.17549 -0.0155,-0.29885 -0.43446,-0.14615 -0.50237,-0.0479 -0.84103,-0.0615 -0.66522,-0.0259 -0.80534,-0.0659 -0.95438,-0.14966 -0.68686,-0.1283 -0.47037,-0.0653 -0.7827,-0.21016 -0.74882,-0.2685 -0.52731,-0.26677 -0.48113,-0.3024 -0.3345,-0.28739 -0.23602,-0.3093 -0.16927,-0.3653 -0.0469,-0.37945 0.0447,-0.30112 0.29077,-0.67055 0.46305,-0.58357 0.62905,-0.5603 0.9099,-0.5644 0.86542,-0.41326 0.61941,-0.18768 0.96397,-0.0651 0.84474,-0.0117 0.73137,0.0343 0.55449,0.13765 0.45592,0.11585 0.26571,0.12895 0.11835,0.0817 -0.0993,0.17143 -0.38662,0.19002 -0.55365,0.18753 -0.76787,0.22663 -0.93624,0.22698 -0.96862,0.15427 -0.85924,0.19405 -0.71539,0.0805 -0.35176,0.049 -0.39908,0.023 -0.26741,-0.0118 -0.10705,-0.0941 -0.10058,-0.12789 -0.14315,0.0327 -0.0322,0.13822 -0.0664,0.33965 -0.0163,0.39601 0.19391,0.21855 0.53078,0.089 0.87328,-0.0325 1.22211,-0.16866 0.93584,-0.17139 0.75529,-0.14488 0.87755,-0.24862 0.91102,-0.29551 0.55291,-0.33104 0.34307,-0.2741 0.20874,-0.42912 0.19651,-0.46545 0.0163,-0.33146 -0.0614,-0.42592 -0.22646,-0.36669 -0.53682,-0.27717 -0.83012,-0.10615 -0.72666,-0.065 h -0.59991 l -0.7978,0.0646 -0.57317,0.086 -0.86704,0.29602 -0.70908,0.29593 -0.65325,0.3103 -0.48867,0.30225 -0.61311,0.59766 -0.37548,0.45329 -0.29582,0.4139 -0.16142,0.36732 -0.29543,0.62951 -0.12317,0.67622 v 0.51598 l -2e-5,0.54585 0.0937,0.49468 0.2622,0.58189 0.36933,0.41388 0.54438,0.3348 0.80808,0.4336 0.69504,0.23396 0.75944,0.14518 0.84374,0.15427 0.81801,0.0728 z"
         id="path112" /></g><g
       id="g119"
       transform="matrix(0.78224637,0,0,0.77550406,43.526158,-5.8982237)"
       style="stroke-width:1.28391"><path
         style="fill:#c6bcbe;fill-opacity:1;stroke:#c6bcbe;stroke-width:1.0191;stroke-linecap:round;stroke-linejoin:round;stroke-dasharray:none"
         d="m 159.55609,221.29986 0.30896,-0.78511 0.36384,-1.44758 0.57282,-2.26632 0.40701,-1.62457 0.44374,0.0873 0.97548,0.0964 0.68945,0.0817 h 1.0053 l 0.9338,-0.065 1.0941,-0.15453 0.86422,-0.27999 0.81022,-0.32607 0.38482,-0.23577 0.0328,-0.48821 -0.47835,0.063 -0.79629,0.0981 -0.70328,0.0181 -0.83381,0.0165 -0.87411,-0.0329 -0.82084,-0.0331 -0.79751,-0.0685 -0.911,-0.12863 -0.67257,-0.22474 0.24104,-0.94297 0.26759,-1.0119 0.10656,-0.44859 0.82423,0.026 1.86479,-0.0413 1.90284,-0.0274 0.88074,0.0112 0.62439,0.10603 0.41982,0.11107 0.21081,-0.0429 0.1286,-0.093 0.17446,-0.56316 0.0643,-0.47047 -0.12167,-0.34099 -0.3871,-0.0328 -0.92886,-0.10759 -1.20255,-0.0655 -1.08464,-0.0165 -1.39733,0.0497 -0.76262,0.0792 h -0.43493 l -0.5857,-0.0104 0.0949,-0.61183 -0.0378,-0.35615 -0.2294,-0.0237 -0.14329,0.60897 -0.0275,0.18372 -0.0277,0.23511 -1.70545,0.0239 -0.36683,-0.008 -0.30907,0.0279 -0.18078,0.15992 -0.13134,0.6553 0.0161,0.34304 0.10524,0.26763 0.60016,-0.0169 h 0.93707 l 0.8621,5e-4 -0.17842,0.7133 -0.17117,0.63581 -0.0806,0.48755 -0.14267,0.43737 -0.40527,-0.13028 -0.15003,0.0401 -0.10462,0.37094 -0.0962,0.29688 -0.0474,0.36694 v 0.34799 l 0.10161,0.10659 0.21919,0.0932 0.0611,0.0762 -0.0469,0.3608 -0.30002,1.20845 -0.29858,0.98667 -0.41741,1.61574 -0.16977,0.81074 -0.0812,0.39586 z"
         id="path113" /><path
         style="fill:#c6bcbe;fill-opacity:1;stroke:#c6bcbe;stroke-width:1.0191;stroke-linecap:round;stroke-linejoin:round;stroke-dasharray:none"
         d="m 171.83372,223.2393 0.1899,-0.65683 0.16186,-0.56807 0.0327,-0.66391 0.0412,-0.7024 -0.0478,-1.1563 -0.0978,-1.18873 -0.048,-1.11652 v -0.29112 l 0.35397,-0.51916 0.74164,-0.59823 0.72618,-0.39909 0.73886,-0.42212 0.76557,-0.3097 0.85799,-0.32369 0.68585,-0.34239 0.43995,-0.32656 0.11841,-0.27278 -0.0216,-0.26071 -0.35831,-0.12517 -0.58962,0.0291 -0.80076,0.23552 -0.89405,0.25658 -0.85013,0.38431 -0.84035,0.49828 -0.77739,0.77795 -0.38676,0.45192 -0.23156,0.42677 -0.28733,0.51889 -0.19859,0.56968 -0.20816,0.87495 -0.1097,0.60532 -0.0817,0.6486 0.0491,0.60299 0.0488,0.8329 0.15696,0.68745 0.16094,0.73333 0.18856,0.52723 0.19673,0.59506 z"
         id="path114" /><path
         id="path115"
         style="fill:#c6bcbe;fill-opacity:1;stroke:#c6bcbe;stroke-width:1.0191;stroke-linecap:round;stroke-linejoin:round;stroke-dasharray:none"
         d="m 183.86353,214.11032 -0.1287,0.0276 -0.0933,0.39702 -0.45384,-0.15565 -0.75862,-0.0914 -0.50549,-0.0326 -0.65241,0.059 -0.88242,0.26748 -0.57009,0.21087 -0.55049,0.36238 -0.42129,0.40818 -0.37993,0.51337 -0.20989,0.46982 -0.17633,0.6483 -0.0902,0.60701 -0.0475,0.64478 0.0808,0.61931 0.2261,0.47107 0.38735,0.49241 0.54596,0.32735 0.68774,0.32723 0.83792,0.13794 0.66775,-0.16204 0.82259,-0.38484 0.46226,-0.38835 0.5114,-0.59621 0.38484,-0.56007 0.37566,-0.68093 0.10947,0.6626 0.27348,1.19519 0.35631,0.94214 0.28618,0.60626 0.30139,0.49077 0.37591,0.40354 0.30478,0.21188 0.33859,0.16267 0.36146,0.12866 0.29297,-0.0432 0.41148,-0.45262 -0.20889,-0.11836 -0.47017,-0.34744 -0.3602,-0.34806 -0.33319,-0.37292 -0.35002,-0.49178 -0.29071,-0.58981 -0.30163,-0.65897 -0.28354,-0.91428 -0.25351,-1.05247 0.25476,-0.29798 0.21002,-0.49366 0.13963,-0.87988 -0.12807,-0.3994 -0.16678,-0.21339 -0.17444,-0.14698 -0.21794,-0.17849 -0.15848,-0.14936 -0.15346,-0.14485 -0.12217,-0.35107 z m -2.2785,1.49843 0.70458,0.0653 0.50298,0.11811 0.44089,0.17798 0.20511,0.15627 0.11211,0.52027 0.0793,0.39037 0.0289,0.2789 -0.2447,0.47534 -0.26092,0.3453 -0.33243,0.35898 -0.38823,0.28857 -0.43687,0.2848 -0.48035,0.14359 -0.42758,0.0638 -0.28354,0.031 -0.53842,-0.0574 -0.49632,-0.1279 -0.42857,-0.23159 -0.29912,-0.20522 -0.20562,-0.21865 -0.25954,-0.32873 -0.11814,-0.37681 0.0132,-0.41898 0.17797,-0.40731 0.35807,-0.36086 0.45409,-0.33664 0.59359,-0.27288 0.48878,-0.21376 0.49381,-0.0969 z" /><path
         style="fill:#c6bcbe;fill-opacity:1;stroke:#c6bcbe;stroke-width:1.0191;stroke-linecap:round;stroke-linejoin:round;stroke-dasharray:none"
         d="m 190.49351,213.01823 -0.12834,0.56957 -0.0635,0.5383 -0.0554,0.74468 -0.0981,0.84343 -0.0498,0.75125 -0.0243,1.01949 -0.004,1.267 -0.0654,1.17218 -0.0163,0.95679 0.0163,0.97611 v 0.80427 l 0.0636,0.51919 0.13049,0.12121 0.32323,-1.22211 -0.0517,-0.94366 -0.0657,-0.93291 0.0672,-0.8616 0.13079,-0.78535 0.2788,-1.0092 0.32194,-0.82851 0.2845,-0.55938 0.40537,-0.65621 0.51815,-0.55106 0.62906,-0.5334 0.70563,-0.32307 0.56338,-0.18327 0.62359,-0.0925 0.72386,0.0487 0.61273,0.17051 0.64695,0.41819 0.33077,0.36427 0.34805,0.46261 0.23169,0.4533 0.19932,0.48535 0.14736,0.75161 0.0615,0.74374 -0.0237,0.49506 v 0.58074 l -0.0973,0.76917 -0.0899,0.8197 -0.0957,0.6268 -0.0646,0.66928 -0.0316,0.59776 -0.006,0.63549 0.0491,0.44284 0.1485,0.45108 0.24534,0.32126 0.11695,-0.0816 0.13932,-0.42171 -0.16107,-0.41322 -0.0743,-0.72706 -0.0315,-0.50157 0.0233,-0.66311 0.11171,-0.98451 0.14508,-0.88604 0.0788,-0.79198 0.0828,-0.75083 0.0288,-0.67018 0.0162,-0.68691 -0.0844,-0.63359 -0.11977,-0.56813 -0.17021,-0.56172 -0.19997,-0.51182 -0.34358,-0.52516 -0.36827,-0.44524 -0.67337,-0.42779 -0.63695,-0.30759 -0.78862,-0.0848 -0.50376,0.0163 -0.55869,0.11245 -0.66612,0.18535 -0.51263,0.26342 -0.55425,0.46584 -0.58866,0.55876 -0.40042,0.63092 -0.2799,0.49595 -0.19019,0.46389 -0.19686,0.44362 -0.19642,0.58496 -0.10013,0.34385 -0.14486,0.58396 -0.041,-0.66007 0.0491,-0.82322 0.12713,-1.05956 0.0614,-1.00488 0.0986,-0.62854 0.0164,-0.34897 -0.002,-0.19235 z"
         id="path117" /></g></g></svg>
