<?xml version="1.0" encoding="UTF-8" standalone="no"?>
<!-- Created with Inkscape (http://www.inkscape.org/) -->

<svg
   width="252.14906mm"
   height="145.57074mm"
   viewBox="0 0 252.14908 145.57073"
   version="1.1"
   id="svg1"
   xml:space="preserve"
   inkscape:version="1.3.2 (1:1.3.2+202311252150+091e20ef0f)"
   sodipodi:docname="Intro-09.svg"
   xmlns:inkscape="http://www.inkscape.org/namespaces/inkscape"
   xmlns:sodipodi="http://sodipodi.sourceforge.net/DTD/sodipodi-0.dtd"
   xmlns="http://www.w3.org/2000/svg"
   xmlns:svg="http://www.w3.org/2000/svg"><sodipodi:namedview
     id="namedview1"
     pagecolor="#ffffff"
     bordercolor="#000000"
     borderopacity="0.25"
     inkscape:showpageshadow="2"
     inkscape:pageopacity="0.0"
     inkscape:pagecheckerboard="0"
     inkscape:deskcolor="#d1d1d1"
     inkscape:document-units="mm"
     inkscape:zoom="0.38334898"
     inkscape:cx="808.66264"
     inkscape:cy="452.59022"
     inkscape:window-width="1864"
     inkscape:window-height="1016"
     inkscape:window-x="56"
     inkscape:window-y="27"
     inkscape:window-maximized="1"
     inkscape:current-layer="layer3"
     showgrid="false" /><defs
     id="defs1" /><g
     inkscape:groupmode="layer"
     id="layer3"
     inkscape:label="back"
     transform="translate(217.62566,43.331879)"><rect
       style="fill:#ffffff;stroke:none;stroke-width:0.793748;stroke-linecap:round;stroke-linejoin:round;stroke-dasharray:none"
       id="rect45"
       width="252.14906"
       height="145.57074"
       x="-217.62566"
       y="-43.331879" /></g><g
     inkscape:label="Capa 1"
     inkscape:groupmode="layer"
     id="layer1"
     transform="translate(217.62566,43.331879)"
     style="display:inline"><text
       xml:space="preserve"
       style="font-style:normal;font-variant:normal;font-weight:normal;font-stretch:normal;font-size:5.29167px;font-family:Ubuntu;-inkscape-font-specification:Ubuntu;text-align:center;text-anchor:middle;fill:#ffffff;stroke:none;stroke-width:0.79375;stroke-linecap:round;stroke-linejoin:round"
       x="175.16397"
       y="85.469887"
       id="text86"><tspan
         sodipodi:role="line"
         id="tspan86"
         style="stroke-width:0.79375"
         x="175.16397"
         y="85.469887" /></text><rect
       style="fill:#373737;fill-opacity:1;stroke-width:0.793747;stroke-linecap:round;stroke-linejoin:round"
       id="rect10"
       width="232.41745"
       height="129.32567"
       x="-206.91173"
       y="-33.614365" /><path
       style="fill:#c6bcbe;stroke-width:0.793747;stroke-linecap:round;stroke-linejoin:round"
       d="m -158.35291,-10.603905 -0.4293,2.1144403 v 2.72526 l -0.28438,3.35174 -0.11811,2.61372004 -0.0302,3.71772996 0.047,2.65858 -0.0671,3.04672 0.0963,3.0203497 0.0522,1.70952 0.54686,0.45106 1.02672,-0.14164 0.59996,-1.71079 -0.1967,-4.6777697 -0.15254,-9.10603996 0.043,-4.27159004 -0.23961,-3.11066 -0.1522,-2.3521403 -0.21888,-0.27327 z"
       id="path1" /><path
       style="fill:#c6bcbe;stroke-width:0.793747;stroke-linecap:round;stroke-linejoin:round"
       d="m -153.01767,-10.804985 0.12201,9.7191403 -0.19451,8.36717 -0.061,2.56526 0.005,2.2672297 v 1.89732 l 2.25276,-1.43036 0.15545,-8.0991197 -0.10237,-3.72537996 0.12129,-3.42189004 -0.11976,-4.00738 -0.061,-2.12631 z"
       id="path2" /><path
       style="fill:#c6bcbe;stroke-width:0.793747;stroke-linecap:round;stroke-linejoin:round"
       d="m -145.24546,-11.866405 0.006,5.1826703 -0.0913,3.62363 -0.17726,4.03289004 0.12201,2.90094996 -0.12273,2.90716 v 2.64764 l 0.0483,1.9015597 0.17772,1.98817 2.12138,-0.55248 -0.061,-3.0962897 0.0248,-7.46581 v -3.42697 l -0.11158,-5.37315 -0.41959,-3.38466 -0.94735,-2.6068003 z"
       id="path3" /><path
       style="fill:#c6bcbe;stroke-width:0.793747;stroke-linecap:round;stroke-linejoin:round"
       d="m -138.30589,-10.510645 -0.38691,2.2501103 -0.17451,2.00424 -0.11278,3.80551 -0.12201,3.85454 0.0622,4.35119 -0.14056,4.9667197 0.20493,1.99676 0.73416,1.11265 1.3194,0.12201 0.48503,-1.17089 -0.0479,-13.09577966 -0.11931,-5.42381004 -0.48365,-4.4826503 -0.48613,-1.16064 -0.45412,0.0237 z"
       id="path4" /><path
       style="fill:#c6bcbe;stroke-width:0.793747;stroke-linecap:round;stroke-linejoin:round"
       d="m -133.1041,-11.468345 0.94831,2.5455503 -8.22481,5.3358 -5.67331,3.50488004 -3.38774,2.01407996 -5.30108,3.79443 -5.25854,3.38917 -0.76391,0.54799 -0.5582,0.061 -0.3192,-0.22846 0.11973,-0.75967 5.2284,-4.07046 7.46076,-5.43459996 13.87191,-9.70085034 z"
       id="path5" /><path
       style="fill:#c6bcbe;stroke-width:0.793747;stroke-linecap:round;stroke-linejoin:round"
       d="m -121.57039,-8.5410947 0.31677,17.40543 0.0862,3.1810097 0.3347,1.1485 1.51561,0.28132 1.00674,-0.75211 -0.45568,-12.01780966 -0.0738,-6.27263004 -0.11803,-2.88871 -0.97955,-0.96328 -1.01398,0.11421 z"
       id="path6" /><path
       style="fill:#c6bcbe;stroke-width:0.793747;stroke-linecap:round;stroke-linejoin:round"
       d="m -113.47959,-10.181985 -0.066,8.9265703 0.0301,7.59594 0.0617,5.0395497 -0.30425,2.30454 0.60569,0.65221 1.25404,0.24547 1.07092,-0.20351 0.70774,-1.63066 0.0254,-3.9795597 -0.77131,-12.86306 -0.13328,-4.57126 c 0,0 0.10337,-1.5134303 -0.27662,-1.6308003 -0.37998,-0.11738 -1.37983,-0.70106 -1.37983,-0.70106 z"
       id="path7" /><path
       style="fill:#c6bcbe;stroke-width:0.793747;stroke-linecap:round;stroke-linejoin:round"
       d="m -104.81452,-10.587715 -0.26681,7.8586803 0.12201,6.69148 0.1033,5.2894 -0.2107,2.8096697 1.44374,1.08329 1.50379,-0.59399 0.75861,-4.4440597 -0.38402,-5.21106 -0.66435,-4.31082 -0.18625,-3.70913 0.0496,-4.23881 -0.56806,-1.1496403 -0.98988,-0.37321 z"
       id="path8" /><path
       style="fill:#c6bcbe;stroke-width:0.793747;stroke-linecap:round;stroke-linejoin:round"
       d="m -98.937112,-9.5057747 -0.02008,4.26268 1.32e-4,5.45425004 0.305025,3.27529996 -0.0039,3.03596 0.231002,3.14104 0.2964,2.4185897 0.492117,1.65277 1.229878,0.004 0.405564,-0.23899 0.93876,-1.22907 -0.121279,-3.5188297 -0.12201,-3.77456 -0.243721,-4.95233996 0.06185,-5.69091004 -0.12201,-2.81836 -0.515562,-1.7911603 -0.687657,-0.43283 h -0.72694 l -0.741066,0.11566 z"
       id="path9" /><path
       style="fill:#c6bcbe;stroke-width:0.793747;stroke-linecap:round;stroke-linejoin:round"
       d="m -93.10092,-13.107765 -9.45263,6.3648603 -4.63673,3.31238 -3.04144,1.96994 -4.64693,3.14582 -2.50306,1.772 -1.25208,0.84179 -3.38021,3.04273 -1.25739,1.15195 0.57882,0.78637 1.20551,0.34285 3.89167,-2.36749 1.9399,-1.67486 1.67808,-1.60701 2.90746,-1.89866 2.69767,-1.32832996 2.57662,-1.79395004 2.00273,-1.24209 1.73492,-1.39015 2.69772,-1.83183 2.34087,-1.37679 1.943444,-1.32194 1.871961,-1.33051 1.400934,-1.0740103 -0.330581,-1.54664 -0.166184,-0.4837 z"
       id="path10" /><path
       style="fill:#c6bcbe;fill-opacity:1;stroke-width:0.793747;stroke-linecap:round;stroke-linejoin:round"
       d="m -78.701922,-13.406005 -0.649523,1.50339 -0.183015,2.3192403 -0.246327,5.18127 -0.22701,5.63535 -0.162774,4.68048 -0.02871,2.70526 0.47376,5.9270597 0.264179,0.9103 0.662389,-2.34265 0.402019,-1.90677 0.08597,-4.0664197 -0.0087,-5.17775 0.33633,-5.31545 0.03682,-3.89829 0.01069,-3.0025303 -0.219125,-2.32375 z"
       id="path11" /><path
       style="fill:#c6bcbe;fill-opacity:1;stroke-width:0.793747;stroke-linecap:round;stroke-linejoin:round"
       d="m -72.286472,-10.969095 -0.01974,7.2529403 -0.05408,4.40684004 0.129411,2.74322996 0.12941,2.91846 0.04314,1.96192 0.08627,1.8363397 v 1.21667 l 0.244893,1.15588 0.69336,0.40012 0.644077,0.0287 0.356063,-0.89053 0.258157,-1.65424 -0.169325,-2.4749397 -0.591093,-10.61718 -0.09275,-3.41978 -0.09818,-2.2461 -0.08627,-1.44759 -0.19349,-0.6845903 -0.842132,-0.70663 z"
       id="path12" /><path
       style="fill:#c6bcbe;fill-opacity:1;stroke-width:0.793747;stroke-linecap:round;stroke-linejoin:round"
       d="m -62.937396,-10.394165 -0.458878,1.4174203 -0.455448,1.15136 -0.128868,2.33464 0.03426,1.94049 0.112276,5.12202 0.172548,3.56797 -0.04593,3.2498 0.08627,2.1902697 0.07836,1.46169 0.300348,0.94327 0.467653,-0.28217 1.032082,-0.92886 0.708842,-0.73979 -0.102899,-4.7263297 -0.269325,-4.50526 -0.418036,-4.05835 -0.15844,-4.06096 0.129479,-1.45973 0.388231,-1.10129 -0.224867,-1.1651303 -0.372808,-0.43442 z"
       id="path13" /><path
       style="fill:#c6bcbe;fill-opacity:1;stroke-width:0.793747;stroke-linecap:round;stroke-linejoin:round"
       d="m -55.324231,-11.048435 -2.300401,-0.029 -0.02844,2.0058103 0.12201,6.08762 0.08771,5.19594 0.300003,4.32152 -0.125121,2.76597 0.427032,1.9876697 0.245301,1.54123 1.300884,-0.30216 0.752393,-0.55748 0.644973,-1.02533 0.01413,-2.6746797 -0.484089,-5.05228 -0.509008,-6.536 -0.39805,-5.18577 z"
       id="path14" /><path
       style="fill:#c6bcbe;fill-opacity:1;stroke-width:0.793747;stroke-linecap:round;stroke-linejoin:round"
       d="m -50.090217,-13.649125 -8.144751,6.1702103 -6.025737,5.09629 -4.805248,3.6787 -4.027975,3.26493 -4.383643,3.6748 -0.736928,0.50245 -2.283306,2.0515197 -0.446651,0.78625 0.217678,0.70152 0.5623,0.46477 2.348042,-1.85445 4.780701,-3.9954597 5.693817,-4.27308 2.982008,-2.16995996 5.417,-4.28854004 4.16216,-3.20385 3.156947,-2.48892 2.155616,-1.4776103 0.439928,-1.12853 0.02508,-1.1095 -0.356838,-0.51806 z"
       id="path15" /><path
       style="fill:#c6bcbe;fill-opacity:1;stroke-width:0.793747;stroke-linecap:round;stroke-linejoin:round"
       d="m -157.03544,28.18599 -0.42921,5.01619 -0.22732,3.10848 -0.22715,3.46254 -0.0863,3.02849 0.0805,3.23488 -0.0448,1.31034 0.0997,4.03888 -0.0826,2.24441 0.0863,1.64383 1.16808,0.17773 0.70992,-1.19595 -0.32656,-7.95681 -0.25882,-4.52497 0.29384,-4.17263 0.29107,-4.29273 v -3.23 l -0.0672,-2.13708 -0.25847,-0.78812 z"
       id="path16" /><path
       style="fill:#c6bcbe;fill-opacity:1;stroke-width:0.793747;stroke-linecap:round;stroke-linejoin:round"
       d="m -151.59904,30.69992 -0.17255,4.04809 -0.0766,2.87078 -0.23728,3.64635 -0.0863,2.47303 0.0863,2.9187 -0.19252,3.25113 0.22561,2.31819 0.72362,0.6945 1.74814,0.33661 -0.41315,-7.80202 0.17255,-8.36554 0.17038,-3.89397 0.3127,-1.6642 -0.24027,-1.04647 -0.79497,-0.60815 z"
       id="path17" /><path
       style="fill:#c6bcbe;fill-opacity:1;stroke-width:0.793747;stroke-linecap:round;stroke-linejoin:round"
       d="m -143.91916,29.66868 -0.78726,2.00309 -0.93197,13.28812 -0.16471,3.25624 -0.17255,2.69639 -0.21306,2.00286 0.70864,0.53041 0.80717,0.24301 0.93748,-0.7547 0.48867,-2.97949 0.25882,-3.17905 -0.25648,-1.8214 -0.25787,-1.68608 0.38405,-2.70468 0.14777,-3.72405 0.2167,-2.83228 -0.22809,-3.04059 0.0863,-1.21422 z"
       id="path18" /><path
       style="fill:#c6bcbe;fill-opacity:1;stroke-width:0.793747;stroke-linecap:round;stroke-linejoin:round"
       d="m -138.59913,30.05761 -0.15581,11.11599 0.017,5.41713 -0.24747,3.99952 -0.23752,2.26643 0.29472,1.53621 1.60601,0.59426 1.08396,-0.92621 -0.37478,-8.38341 0.17854,-5.71369 0.0863,-4.75144 0.0414,-2.68699 -0.24672,-1.8203 -0.687,-0.78189 z"
       id="path19" /><path
       style="fill:#c6bcbe;fill-opacity:1;stroke-width:0.793747;stroke-linecap:round;stroke-linejoin:round"
       d="m -133.99397,29.00352 -7.09381,5.77843 -4.76893,3.46878 -3.34512,2.64647 -4.25984,2.98516 -4.21285,3.01862 -1.19627,1.42306 0.23232,0.51577 1.57033,-0.1656 1.63524,-1.09114 3.32508,-2.36285 5.76777,-3.88095 4.56716,-3.06155 3.04355,-2.25025 3.33237,-2.92045 1.7958,-1.18086 0.77369,-1.35016 -0.17802,-0.77907 z"
       id="path20" /><path
       style="fill:#c6bcbe;fill-opacity:1;stroke-width:0.793747;stroke-linecap:round;stroke-linejoin:round"
       d="m -119.46055,27.86488 -0.0863,6.85853 0.0863,8.02566 -0.0874,5.76357 -0.0852,3.16328 v 2.97709 l 2.02444,-0.6711 1.21773,-1.34397 -0.16958,-6.07048 -0.40683,-4.27962 -0.16488,-3.59324 -0.56925,-3.13692 -0.0863,-3.83954 -0.30534,-2.4915 -0.51136,-2.61932 z"
       id="path21" /><path
       style="fill:#c6bcbe;fill-opacity:1;stroke-width:0.793747;stroke-linecap:round;stroke-linejoin:round"
       d="m -110.41186,28.1288 -1.16981,3.5823 -0.34142,17.83383 0.0569,2.4427 0.72664,0.93006 0.83706,0.3202 c 0,0 0.81435,-1.00247 0.81435,-1.34934 0,-0.34686 -0.0517,-16.9086 -0.0517,-16.9086 l -0.0863,-4.91601 0.0583,-1.66896 z"
       id="path22" /><path
       style="fill:#c6bcbe;fill-opacity:1;stroke-width:0.793747;stroke-linecap:round;stroke-linejoin:round"
       d="m -103.30056,27.96908 -0.97506,2.18345 -0.2773,17.37473 0.17138,4.40317 0.0748,2.11248 0.37251,0.73202 1.28354,-0.27536 0.49924,-1.27128 0.12804,-11.53359 -0.24978,-8.47651 -0.0846,-4.21308 z"
       id="path23" /><path
       style="fill:#c6bcbe;fill-opacity:1;stroke-width:0.793747;stroke-linecap:round;stroke-linejoin:round"
       d="m -96.647343,28.82686 -0.416177,7.60441 -0.672237,5.34242 0.106251,4.67946 0.450451,2.48263 0.08628,2.27969 0.249163,1.48333 1.724388,-1.8e-4 0.103431,-17.95445 0.417571,-4.20509 -0.394507,-2.48948 -0.837632,-0.16688 z"
       id="path24" /><path
       style="fill:#c6bcbe;fill-opacity:1;stroke-width:0.793747;stroke-linecap:round;stroke-linejoin:round"
       d="m -121.90247,48.72741 8.42094,-6.65792 6.60629,-5.06011 6.50559,-4.43986 2.8335,-2.22464 2.944043,-2.07344 0.838454,0.37221 0.541845,1.22443 -0.761608,1.42449 -6.276894,4.60622 -4.81225,3.95256 -2.4232,1.5263 -1.52181,1.14701 -3.57602,1.7256 -2.3407,1.86649 -5.04267,2.96929 -1.21769,0.79214 -1.06696,-0.30362 z"
       id="path25" /><path
       style="fill:#c6bcbe;fill-opacity:1;stroke-width:0.793747;stroke-linecap:round;stroke-linejoin:round"
       d="m -77.451732,52.91767 -1.259457,-2.30988 0.172546,-4.07254 -1.708013,0.71855 -0.788471,-0.5349 -0.117647,-0.93941 2.74597,-1.67611 1.221541,-15.89114 0.844865,-1.66997 0.698762,1.23205 -0.439872,13.48184 -0.345094,5.18567 -0.01931,4.14582 z"
       id="path26" /><path
       style="fill:#c6bcbe;fill-opacity:1;stroke-width:0.793747;stroke-linecap:round;stroke-linejoin:round"
       d="m -70.7122,50.87708 -0.161084,-15.72503 0.172548,-5.05374 0.779563,-1.122 0.772787,-0.791 0.700974,2.54239 -0.0618,3.09447 -5.3e-4,6.8534 0.08628,3.70743 v 3.42738 l -0.07884,2.77715 -0.699177,2.0731 -1.115386,-0.58715 z"
       id="path27" /><path
       style="fill:#c6bcbe;fill-opacity:1;stroke-width:0.793747;stroke-linecap:round;stroke-linejoin:round"
       d="m -62.451546,27.25483 -0.477679,5.32727 -0.260485,6.66274 v 4.89139 l 0.252148,4.07588 0.07368,3.04607 c 0,0 1.000498,1.0893 1.500463,0.79511 0.499964,-0.29419 1.089511,-3.51564 1.089511,-3.51564 l -0.408672,-5.56815 0.198122,-6.37079 -0.05817,-5.07035 -0.565012,-3.82077 z"
       id="path28" /><path
       style="fill:#c6bcbe;fill-opacity:1;stroke-width:0.793747;stroke-linecap:round;stroke-linejoin:round"
       d="m -55.953702,26.43847 -0.472475,9.88164 -0.194767,7.38539 0.0016,4.09763 0.336407,4.37672 1.190464,-1.5398 0.775388,-2.55509 0.172548,-5.52987 -0.171641,-4.89055 0.08627,-4.7968 -0.07133,-4.53921 -0.710356,-2.50068 z"
       id="path29" /><path
       style="fill:#c6bcbe;fill-opacity:1;stroke-width:0.793747;stroke-linecap:round;stroke-linejoin:round"
       d="m -80.994829,46.05302 7.24286,-5.39286 7.663222,-4.72054 3.051189,-1.90244 4.229033,-2.76732 2.642304,-2.13293 2.978573,-1.88346 1.676557,-0.15935 1.0308,1.38846 -0.534966,1.5984 -2.488443,1.73645 -3.554246,1.9079 -2.360356,1.52446 -4.042701,2.1106 -3.382126,1.87504 -4.238771,2.68651 -3.161038,2.0336 -1.664601,1.19683 -3.095766,1.22655 -1.318119,0.47933 z"
       id="path30" /></g></svg>
