<?xml version="1.0" encoding="UTF-8" standalone="no"?>
<svg
   width="97.419403mm"
   height="67.189476mm"
   viewBox="0 0 345.18688 238.07294"
   id="svg2"
   version="1.1"
   inkscape:version="1.2.2 (732a01da63, 2022-12-09, custom)"
   sodipodi:docname="hardware-forth.svg"
   xmlns:inkscape="http://www.inkscape.org/namespaces/inkscape"
   xmlns:sodipodi="http://sodipodi.sourceforge.net/DTD/sodipodi-0.dtd"
   xmlns="http://www.w3.org/2000/svg"
   xmlns:svg="http://www.w3.org/2000/svg"
   xmlns:rdf="http://www.w3.org/1999/02/22-rdf-syntax-ns#"
   xmlns:cc="http://creativecommons.org/ns#"
   xmlns:dc="http://purl.org/dc/elements/1.1/">
  <defs
     id="defs4" />
  <sodipodi:namedview
     id="base"
     pagecolor="#ffffff"
     bordercolor="#666666"
     borderopacity="1.0"
     inkscape:pageopacity="0.0"
     inkscape:pageshadow="2"
     inkscape:zoom="1.738189"
     inkscape:cx="321.02378"
     inkscape:cy="155.62174"
     inkscape:document-units="px"
     inkscape:current-layer="text449"
     showgrid="false"
     fit-margin-top="0"
     fit-margin-left="0"
     fit-margin-right="0"
     fit-margin-bottom="0"
     inkscape:window-width="1860"
     inkscape:window-height="1016"
     inkscape:window-x="60"
     inkscape:window-y="27"
     inkscape:window-maximized="1"
     inkscape:document-rotation="0"
     showguides="true"
     inkscape:guide-bbox="true"
     objecttolerance="10.0"
     gridtolerance="10.0"
     guidetolerance="10.0"
     inkscape:pagecheckerboard="0"
     inkscape:showpageshadow="2"
     inkscape:deskcolor="#d1d1d1" />
  <metadata
     id="metadata7">
    <rdf:RDF>
      <cc:Work
         rdf:about="">
        <dc:format>image/svg+xml</dc:format>
        <dc:type
           rdf:resource="http://purl.org/dc/dcmitype/StillImage" />
      </cc:Work>
    </rdf:RDF>
  </metadata>
  <g
     inkscape:label="Layer 1"
     inkscape:groupmode="layer"
     id="layer1"
     transform="translate(-570.14618,-679.7373)">
    <g
       aria-label="3"
       id="text4150"
       style="font-style:normal;font-variant:normal;font-weight:normal;font-stretch:normal;line-height:0%;font-family:'Ubuntu Mono';-inkscape-font-specification:'Ubuntu Mono';letter-spacing:0px;word-spacing:0px;fill:#008000;fill-opacity:1;stroke:none;stroke-width:1px;stroke-linecap:butt;stroke-linejoin:miter;stroke-opacity:1">
      <g
         aria-label="0"
         id="text852"
         style="font-style:normal;font-weight:normal;font-size:285.851px;line-height:1.25;font-family:sans-serif;fill:#008000;fill-opacity:1;stroke:none;stroke-width:7.14628px">
        <g
           aria-label="'A'"
           id="text2733"
           style="font-size:298.572px;stroke-width:53.3421px">
          <g
             aria-label="HW
FORTH"
             id="text449"
             style="font-size:96.052px;-inkscape-font-specification:sans-serif;text-align:center;text-anchor:middle;fill:#0000ff;stroke-width:2.81249;stroke-linecap:square;stroke-linejoin:round">
            <path
               d="m 658.38927,679.7373 h 18.05665 v 26.68632 h 26.63942 V 679.7373 h 18.05665 v 70.02228 h -18.05665 v -29.68795 h -26.63942 v 29.68795 h -18.05665 z"
               style="font-weight:bold;-inkscape-font-specification:'sans-serif Bold'"
               id="path924" />
            <path
               d="m 732.82019,679.7373 h 17.30624 l 12.1003,50.88692 12.0065,-50.88692 h 17.40005 l 12.0065,50.88692 12.1003,-50.88692 h 17.16554 l -16.50893,70.02228 h -20.82378 l -12.71,-53.23194 -12.56931,53.23194 h -20.82377 z"
               style="font-weight:bold;-inkscape-font-specification:'sans-serif Bold'"
               id="path926" />
            <path
               d="m 570.14618,799.8023 h 48.72951 v 13.64801 h -30.67286 v 13.03831 h 28.84374 v 13.64802 h -28.84374 v 29.68794 h -18.05665 z"
               style="font-weight:bold;-inkscape-font-specification:'sans-serif Bold'"
               id="path928" />
            <path
               d="m 743.06792,830.85036 q 5.67495,0 8.11377,-2.11052 2.48572,-2.11052 2.48572,-6.94126 0,-4.78384 -2.48572,-6.84745 -2.43882,-2.06362 -8.11377,-2.06362 h -7.59786 v 17.96285 z m -7.59786,12.4755 v 26.49872 H 717.41341 V 799.8023 h 27.57743 q 13.83562,0 20.26097,4.64314 6.47225,4.64314 6.47225,14.67982 0,6.94126 -3.37682,11.3968 -3.32993,4.45553 -10.08359,6.56605 3.70513,0.84421 6.61296,3.84583 2.95472,2.95473 5.95635,9.00488 l 9.80218,19.88576 h -19.22916 l -8.53587,-17.40004 q -2.57953,-5.25284 -5.25285,-7.17576 -2.62642,-1.92292 -7.03506,-1.92292 z"
               style="font-weight:bold;-inkscape-font-specification:'sans-serif Bold'"
               id="path932" />
            <path
               d="m 778.71222,799.8023 h 64.53494 v 13.64801 h -23.2157 v 56.37427 h -18.05665 v -56.37427 h -23.26259 z"
               style="font-weight:bold;-inkscape-font-specification:'sans-serif Bold'"
               id="path934" />
            <path
               d="m 852.58033,799.8023 h 18.05665 v 26.68632 H 897.2764 V 799.8023 h 18.05665 v 70.02228 H 897.2764 v -29.68794 h -26.63942 v 29.68794 h -18.05665 z"
               style="font-weight:bold;-inkscape-font-specification:'sans-serif Bold'"
               id="path936" />
          </g>
          <path
             style="display:inline;fill:none;stroke:#008000;stroke-width:2.13331;stroke-linecap:round;stroke-linejoin:round"
             inkscape:connector-curvature="0"
             id="path6"
             d="m 671.6517,870.89124 9.4399,20.58434 -8.7016,22.2669 9.6452,3.00113 M 652.12144,872.6539 c 0,0 -2.51686,18.89037 -5.96339,20.41496 -3.44422,1.52689 -22.54084,15.69923 -22.54084,15.69923 l 6.1064,7.45358"
             inkscape:export-filename="/home/obijuan/develop/FPGAwars/Icestudio-block-icons/Bits/png/0-legs.png"
             inkscape:export-xdpi="90"
             inkscape:export-ydpi="90" />
          <g
             aria-label="o"
             transform="matrix(0.63789634,0,0,0.76851662,533.33039,820.73303)"
             id="text4142-6"
             style="font-style:normal;font-weight:normal;font-size:12px;line-height:0%;font-family:sans-serif;letter-spacing:0px;word-spacing:0px;display:inline;fill:#008000;fill-opacity:1;stroke:none;stroke-width:1.52343px;stroke-linecap:butt;stroke-linejoin:miter;stroke-opacity:1">
            <path
               d="m 212.31328,-10.227385 q -10.41157,0 -17.41094,7.5243289 -6.91189,7.4368361 -9.71164,21.5230791 -2.79975,14.086242 1.1374,21.610571 3.93715,7.436836 14.34872,7.436836 10.23659,0 17.14847,-7.436836 6.99938,-7.524329 9.79913,-21.610571 2.79975,-14.086243 -1.1374,-21.5230791 -3.93715,-7.5243289 -14.17374,-7.5243289 z m 4.4621,-22.398 q 25.28525,0 36.74672,13.648781 11.54897,13.6487821 6.7369,37.796627 -4.81207,24.147844 -21.78555,37.796626 -16.97349,13.648782 -42.25873,13.648782 -25.37274,0 -36.92171,-13.648782 -11.54896,-13.648782 -6.73689,-37.796626 4.81207,-24.1478449 21.78555,-37.796627 17.06098,-13.648781 42.43371,-13.648781 z"
               style="font-style:italic;font-variant:normal;font-weight:bold;font-stretch:normal;font-size:179.184px;line-height:1.25;font-family:sans-serif;-inkscape-font-specification:'sans-serif Bold Italic';fill:#008000;stroke-width:1.52343px"
               id="path77" />
          </g>
        </g>
      </g>
    </g>
  </g>
</svg>
