<?xml version="1.0" encoding="UTF-8" standalone="no"?>
<!-- Created with Inkscape (http://www.inkscape.org/) -->

<svg
   width="194.08725mm"
   height="117.47202mm"
   viewBox="0 0 194.08725 117.47202"
   version="1.1"
   id="svg2938"
   inkscape:version="1.2.2 (b0a8486, 2022-12-01)"
   sodipodi:docname="fase-21.svg"
   xml:space="preserve"
   inkscape:export-filename="fase-21.png"
   inkscape:export-xdpi="96"
   inkscape:export-ydpi="96"
   xmlns:inkscape="http://www.inkscape.org/namespaces/inkscape"
   xmlns:sodipodi="http://sodipodi.sourceforge.net/DTD/sodipodi-0.dtd"
   xmlns:xlink="http://www.w3.org/1999/xlink"
   xmlns="http://www.w3.org/2000/svg"
   xmlns:svg="http://www.w3.org/2000/svg"><sodipodi:namedview
     id="namedview2940"
     pagecolor="#ffffff"
     bordercolor="#000000"
     borderopacity="0.25"
     inkscape:showpageshadow="2"
     inkscape:pageopacity="0.0"
     inkscape:pagecheckerboard="0"
     inkscape:deskcolor="#d1d1d1"
     inkscape:document-units="mm"
     showgrid="false"
     inkscape:zoom="0.97134925"
     inkscape:cx="271.27215"
     inkscape:cy="206.41391"
     inkscape:window-width="1860"
     inkscape:window-height="1016"
     inkscape:window-x="60"
     inkscape:window-y="27"
     inkscape:window-maximized="1"
     inkscape:current-layer="layer2"
     showguides="true" /><defs
     id="defs2935"><marker
       inkscape:isstock="true"
       style="overflow:visible"
       id="TriangleOutM"
       refX="0"
       refY="0"
       orient="auto"
       inkscape:stockid="TriangleOutM"><path
         inkscape:connector-curvature="0"
         transform="scale(0.4)"
         style="fill:#000000;fill-opacity:1;fill-rule:evenodd;stroke:#000000;stroke-width:1pt;stroke-opacity:1"
         d="M 5.77,0 -2.88,5 V -5 Z"
         id="path972" /></marker><marker
       inkscape:isstock="true"
       style="overflow:visible"
       id="Arrow1Mend"
       refX="0"
       refY="0"
       orient="auto"
       inkscape:stockid="Arrow1Mend"><path
         inkscape:connector-curvature="0"
         transform="matrix(-0.4,0,0,-0.4,-4,0)"
         style="fill:#000000;fill-opacity:1;fill-rule:evenodd;stroke:#000000;stroke-width:1pt;stroke-opacity:1"
         d="M 0,0 5,-5 -12.5,0 5,5 Z"
         id="path836" /></marker><marker
       inkscape:isstock="true"
       style="overflow:visible"
       id="Arrow2Mend"
       refX="0"
       refY="0"
       orient="auto"
       inkscape:stockid="Arrow2Mend"><path
         inkscape:connector-curvature="0"
         transform="scale(-0.6)"
         d="M 8.7185878,4.0337352 -2.2072895,0.01601326 8.7185884,-4.0017078 c -1.7454984,2.3720609 -1.7354408,5.6174519 -6e-7,8.035443 z"
         style="fill:#000000;fill-opacity:1;fill-rule:evenodd;stroke:#000000;stroke-width:0.625;stroke-linejoin:round;stroke-opacity:1"
         id="path854" /></marker><marker
       inkscape:isstock="true"
       style="overflow:visible"
       id="Arrow2Mend-3"
       refX="0"
       refY="0"
       orient="auto"
       inkscape:stockid="Arrow2Mend"><path
         transform="scale(-0.6)"
         d="M 8.7185878,4.0337352 -2.2072895,0.01601326 8.7185884,-4.0017078 c -1.7454984,2.3720609 -1.7354408,5.6174519 -6e-7,8.035443 z"
         style="fill:#000000;fill-opacity:1;fill-rule:evenodd;stroke:#000000;stroke-width:0.625;stroke-linejoin:round;stroke-opacity:1"
         id="path854-6"
         inkscape:connector-curvature="0" /></marker><marker
       inkscape:isstock="true"
       style="overflow:visible"
       id="Arrow1Mend-5"
       refX="0"
       refY="0"
       orient="auto"
       inkscape:stockid="Arrow1Mend"><path
         transform="matrix(-0.4,0,0,-0.4,-4,0)"
         style="fill:#000000;fill-opacity:1;fill-rule:evenodd;stroke:#000000;stroke-width:1pt;stroke-opacity:1"
         d="M 0,0 5,-5 -12.5,0 5,5 Z"
         id="path836-3"
         inkscape:connector-curvature="0" /></marker><marker
       inkscape:stockid="TriangleOutM"
       orient="auto"
       refY="0"
       refX="0"
       id="TriangleOutM-7"
       style="overflow:visible"
       inkscape:isstock="true"><path
         id="path972-5"
         d="M 5.77,0 -2.88,5 V -5 Z"
         style="fill:#000000;fill-opacity:1;fill-rule:evenodd;stroke:#000000;stroke-width:1pt;stroke-opacity:1"
         transform="scale(0.4)"
         inkscape:connector-curvature="0" /></marker><marker
       inkscape:stockid="Arrow1Mend"
       orient="auto"
       refY="0"
       refX="0"
       id="Arrow1Mend-3"
       style="overflow:visible"
       inkscape:isstock="true"><path
         id="path836-5"
         d="M 0,0 5,-5 -12.5,0 5,5 Z"
         style="fill:#000000;fill-opacity:1;fill-rule:evenodd;stroke:#000000;stroke-width:1pt;stroke-opacity:1"
         transform="matrix(-0.4,0,0,-0.4,-4,0)"
         inkscape:connector-curvature="0" /></marker><marker
       inkscape:stockid="Arrow2Mend"
       orient="auto"
       refY="0"
       refX="0"
       id="Arrow2Mend-6"
       style="overflow:visible"
       inkscape:isstock="true"><path
         id="path854-2"
         style="fill:#000000;fill-opacity:1;fill-rule:evenodd;stroke:#000000;stroke-width:0.625;stroke-linejoin:round;stroke-opacity:1"
         d="M 8.7185878,4.0337352 -2.2072895,0.01601326 8.7185884,-4.0017078 c -1.7454984,2.3720609 -1.7354408,5.6174519 -6e-7,8.035443 z"
         transform="scale(-0.6)"
         inkscape:connector-curvature="0" /></marker><marker
       inkscape:stockid="Arrow2Mend"
       orient="auto"
       refY="0"
       refX="0"
       id="Arrow2Mend-3-9"
       style="overflow:visible"
       inkscape:isstock="true"><path
         inkscape:connector-curvature="0"
         id="path854-6-1"
         style="fill:#000000;fill-opacity:1;fill-rule:evenodd;stroke:#000000;stroke-width:0.625;stroke-linejoin:round;stroke-opacity:1"
         d="M 8.7185878,4.0337352 -2.2072895,0.01601326 8.7185884,-4.0017078 c -1.7454984,2.3720609 -1.7354408,5.6174519 -6e-7,8.035443 z"
         transform="scale(-0.6)" /></marker><marker
       inkscape:stockid="Arrow1Mend"
       orient="auto"
       refY="0"
       refX="0"
       id="Arrow1Mend-5-2"
       style="overflow:visible"
       inkscape:isstock="true"><path
         inkscape:connector-curvature="0"
         id="path836-3-7"
         d="M 0,0 5,-5 -12.5,0 5,5 Z"
         style="fill:#000000;fill-opacity:1;fill-rule:evenodd;stroke:#000000;stroke-width:1pt;stroke-opacity:1"
         transform="matrix(-0.4,0,0,-0.4,-4,0)" /></marker><marker
       inkscape:stockid="TriangleOutM"
       orient="auto"
       refY="0"
       refX="0"
       id="TriangleOutM-5"
       style="overflow:visible"
       inkscape:isstock="true"><path
         id="path1880"
         d="M 5.77,0 -2.88,5 V -5 Z"
         style="fill:#ff0000;fill-opacity:1;fill-rule:evenodd;stroke:#ff0000;stroke-width:1pt;stroke-opacity:1"
         transform="scale(0.4)"
         inkscape:connector-curvature="0" /></marker><marker
       inkscape:stockid="Arrow2Mend"
       orient="auto"
       refY="0"
       refX="0"
       id="Arrow2Mend-62"
       style="overflow:visible"
       inkscape:isstock="true"><path
         id="path1762"
         style="fill:#ff0000;fill-opacity:1;fill-rule:evenodd;stroke:#ff0000;stroke-width:0.625;stroke-linejoin:round;stroke-opacity:1"
         d="M 8.7185878,4.0337352 -2.2072895,0.01601326 8.7185884,-4.0017078 c -1.7454984,2.3720609 -1.7354408,5.6174519 -6e-7,8.035443 z"
         transform="scale(-0.6)"
         inkscape:connector-curvature="0" /></marker><marker
       inkscape:stockid="Arrow1Mend"
       orient="auto"
       refY="0"
       refX="0"
       id="Arrow1Mend-9"
       style="overflow:visible"
       inkscape:isstock="true"><path
         id="path1744"
         d="M 0,0 5,-5 -12.5,0 5,5 Z"
         style="fill:#ff0000;fill-opacity:1;fill-rule:evenodd;stroke:#ff0000;stroke-width:1pt;stroke-opacity:1"
         transform="matrix(-0.4,0,0,-0.4,-4,0)"
         inkscape:connector-curvature="0" /></marker><marker
       inkscape:stockid="TriangleOutM"
       orient="auto"
       refY="0"
       refX="0"
       id="TriangleOutM-7-1"
       style="overflow:visible"
       inkscape:isstock="true"><path
         id="path1880-5"
         d="M 5.77,0 -2.88,5 V -5 Z"
         style="fill:#ff0000;fill-opacity:1;fill-rule:evenodd;stroke:#ff0000;stroke-width:1pt;stroke-opacity:1"
         transform="scale(0.4)"
         inkscape:connector-curvature="0" /></marker><marker
       inkscape:stockid="Arrow2Mend"
       orient="auto"
       refY="0"
       refX="0"
       id="Arrow2Mend-3-2"
       style="overflow:visible"
       inkscape:isstock="true"><path
         id="path1762-5"
         style="fill:#ff0000;fill-opacity:1;fill-rule:evenodd;stroke:#ff0000;stroke-width:0.625;stroke-linejoin:round;stroke-opacity:1"
         d="M 8.7185878,4.0337352 -2.2072895,0.01601326 8.7185884,-4.0017078 c -1.7454984,2.3720609 -1.7354408,5.6174519 -6e-7,8.035443 z"
         transform="scale(-0.6)"
         inkscape:connector-curvature="0" /></marker><marker
       inkscape:stockid="Arrow1Mend"
       orient="auto"
       refY="0"
       refX="0"
       id="Arrow1Mend-6"
       style="overflow:visible"
       inkscape:isstock="true"><path
         id="path1744-2"
         d="M 0,0 5,-5 -12.5,0 5,5 Z"
         style="fill:#ff0000;fill-opacity:1;fill-rule:evenodd;stroke:#ff0000;stroke-width:1pt;stroke-opacity:1"
         transform="matrix(-0.4,0,0,-0.4,-4,0)"
         inkscape:connector-curvature="0" /></marker><linearGradient
       id="b"
       x1="83.199997"
       x2="46.534"
       y1="111.65"
       y2="20.316"
       gradientUnits="userSpaceOnUse"
       gradientTransform="matrix(0.26458333,0,0,0.26458333,164.28505,-22.014501)"><stop
         stop-color="#BBDEFB"
         offset=".0021923"
         id="stop12268" /><stop
         stop-color="#E3F2FD"
         offset="1"
         id="stop12270" /></linearGradient><linearGradient
       id="a"
       x1="64.394997"
       x2="64.394997"
       y1="38.333"
       y2="114.21"
       gradientUnits="userSpaceOnUse"
       gradientTransform="matrix(0.26458333,0,0,0.26458333,164.28505,-22.014501)"><stop
         stop-color="#FFCA7B"
         offset="0"
         id="stop12275" /><stop
         stop-color="#FFA726"
         offset=".2539"
         id="stop12277" /><stop
         stop-color="#FFCC80"
         offset=".4688"
         id="stop12279" /><stop
         stop-color="#FFC875"
         offset=".6586"
         id="stop12281" /><stop
         stop-color="#FFA726"
         offset=".8665"
         id="stop12283" /></linearGradient><linearGradient
       inkscape:collect="always"
       xlink:href="#b"
       id="linearGradient6529"
       gradientUnits="userSpaceOnUse"
       gradientTransform="matrix(0.26458333,0,0,0.26458333,164.28505,-22.014501)"
       x1="83.199997"
       y1="111.65"
       x2="46.534"
       y2="20.316" /><linearGradient
       inkscape:collect="always"
       xlink:href="#a"
       id="linearGradient6531"
       gradientUnits="userSpaceOnUse"
       gradientTransform="matrix(0.26458333,0,0,0.26458333,164.28505,-22.014501)"
       x1="64.394997"
       y1="38.333"
       x2="64.394997"
       y2="114.21" /><linearGradient
       inkscape:collect="always"
       xlink:href="#b"
       id="linearGradient9255"
       gradientUnits="userSpaceOnUse"
       gradientTransform="matrix(0.26458333,0,0,0.26458333,164.28505,-22.014501)"
       x1="83.199997"
       y1="111.65"
       x2="46.534"
       y2="20.316" /><linearGradient
       inkscape:collect="always"
       xlink:href="#a"
       id="linearGradient9257"
       gradientUnits="userSpaceOnUse"
       gradientTransform="matrix(0.26458333,0,0,0.26458333,164.28505,-22.014501)"
       x1="64.394997"
       y1="38.333"
       x2="64.394997"
       y2="114.21" /></defs><g
     inkscape:groupmode="layer"
     id="layer2"
     inkscape:label="back"
     transform="translate(-10.374238,-7.3153582)"><rect
       style="fill:#ffffff;fill-opacity:1;stroke:none;stroke-width:0.264583;stroke-dasharray:none;stroke-opacity:1"
       id="rect9798"
       width="194.08725"
       height="117.47202"
       x="10.374238"
       y="7.3153582" /></g><g
     inkscape:label="Capa 1"
     inkscape:groupmode="layer"
     id="layer1"
     transform="translate(-10.374238,-7.3153582)"><rect
       style="fill:#f2f2f2;fill-opacity:1;stroke:#111111;stroke-width:0.529167;stroke-dasharray:none;stroke-opacity:1"
       id="rect6525"
       width="38.288929"
       height="16.862623"
       x="107.62614"
       y="88.847916" /><rect
       style="fill:#f2f2f2;fill-opacity:1;stroke:#111111;stroke-width:0.529167;stroke-dasharray:none;stroke-opacity:1"
       id="rect6447"
       width="38.288929"
       height="16.862623"
       x="107.62614"
       y="64.844383" /><text
       xml:space="preserve"
       style="font-size:5.29167px;font-family:sans-serif;-inkscape-font-specification:sans-serif;text-align:center;text-anchor:middle;fill:#000000;fill-opacity:1;stroke:none;stroke-width:0.79375"
       x="40.63892"
       y="46.893555"
       id="text3113"><tspan
         sodipodi:role="line"
         id="tspan3111"
         style="fill:#000000;fill-opacity:1;stroke:none;stroke-width:0.79375"
         x="40.63892"
         y="46.893555">Reset</tspan></text><rect
       style="fill:none;fill-opacity:1;stroke:#111111;stroke-width:0.529167;stroke-dasharray:none;stroke-opacity:1"
       id="rect3877"
       width="22.111345"
       height="9.458622"
       x="30.748215"
       y="40.950455" /><g
       id="g6439"
       transform="translate(0,23.666701)"><rect
         style="fill:#f2f2f2;fill-opacity:1;stroke:#111111;stroke-width:0.529167;stroke-dasharray:none;stroke-opacity:1"
         id="rect5103"
         width="38.288929"
         height="16.862623"
         x="63.32745"
         y="17.174147" /><text
         xml:space="preserve"
         style="font-size:5.29167px;font-family:sans-serif;-inkscape-font-specification:sans-serif;text-align:center;text-anchor:middle;fill:#000000;fill-opacity:1;stroke:none;stroke-width:0.79375"
         x="82.199203"
         y="23.389633"
         id="text4126"><tspan
           sodipodi:role="line"
           id="tspan4124"
           style="fill:#000000;fill-opacity:1;stroke:none;stroke-width:0.79375"
           x="82.199203"
           y="23.389633">Generador 1</tspan></text><path
         d="m 81.330607,32.390303 c -0.126059,-0.216876 -0.321478,-0.42923 -0.691787,-0.751657 -0.2006,-0.174636 -0.322629,-0.271624 -1.01739,-0.80833 -0.544526,-0.420761 -0.816214,-0.654187 -1.131073,-0.971898 -0.314666,-0.317712 -0.499629,-0.570767 -0.658305,-0.900698 -0.101307,-0.210718 -0.170956,-0.413739 -0.214319,-0.624649 -0.05497,-0.267968 -0.06245,-0.358701 -0.06217,-0.753292 3.8e-4,-0.51775 0.01746,-0.603865 0.187456,-0.949288 0.126347,-0.256517 0.222281,-0.391608 0.422114,-0.594532 0.194076,-0.196958 0.320039,-0.286442 0.592494,-0.421147 0.302675,-0.149715 0.521599,-0.188972 0.972589,-0.174443 0.35045,0.01135 0.478715,0.04619 0.756542,0.206099 0.437272,0.251611 0.776594,0.655534 0.870514,1.03627 0.01535,0.06225 0.03118,0.113248 0.03521,0.113248 0.004,0 0.03943,-0.07284 0.07867,-0.161839 0.133541,-0.302606 0.257585,-0.487249 0.454635,-0.677183 0.603335,-0.581735 1.554529,-0.686902 2.323641,-0.257095 0.31409,0.175502 0.569661,0.431057 0.767671,0.767628 0.155893,0.264889 0.235615,0.616759 0.249238,1.100062 0.01967,0.70018 -0.108407,1.185408 -0.449263,1.702484 -0.135268,0.205234 -0.235328,0.329547 -0.422978,0.525447 -0.302769,0.31627 -0.575801,0.548732 -1.220387,1.038965 -0.406764,0.309341 -0.647849,0.508224 -0.996764,0.822664 -0.279651,0.251899 -0.712893,0.690462 -0.754624,0.76378 -0.01823,0.03204 -0.03473,0.05821 -0.03665,0.05821 -0.0019,0 -0.02667,-0.03993 -0.05507,-0.08881 z"
         id="path8"
         inkscape:connector-curvature="0"
         style="fill:#ff0000;stroke:none;stroke-width:0.79375;stroke-miterlimit:4;stroke-dasharray:none"
         inkscape:export-filename="/home/obijuan/develop/FPGAwars/Icestudio-block-icons/Hearts/png/Heart_1Hz.png"
         inkscape:export-xdpi="90"
         inkscape:export-ydpi="90" /></g><text
       xml:space="preserve"
       style="font-size:5.29167px;font-family:sans-serif;-inkscape-font-specification:sans-serif;text-align:center;text-anchor:middle;fill:#000000;fill-opacity:1;stroke:none;stroke-width:0.79375"
       x="88.264"
       y="74.079987"
       id="text5107"><tspan
         sodipodi:role="line"
         id="tspan5105"
         style="fill:#000000;fill-opacity:1;stroke:none;stroke-width:0.79375"
         x="88.264"
         y="74.079987">Delay</tspan></text><g
       id="g18559"
       transform="matrix(0.40692095,0,0,0.40692095,-0.46569233,75.446101)"
       style="stroke-width:3.10745"><path
         d="m 179.18374,-6.2506262 c 0.41539,0.1772708 0.42598,0.8493125 0.0132,1.0398125 -1.35996,0.6323541 -7.95602,3.2781874 -7.95602,12.9090207 l -0.0423,1.7779999 20.04219,0.034396 -0.0132,-1.793875 c 0,-9.8160416 -6.63575,-12.252854 -8.00365,-12.8904998 -0.4101,-0.1905 -0.40216,-0.8625417 0.0132,-1.0398125 1.35732,-0.5820834 7.83961,-3.3469792 7.83961,-12.0094376 l 0.16669,-1.508125 -20.04484,-0.03175 0.17463,1.579563 c 0,8.3925829 6.44789,11.3479787 7.8105,11.9327079 z"
         fill="url(#b)"
         id="path12273"
         style="fill:url(#linearGradient9255);stroke-width:0.82218" /><path
         d="m 189.64536,6.904457 c -0.48948,-2.2939375 -1.30175,-3.7835416 -3.38931,-3.7835416 h -4.29948 l -0.003,-9.0884374 c 0,-2.3627292 6.06161,-3.048 6.06161,-6.368521 l -13.48052,0.0079 c 0,3.201458 6.01927,4.042833 6.01927,6.3843955 l 0.008,9.0646249 h -4.20159 c -2.10343,0 -2.92364,1.5134166 -3.39725,3.8311666 l -0.57943,2.7675416 17.87525,0.047625 z"
         fill="url(#a)"
         id="path12286"
         style="fill:url(#linearGradient9257);stroke-width:0.82218" /><path
         d="m 172.08497,-18.966501 18.26948,0.0291 -0.0714,0.627063 c -0.003,0.0291 -0.005,0.05821 -0.005,0.08731 0,5.310188 -2.54,9.2101458 -7.35807,11.2791875 -0.47625,0.2037291 -0.78845,0.6879166 -0.79639,1.2329583 -0.008,0.5450417 0.29104,1.0398125 0.762,1.2567708 0.0714,0.034396 0.1561,0.071438 0.254,0.1137708 1.80446,0.8016875 7.29191,3.2437917 7.29191,12.0623541 l 0.008,0.9921874 -18.42823,-0.03175 0.0238,-0.9657291 V 7.698207 c 0,-3.7412083 1.03187,-6.79714579 3.07181,-9.0831458 1.62719,-1.8309166 3.46604,-2.6696458 4.25185,-3.0268333 0.0635,-0.029104 0.12171,-0.055562 0.17463,-0.079375 0.47096,-0.2196041 0.76993,-0.7117291 0.762,-1.2567708 -0.008,-0.5450416 -0.32015,-1.0265833 -0.7964,-1.2329583 -2.20398,-0.9472083 -7.3316,-3.9343538 -7.3316,-11.2024578 0,-0.02911 -0.003,-0.05821 -0.005,-0.08731 l -0.0767,-0.695854 m -0.88636,-0.796396 0.17463,1.579563 c 0,8.3925828 6.44789,11.3479786 7.8105,11.9327078 0.41539,0.1772708 0.42598,0.8493125 0.0132,1.0398125 -1.35996,0.6323541 -7.95602,3.2781874 -7.95602,12.9090207 l -0.0423,1.7779999 20.03954,0.034396 -0.0132,-1.793875 c 0,-9.8160416 -6.63575,-12.252854 -8.00364,-12.8904998 -0.41011,-0.1905 -0.40217,-0.8625417 0.0132,-1.0398125 1.35731,-0.5820834 7.8396,-3.3469792 7.8396,-12.0094376 l 0.16669,-1.508125 z"
         fill="#424242"
         id="path12288"
         style="opacity:1;fill:#000000;stroke:#000000;stroke-width:0.82218" /><path
         d="m 170.90492,-20.956168 h 20.62692 c 0.88106,0 1.59279,0.714375 1.59279,1.592792 0,0.881062 -0.71437,1.592792 -1.59279,1.592792 h -20.62692 c -0.88106,0 -1.59279,-0.714375 -1.59279,-1.592792 0,-0.878417 0.71438,-1.592792 1.59279,-1.592792 z"
         fill="#795548"
         id="path12292"
         style="stroke-width:0.82218" /><g
         opacity="0.2"
         id="g12296"
         transform="matrix(0.26458333,0,0,0.26458333,164.28505,-22.014501)"
         style="stroke-width:2.80814"><path
           d="m 102.98,7 c 1.67,0 3.02,1.36 3.02,3.02 0,1.67 -1.36,3.02 -3.02,3.02 H 25.02 C 23.35,13.04 22,11.68 22,10.02 22,8.36 23.36,7 25.02,7 h 77.96 m 0,-3 H 25.02 C 21.7,4 19,6.7 19,10.02 c 0,3.33 2.7,6.02 6.02,6.02 h 77.96 c 3.33,0 6.02,-2.7 6.02,-6.02 C 109,6.7 106.3,4 102.98,4 Z"
           fill="#424242"
           id="path12294"
           style="stroke-width:2.53767" /></g><g
         opacity="0.2"
         id="g12300"
         transform="matrix(0.26458333,0,0,0.26458333,164.28505,-22.014501)"
         style="opacity:1;stroke-width:3.10745"><path
           d="m 87.43,38.61 c -1.23,4.51 -6.51,7.56 -11.65,10.51 -5.66,3.26 -11,6.34 -11,11.58 l 0.01,34.35 c 0,1.1 0.9,1.95 2,1.95 h 16.25 c 5.94,0 8.88,3.48 10.85,12.73 l 1.81,8.39 -62.62,-0.16 1.69,-8.08 C 36.65,100.64 39.7,97 45.64,97 h 15.88 c 0.53,0 1.04,-0.16 1.41,-0.54 0.38,-0.38 0.59,-0.86 0.59,-1.39 L 63.49,60.78 C 63.49,55.57 58.14,52.38 52.47,49 47.45,46 42.28,42.92 41.03,38.62 l 46.4,-0.01 m 2.26,-2.01 -50.95,0.02 c 0,12.1 22.75,15.28 22.75,24.12 L 61.52,95 H 45.64 c -7.95,0 -11.05,5.72 -12.84,14.48 l -2.19,10.46 67.56,0.2 -2.33,-10.84 C 94,100.63 90.93,95 83.04,95 H 66.79 L 66.78,60.65 c 0,-8.93 22.91,-11.49 22.91,-24.05 z"
           fill="#424242"
           id="path12298"
           style="stroke-width:2.80814" /></g><path
         d="m 170.86259,7.7008528 h 20.71158 c 0.85461,0 1.54782,0.6932083 1.54782,1.5478125 0,0.8546037 -0.69321,1.5478127 -1.54782,1.5478127 h -20.71158 c -0.8546,0 -1.54781,-0.693209 -1.54781,-1.5478127 0,-0.85725 0.69321,-1.5478125 1.54781,-1.5478125 z"
         fill="#795548"
         id="path12302"
         style="stroke-width:0.82218" /><g
         opacity="0.2"
         id="g12306"
         transform="matrix(0.26458333,0,0,0.26458333,164.28505,-22.014501)"
         style="stroke-width:2.80814"><path
           d="m 103.14,115.31 c 1.57,0 2.85,1.28 2.85,2.85 0,1.57 -1.28,2.85 -2.85,2.85 H 24.86 c -1.57,0 -2.85,-1.28 -2.85,-2.85 0,-1.57 1.28,-2.85 2.85,-2.85 h 78.28 m 0,-3 H 24.86 c -3.23,0 -5.85,2.62 -5.85,5.85 0,3.23 2.62,5.85 5.85,5.85 h 78.28 c 3.23,0 5.85,-2.62 5.85,-5.85 0,-3.23 -2.62,-5.85 -5.85,-5.85 z"
           fill="#424242"
           id="path12304"
           style="stroke-width:2.53767" /></g></g><rect
       style="fill:none;fill-opacity:1;stroke:#111111;stroke-width:0.529167;stroke-dasharray:none;stroke-opacity:1"
       id="rect6433"
       width="38.288929"
       height="16.862623"
       x="63.32745"
       y="64.844383" /><text
       xml:space="preserve"
       style="font-size:5.29167px;font-family:sans-serif;-inkscape-font-specification:sans-serif;text-align:center;text-anchor:middle;fill:#000000;fill-opacity:1;stroke:none;stroke-width:0.79375"
       x="126.49789"
       y="71.059868"
       id="text6443"><tspan
         sodipodi:role="line"
         id="tspan6441"
         style="fill:#000000;fill-opacity:1;stroke:none;stroke-width:0.79375"
         x="126.49789"
         y="71.059868">Generador 2</tspan></text><path
       d="m 125.6293,80.060538 c -0.12606,-0.216876 -0.32148,-0.42923 -0.69179,-0.751657 -0.2006,-0.174636 -0.32263,-0.271624 -1.01739,-0.80833 -0.54452,-0.420761 -0.81621,-0.654187 -1.13107,-0.971898 -0.31467,-0.317712 -0.49963,-0.570767 -0.6583,-0.900698 -0.10131,-0.210718 -0.17096,-0.413739 -0.21432,-0.624649 -0.055,-0.267968 -0.0624,-0.358701 -0.0622,-0.753292 3.8e-4,-0.51775 0.0175,-0.603865 0.18745,-0.949288 0.12635,-0.256517 0.22228,-0.391608 0.42212,-0.594532 0.19407,-0.196958 0.32004,-0.286442 0.59249,-0.421147 0.30268,-0.149715 0.5216,-0.188972 0.97259,-0.174443 0.35045,0.01135 0.47871,0.04619 0.75654,0.206099 0.43727,0.251611 0.7766,0.655534 0.87052,1.03627 0.0153,0.06225 0.0312,0.113248 0.0352,0.113248 0.004,0 0.0394,-0.07284 0.0787,-0.161839 0.13354,-0.302606 0.25758,-0.487249 0.45463,-0.677183 0.60334,-0.581735 1.55453,-0.686902 2.32364,-0.257095 0.31409,0.175502 0.56966,0.431057 0.76767,0.767628 0.1559,0.264889 0.23562,0.616759 0.24924,1.100062 0.0197,0.70018 -0.10841,1.185408 -0.44926,1.702484 -0.13527,0.205234 -0.23533,0.329547 -0.42298,0.525447 -0.30277,0.31627 -0.5758,0.548732 -1.22039,1.038965 -0.40676,0.309341 -0.64785,0.508224 -0.99676,0.822664 -0.27965,0.251899 -0.71289,0.690462 -0.75463,0.76378 -0.0182,0.03204 -0.0347,0.05821 -0.0367,0.05821 -0.002,0 -0.0267,-0.03993 -0.0551,-0.08881 z"
       id="path6445"
       inkscape:connector-curvature="0"
       style="fill:#ff0000;stroke:none;stroke-width:0.79375;stroke-miterlimit:4;stroke-dasharray:none"
       inkscape:export-filename="/home/obijuan/develop/FPGAwars/Icestudio-block-icons/Hearts/png/Heart_1Hz.png"
       inkscape:export-xdpi="90"
       inkscape:export-ydpi="90" /><text
       xml:space="preserve"
       style="font-size:5.29167px;font-family:sans-serif;-inkscape-font-specification:sans-serif;text-align:center;text-anchor:middle;fill:#000000;fill-opacity:1;stroke:none;stroke-width:0.79375"
       x="88.264"
       y="98.083519"
       id="text6491"><tspan
         sodipodi:role="line"
         id="tspan6489"
         style="fill:#000000;fill-opacity:1;stroke:none;stroke-width:0.79375"
         x="88.264"
         y="98.083519">Delay</tspan></text><g
       id="g6515"
       transform="matrix(0.40692095,0,0,0.40692095,-0.46569233,99.449636)"
       style="stroke-width:3.10745"><path
         d="m 179.18374,-6.2506262 c 0.41539,0.1772708 0.42598,0.8493125 0.0132,1.0398125 -1.35996,0.6323541 -7.95602,3.2781874 -7.95602,12.9090207 l -0.0423,1.7779999 20.04219,0.034396 -0.0132,-1.793875 c 0,-9.8160416 -6.63575,-12.252854 -8.00365,-12.8904998 -0.4101,-0.1905 -0.40216,-0.8625417 0.0132,-1.0398125 1.35732,-0.5820834 7.83961,-3.3469792 7.83961,-12.0094376 l 0.16669,-1.508125 -20.04484,-0.03175 0.17463,1.579563 c 0,8.3925829 6.44789,11.3479787 7.8105,11.9327079 z"
         fill="url(#b)"
         id="path6493"
         style="fill:url(#linearGradient6529);stroke-width:0.82218" /><path
         d="m 189.64536,6.904457 c -0.48948,-2.2939375 -1.30175,-3.7835416 -3.38931,-3.7835416 h -4.29948 l -0.003,-9.0884374 c 0,-2.3627292 6.06161,-3.048 6.06161,-6.368521 l -13.48052,0.0079 c 0,3.201458 6.01927,4.042833 6.01927,6.3843955 l 0.008,9.0646249 h -4.20159 c -2.10343,0 -2.92364,1.5134166 -3.39725,3.8311666 l -0.57943,2.7675416 17.87525,0.047625 z"
         fill="url(#a)"
         id="path6495"
         style="fill:url(#linearGradient6531);stroke-width:0.82218" /><path
         d="m 172.08497,-18.966501 18.26948,0.0291 -0.0714,0.627063 c -0.003,0.0291 -0.005,0.05821 -0.005,0.08731 0,5.310188 -2.54,9.2101458 -7.35807,11.2791875 -0.47625,0.2037291 -0.78845,0.6879166 -0.79639,1.2329583 -0.008,0.5450417 0.29104,1.0398125 0.762,1.2567708 0.0714,0.034396 0.1561,0.071438 0.254,0.1137708 1.80446,0.8016875 7.29191,3.2437917 7.29191,12.0623541 l 0.008,0.9921874 -18.42823,-0.03175 0.0238,-0.9657291 V 7.698207 c 0,-3.7412083 1.03187,-6.79714579 3.07181,-9.0831458 1.62719,-1.8309166 3.46604,-2.6696458 4.25185,-3.0268333 0.0635,-0.029104 0.12171,-0.055562 0.17463,-0.079375 0.47096,-0.2196041 0.76993,-0.7117291 0.762,-1.2567708 -0.008,-0.5450416 -0.32015,-1.0265833 -0.7964,-1.2329583 -2.20398,-0.9472083 -7.3316,-3.9343538 -7.3316,-11.2024578 0,-0.02911 -0.003,-0.05821 -0.005,-0.08731 l -0.0767,-0.695854 m -0.88636,-0.796396 0.17463,1.579563 c 0,8.3925828 6.44789,11.3479786 7.8105,11.9327078 0.41539,0.1772708 0.42598,0.8493125 0.0132,1.0398125 -1.35996,0.6323541 -7.95602,3.2781874 -7.95602,12.9090207 l -0.0423,1.7779999 20.03954,0.034396 -0.0132,-1.793875 c 0,-9.8160416 -6.63575,-12.252854 -8.00364,-12.8904998 -0.41011,-0.1905 -0.40217,-0.8625417 0.0132,-1.0398125 1.35731,-0.5820834 7.8396,-3.3469792 7.8396,-12.0094376 l 0.16669,-1.508125 z"
         fill="#424242"
         id="path6497"
         style="opacity:1;fill:#000000;stroke:#000000;stroke-width:0.82218" /><path
         d="m 170.90492,-20.956168 h 20.62692 c 0.88106,0 1.59279,0.714375 1.59279,1.592792 0,0.881062 -0.71437,1.592792 -1.59279,1.592792 h -20.62692 c -0.88106,0 -1.59279,-0.714375 -1.59279,-1.592792 0,-0.878417 0.71438,-1.592792 1.59279,-1.592792 z"
         fill="#795548"
         id="path6499"
         style="stroke-width:0.82218" /><g
         opacity="0.2"
         id="g6503"
         transform="matrix(0.26458333,0,0,0.26458333,164.28505,-22.014501)"
         style="stroke-width:2.80814"><path
           d="m 102.98,7 c 1.67,0 3.02,1.36 3.02,3.02 0,1.67 -1.36,3.02 -3.02,3.02 H 25.02 C 23.35,13.04 22,11.68 22,10.02 22,8.36 23.36,7 25.02,7 h 77.96 m 0,-3 H 25.02 C 21.7,4 19,6.7 19,10.02 c 0,3.33 2.7,6.02 6.02,6.02 h 77.96 c 3.33,0 6.02,-2.7 6.02,-6.02 C 109,6.7 106.3,4 102.98,4 Z"
           fill="#424242"
           id="path6501"
           style="stroke-width:2.53767" /></g><g
         opacity="0.2"
         id="g6507"
         transform="matrix(0.26458333,0,0,0.26458333,164.28505,-22.014501)"
         style="opacity:1;stroke-width:3.10745"><path
           d="m 87.43,38.61 c -1.23,4.51 -6.51,7.56 -11.65,10.51 -5.66,3.26 -11,6.34 -11,11.58 l 0.01,34.35 c 0,1.1 0.9,1.95 2,1.95 h 16.25 c 5.94,0 8.88,3.48 10.85,12.73 l 1.81,8.39 -62.62,-0.16 1.69,-8.08 C 36.65,100.64 39.7,97 45.64,97 h 15.88 c 0.53,0 1.04,-0.16 1.41,-0.54 0.38,-0.38 0.59,-0.86 0.59,-1.39 L 63.49,60.78 C 63.49,55.57 58.14,52.38 52.47,49 47.45,46 42.28,42.92 41.03,38.62 l 46.4,-0.01 m 2.26,-2.01 -50.95,0.02 c 0,12.1 22.75,15.28 22.75,24.12 L 61.52,95 H 45.64 c -7.95,0 -11.05,5.72 -12.84,14.48 l -2.19,10.46 67.56,0.2 -2.33,-10.84 C 94,100.63 90.93,95 83.04,95 H 66.79 L 66.78,60.65 c 0,-8.93 22.91,-11.49 22.91,-24.05 z"
           fill="#424242"
           id="path6505"
           style="stroke-width:2.80814" /></g><path
         d="m 170.86259,7.7008528 h 20.71158 c 0.85461,0 1.54782,0.6932083 1.54782,1.5478125 0,0.8546037 -0.69321,1.5478127 -1.54782,1.5478127 h -20.71158 c -0.8546,0 -1.54781,-0.693209 -1.54781,-1.5478127 0,-0.85725 0.69321,-1.5478125 1.54781,-1.5478125 z"
         fill="#795548"
         id="path6509"
         style="stroke-width:0.82218" /><g
         opacity="0.2"
         id="g6513"
         transform="matrix(0.26458333,0,0,0.26458333,164.28505,-22.014501)"
         style="stroke-width:2.80814"><path
           d="m 103.14,115.31 c 1.57,0 2.85,1.28 2.85,2.85 0,1.57 -1.28,2.85 -2.85,2.85 H 24.86 c -1.57,0 -2.85,-1.28 -2.85,-2.85 0,-1.57 1.28,-2.85 2.85,-2.85 h 78.28 m 0,-3 H 24.86 c -3.23,0 -5.85,2.62 -5.85,5.85 0,3.23 2.62,5.85 5.85,5.85 h 78.28 c 3.23,0 5.85,-2.62 5.85,-5.85 0,-3.23 -2.62,-5.85 -5.85,-5.85 z"
           fill="#424242"
           id="path6511"
           style="stroke-width:2.53767" /></g></g><rect
       style="fill:none;fill-opacity:1;stroke:#111111;stroke-width:0.529167;stroke-dasharray:none;stroke-opacity:1"
       id="rect6517"
       width="38.288929"
       height="16.862623"
       x="63.32745"
       y="88.847916" /><text
       xml:space="preserve"
       style="font-size:5.29167px;font-family:sans-serif;-inkscape-font-specification:sans-serif;text-align:center;text-anchor:middle;fill:#000000;fill-opacity:1;stroke:none;stroke-width:0.79375"
       x="126.49789"
       y="95.063408"
       id="text6521"><tspan
         sodipodi:role="line"
         id="tspan6519"
         style="fill:#000000;fill-opacity:1;stroke:none;stroke-width:0.79375"
         x="126.49789"
         y="95.063408">Generador 3</tspan></text><path
       d="m 125.6293,104.06407 c -0.12606,-0.21687 -0.32148,-0.42923 -0.69179,-0.75165 -0.2006,-0.17464 -0.32263,-0.27163 -1.01739,-0.80833 -0.54452,-0.42076 -0.81621,-0.65419 -1.13107,-0.9719 -0.31467,-0.31771 -0.49963,-0.57077 -0.6583,-0.9007 -0.10131,-0.21072 -0.17096,-0.41374 -0.21432,-0.62465 -0.055,-0.267967 -0.0624,-0.3587 -0.0622,-0.753291 3.8e-4,-0.51775 0.0175,-0.603865 0.18745,-0.949288 0.12635,-0.256517 0.22228,-0.391608 0.42212,-0.594532 0.19407,-0.196958 0.32004,-0.286442 0.59249,-0.421147 0.30268,-0.149715 0.5216,-0.188972 0.97259,-0.174443 0.35045,0.01135 0.47871,0.04619 0.75654,0.206099 0.43727,0.251611 0.7766,0.655534 0.87052,1.03627 0.0153,0.06225 0.0312,0.113248 0.0352,0.113248 0.004,0 0.0394,-0.07284 0.0787,-0.161839 0.13354,-0.302606 0.25758,-0.487249 0.45463,-0.677183 0.60334,-0.581735 1.55453,-0.686902 2.32364,-0.257095 0.31409,0.175502 0.56966,0.431057 0.76767,0.767628 0.1559,0.264889 0.23562,0.616759 0.24924,1.100062 0.0197,0.70018 -0.10841,1.185411 -0.44926,1.702481 -0.13527,0.20524 -0.23533,0.32955 -0.42298,0.52545 -0.30277,0.31627 -0.5758,0.54873 -1.22039,1.03897 -0.40676,0.30934 -0.64785,0.50822 -0.99676,0.82266 -0.27965,0.2519 -0.71289,0.69046 -0.75463,0.76378 -0.0182,0.032 -0.0347,0.0582 -0.0367,0.0582 -0.002,0 -0.0267,-0.0399 -0.0551,-0.0888 z"
       id="path6523"
       inkscape:connector-curvature="0"
       style="fill:#ff0000;stroke:none;stroke-width:0.79375;stroke-miterlimit:4;stroke-dasharray:none"
       inkscape:export-filename="/home/obijuan/develop/FPGAwars/Icestudio-block-icons/Hearts/png/Heart_1Hz.png"
       inkscape:export-xdpi="90"
       inkscape:export-ydpi="90" /><path
       style="fill:none;fill-opacity:1;stroke:#111111;stroke-width:0.529167;stroke-dasharray:none;stroke-opacity:1"
       d="m 101.61638,49.272151 h 52.59275"
       id="path6784" /><path
       style="fill:none;fill-opacity:1;stroke:#111111;stroke-width:0.529167;stroke-dasharray:none;stroke-opacity:1"
       d="m 145.91507,73.275692 h 8.29405"
       id="path6788" /><path
       style="fill:none;fill-opacity:1;stroke:#111111;stroke-width:0.529167;stroke-dasharray:none;stroke-opacity:1"
       d="m 145.91506,97.279221 h 8.29406"
       id="path6790" /><path
       style="fill:none;fill-opacity:1;stroke:#111111;stroke-width:0.529167;stroke-dasharray:none;stroke-opacity:1"
       d="M 52.859558,45.679762 H 63.327449"
       id="path6792" /><path
       style="fill:none;fill-opacity:1;stroke:#111111;stroke-width:0.529167;stroke-dasharray:none;stroke-opacity:1"
       d="m 57.782099,45.679762 v 27.59593 h 5.54535"
       id="path7817" /><path
       style="fill:none;fill-opacity:1;stroke:#111111;stroke-width:0.529167;stroke-dasharray:none;stroke-opacity:1"
       d="m 57.782099,73.275692 v 24.003529 h 5.54535"
       id="path7819" /><path
       style="fill:none;fill-opacity:1;stroke:#111111;stroke-width:0.529167;stroke-dasharray:none;stroke-opacity:1"
       d="m 101.61638,73.275694 h 6.00976 v 0"
       id="path7821" /><path
       style="fill:none;fill-opacity:1;stroke:#111111;stroke-width:0.529167;stroke-dasharray:none;stroke-opacity:1"
       d="m 101.61638,97.279226 h 6.00976"
       id="path7823" /><circle
       style="fill:#000000;fill-opacity:1;stroke:#111111;stroke-width:0.529167;stroke-dasharray:none;stroke-opacity:1"
       id="path7877"
       cx="57.788986"
       cy="45.679764"
       r="0.9755941" /><circle
       style="fill:#000000;fill-opacity:1;stroke:#111111;stroke-width:0.529167;stroke-dasharray:none;stroke-opacity:1"
       id="circle7879"
       cx="57.788986"
       cy="73.275688"
       r="0.9755941" /><text
       xml:space="preserve"
       style="font-size:5.29167px;font-family:sans-serif;-inkscape-font-specification:sans-serif;text-align:center;text-anchor:middle;fill:#0000ff;fill-opacity:1;stroke:none;stroke-width:0.79375"
       x="167.75905"
       y="50.988914"
       id="text8009"><tspan
         sodipodi:role="line"
         id="tspan8007"
         style="fill:#0000ff;fill-opacity:1;stroke:none;stroke-width:0.79375"
         x="167.75905"
         y="50.988914">Señal 1</tspan></text><text
       xml:space="preserve"
       style="font-size:5.29167px;font-family:sans-serif;-inkscape-font-specification:sans-serif;text-align:center;text-anchor:middle;fill:#0000ff;fill-opacity:1;stroke:none;stroke-width:0.79375"
       x="167.75905"
       y="75.029076"
       id="text8115"><tspan
         sodipodi:role="line"
         id="tspan8113"
         style="fill:#0000ff;fill-opacity:1;stroke:none;stroke-width:0.79375"
         x="167.75905"
         y="75.029076">Señal 2</tspan></text><text
       xml:space="preserve"
       style="font-size:5.29167px;font-family:sans-serif;-inkscape-font-specification:sans-serif;text-align:center;text-anchor:middle;fill:#0000ff;fill-opacity:1;stroke:none;stroke-width:0.79375"
       x="167.75905"
       y="99.032608"
       id="text8171"><tspan
         sodipodi:role="line"
         id="tspan8169"
         style="fill:#0000ff;fill-opacity:1;stroke:none;stroke-width:0.79375"
         x="167.75905"
         y="99.032608">Señal 3</tspan></text><text
       xml:space="preserve"
       style="font-size:5.29167px;font-family:sans-serif;-inkscape-font-specification:sans-serif;text-align:center;text-anchor:middle;fill:#000000;fill-opacity:1;stroke:none;stroke-width:0.79375"
       x="107.35509"
       y="26.433878"
       id="text9357"><tspan
         sodipodi:role="line"
         id="tspan9355"
         style="font-style:normal;font-variant:normal;font-weight:bold;font-stretch:normal;font-family:sans-serif;-inkscape-font-specification:'sans-serif Bold';fill:#000000;fill-opacity:1;stroke:none;stroke-width:0.79375"
         x="107.35509"
         y="26.433878">Generación de señales desfasadas</tspan></text><rect
       style="fill:none;fill-opacity:1;stroke:#111111;stroke-width:0.264583;stroke-dasharray:none;stroke-opacity:1"
       id="rect9411"
       width="184.70868"
       height="107.60917"
       x="15.007211"
       y="11.889577" /></g></svg>
