<?xml version="1.0" encoding="UTF-8" standalone="no"?>
<!-- Created with Inkscape (http://www.inkscape.org/) -->

<svg
   width="210.01071mm"
   height="82.594406mm"
   viewBox="0 0 210.01071 82.594406"
   version="1.1"
   id="svg1"
   xml:space="preserve"
   sodipodi:docname="Ilusion-02-laser.svg"
   inkscape:version="1.4-beta3 (01c8a1c, 2024-08-28)"
   xmlns:inkscape="http://www.inkscape.org/namespaces/inkscape"
   xmlns:sodipodi="http://sodipodi.sourceforge.net/DTD/sodipodi-0.dtd"
   xmlns="http://www.w3.org/2000/svg"
   xmlns:svg="http://www.w3.org/2000/svg"><sodipodi:namedview
     id="namedview1"
     pagecolor="#ffffff"
     bordercolor="#000000"
     borderopacity="0.25"
     inkscape:showpageshadow="2"
     inkscape:pageopacity="0.0"
     inkscape:pagecheckerboard="0"
     inkscape:deskcolor="#d1d1d1"
     inkscape:document-units="mm"
     inkscape:zoom="0.95875069"
     inkscape:cx="302.99848"
     inkscape:cy="243.54611"
     inkscape:window-width="1866"
     inkscape:window-height="1011"
     inkscape:window-x="0"
     inkscape:window-y="0"
     inkscape:window-maximized="1"
     inkscape:current-layer="layer3" /><defs
     id="defs1"><marker
       style="overflow:visible"
       id="marker31"
       refX="0"
       refY="0"
       orient="auto-start-reverse"
       inkscape:stockid="Triangle arrow"
       markerWidth="1"
       markerHeight="1"
       viewBox="0 0 1 1"
       inkscape:isstock="true"
       inkscape:collect="always"
       preserveAspectRatio="xMidYMid"><path
         transform="scale(0.5)"
         style="fill:context-stroke;fill-rule:evenodd;stroke:context-stroke;stroke-width:1pt"
         d="M 5.77,0 -2.88,5 V -5 Z"
         id="path31" /></marker><marker
       style="overflow:visible"
       id="Triangle"
       refX="0"
       refY="0"
       orient="auto-start-reverse"
       inkscape:stockid="Triangle arrow"
       markerWidth="1"
       markerHeight="1"
       viewBox="0 0 1 1"
       inkscape:isstock="true"
       inkscape:collect="always"
       preserveAspectRatio="xMidYMid"><path
         transform="scale(0.5)"
         style="fill:context-stroke;fill-rule:evenodd;stroke:context-stroke;stroke-width:1pt"
         d="M 5.77,0 -2.88,5 V -5 Z"
         id="path135" /></marker></defs><g
     inkscape:groupmode="layer"
     id="layer3"
     inkscape:label="back"
     transform="translate(1.3798339,-4.2681684)"><rect
       style="fill:#ffffff;stroke:none;stroke-width:0.529167;stroke-linecap:round;stroke-dasharray:none;stroke-dashoffset:0"
       id="rect33"
       width="210.01071"
       height="82.594406"
       x="-1.3798339"
       y="4.2681684" /><rect
       style="fill:#ffffff;stroke:#000000;stroke-width:0.529167;stroke-linecap:round;stroke-dasharray:none;stroke-dashoffset:0"
       id="rect32"
       width="206.43454"
       height="78.864784"
       x="0.2645835"
       y="6.132978" /><path
       style="fill:#ffffff;stroke:#000000;stroke-width:0.529167;stroke-linecap:round;stroke-dasharray:none;stroke-dashoffset:0"
       d="M 101.14183,6.132978 V 84.99776"
       id="path32"
       sodipodi:nodetypes="cc" /></g><g
     inkscape:groupmode="layer"
     id="layer2"
     inkscape:label="Layer 2"
     style="display:inline"
     transform="translate(1.3798339,-4.2681684)"><path
       style="fill:none;stroke:#000000;stroke-width:0.264583;stroke-linecap:round;stroke-dasharray:none;stroke-dashoffset:0;marker-end:url(#marker31)"
       id="path29"
       sodipodi:type="arc"
       sodipodi:cx="131.68263"
       sodipodi:cy="52.676479"
       sodipodi:rx="4.2929783"
       sodipodi:ry="4.2929802"
       sodipodi:start="0"
       sodipodi:end="5.2528085"
       sodipodi:open="true"
       sodipodi:arc-type="arc"
       d="m 135.97561,52.676479 a 4.2929783,4.2929802 0 0 1 -3.19932,4.151337 4.2929783,4.2929802 0 0 1 -4.82941,-2.03619 4.2929783,4.2929802 0 0 1 0.73869,-5.188795 4.2929783,4.2929802 0 0 1 5.20578,-0.607552" /><path
       style="fill:#0000ff;stroke:none;stroke-width:1.05833;stroke-linecap:round"
       d="m 36.137117,52.870195 2.63436,-0.841534 0.25612,0.561021 -2.60997,0.902514 z"
       id="path4"
       sodipodi:nodetypes="ccccc" /><path
       style="fill:#333333;stroke:none;stroke-width:1.05833;stroke-linecap:round"
       d="m 22.751767,45.401321 -2.000758,-0.137983 -1.483323,-0.172479 c 0,0 -1.103865,-0.137983 -1.552313,0.103489 -0.448445,0.241469 -0.931386,1.000379 -0.931386,1.000379 l -0.379455,1.897271 c 0,0 -0.379455,0.896893 -0.344959,3.82904 0.0345,2.932146 0.551935,4.725929 0.551935,4.725929 l 1.138361,2.621685 3.229674,-1.474698 -0.950676,-2.575424 -0.265505,-1.254407 c -0.02433,-0.970719 -0.214327,-1.760138 -0.124557,-2.653388 0.171605,0.777964 0.19797,1.849977 0.267776,2.642084 l 0.259227,1.279453 0.82548,2.242591 0.178399,0.439715 -3.280932,1.56451 0.275104,3.342629 0.06899,2.276725 -0.448445,2.86315 -0.931389,6.6577 -0.310462,2.58719 c 0,0 0,1.55231 1.828279,1.75929 1.828281,0.20697 2.414709,-1.51782 2.414709,-1.51782 l 2.104216,-14.315765 c 0,0 0.01725,-0.32771 0.189727,-0.319087 0.172483,0.0086 0.327713,0.336336 0.327713,0.336336 l 0.65542,5.200246 1.24185,9.20177 c 0,0 0.55193,1.58681 2.10425,1.44882 1.55231,-0.13798 2.34571,-1.69029 2.34571,-1.69029 l -2.00076,-18.248306 -0.27596,-1.6558 v -5.381352 c 0,0 -0.0517,-0.388078 0.0517,-0.431197 0.10349,-0.04312 0.55193,0.534684 0.55193,0.534684 0,0 0.60391,0.827555 1.28689,1.266615 0.68299,0.439061 2.92707,1.244005 2.92707,1.244005 l 3.61005,0.09757 c 0,0 0.78056,-0.292709 0.75616,-1.390359 -0.0244,-1.09765 -0.85373,-1.463534 -0.85373,-1.463534 0,0 -3.53688,0.341492 -4.34182,-0.292706 -0.80494,-0.634198 -1.244,-1.195221 -1.51232,-1.829419 -0.26831,-0.634198 -0.3171,-2.390442 -0.3171,-2.390442 0,0 0.003,-0.726198 -0.73178,-1.304984 -0.735,-0.578787 -1.67083,-0.539671 -3.4637,-0.548824 -0.87845,-0.0045 -2.689342,-0.114612 -2.689342,-0.114612 z"
       id="path3"
       sodipodi:nodetypes="cccsccsccccccccccccccccsccscccsccccccsccscssczscc" /><circle
       style="fill:#333333;stroke:none;stroke-width:1.05833;stroke-linecap:round"
       id="circle3"
       cx="23.221418"
       cy="40.978981"
       r="3.9027596" /><rect
       style="fill:#f2f2f2;stroke:#000000;stroke-width:0.529167;stroke-linecap:round;stroke-dasharray:none"
       id="rect4"
       width="44.292664"
       height="35.047779"
       x="46.05883"
       y="25.083271" /><path
       style="fill:#f2f2f2;stroke:#1a1a1a;stroke-width:0.264583;stroke-linecap:round;stroke-dasharray:0.264583, 1.05833;stroke-dashoffset:0"
       d="m 39.090677,52.265996 23.52616,-9.589847"
       id="path5" /><circle
       style="fill:#ff0000;stroke:none;stroke-width:0.264585;stroke-linecap:round;stroke-dasharray:none;stroke-dashoffset:0"
       id="path6"
       cx="62.499039"
       cy="42.814499"
       r="0.65249264" /><path
       style="fill:#ff0000;stroke:#000000;stroke-width:0.264583;stroke-linecap:round;stroke-dasharray:none;stroke-dashoffset:0;marker-end:url(#Triangle)"
       d="m 63.886308,42.912832 h 6.485219"
       id="path7" /><text
       xml:space="preserve"
       style="font-weight:bold;font-size:3.175px;font-family:Ubuntu;-inkscape-font-specification:'Ubuntu Bold';text-align:center;writing-mode:lr-tb;direction:ltr;text-anchor:middle;fill:#000000;stroke:none;stroke-width:0.264583;stroke-linecap:round;stroke-dasharray:none;stroke-dashoffset:0"
       x="73.474129"
       y="47.151787"
       id="text7"><tspan
         sodipodi:role="line"
         id="tspan7"
         style="font-style:normal;font-variant:normal;font-weight:normal;font-stretch:normal;font-family:Ubuntu;-inkscape-font-specification:Ubuntu;text-align:center;text-anchor:middle;fill:#000000;stroke:none;stroke-width:0.264583"
         x="73.474129"
         y="47.151787">Movimiento</tspan><tspan
         sodipodi:role="line"
         style="font-style:normal;font-variant:normal;font-weight:normal;font-stretch:normal;font-family:Ubuntu;-inkscape-font-specification:Ubuntu;text-align:center;text-anchor:middle;fill:#000000;stroke:none;stroke-width:0.264583"
         x="73.474129"
         y="51.120537"
         id="tspan13">lento</tspan></text><text
       xml:space="preserve"
       style="font-weight:bold;font-size:3.175px;font-family:Ubuntu;-inkscape-font-specification:'Ubuntu Bold';text-align:center;writing-mode:lr-tb;direction:ltr;text-anchor:middle;fill:#000000;stroke:none;stroke-width:0.264583;stroke-linecap:round;stroke-dasharray:none;stroke-dashoffset:0"
       x="40.41666"
       y="65.047325"
       id="text8"><tspan
         sodipodi:role="line"
         style="font-style:normal;font-variant:normal;font-weight:normal;font-stretch:normal;font-family:Ubuntu;-inkscape-font-specification:Ubuntu;fill:#000000;stroke:none;stroke-width:0.264583"
         x="40.41666"
         y="65.047325"
         id="tspan9">Puntero </tspan><tspan
         sodipodi:role="line"
         style="font-style:normal;font-variant:normal;font-weight:normal;font-stretch:normal;font-family:Ubuntu;-inkscape-font-specification:Ubuntu;fill:#000000;stroke:none;stroke-width:0.264583"
         x="40.41666"
         y="69.016075"
         id="tspan10">láser</tspan></text><path
       style="fill:#ff0000;stroke:#1a1a1a;stroke-width:0.264583;stroke-linecap:round;stroke-dasharray:none;stroke-dashoffset:0;marker-end:url(#Triangle)"
       d="M 40.084174,61.609581 38.221398,54.296462"
       id="path10"
       sodipodi:nodetypes="cc" /><text
       xml:space="preserve"
       style="font-weight:bold;font-size:3.175px;font-family:Ubuntu;-inkscape-font-specification:'Ubuntu Bold';text-align:center;writing-mode:lr-tb;direction:ltr;text-anchor:middle;fill:#000000;stroke:none;stroke-width:0.264583;stroke-linecap:round;stroke-dasharray:none;stroke-dashoffset:0"
       x="65.101616"
       y="30.995749"
       id="text12"><tspan
         sodipodi:role="line"
         style="font-style:normal;font-variant:normal;font-weight:normal;font-stretch:normal;font-family:Ubuntu;-inkscape-font-specification:Ubuntu;fill:#000000;stroke:none;stroke-width:0.264583"
         x="65.101616"
         y="30.995749"
         id="tspan11">Punto de</tspan><tspan
         sodipodi:role="line"
         style="font-style:normal;font-variant:normal;font-weight:normal;font-stretch:normal;font-family:Ubuntu;-inkscape-font-specification:Ubuntu;fill:#000000;stroke:none;stroke-width:0.264583"
         x="65.101616"
         y="34.964497"
         id="tspan12">luz rojo</tspan></text><path
       style="fill:#ff0000;stroke:#1a1a1a;stroke-width:0.264583;stroke-linecap:round;stroke-dasharray:none;stroke-dashoffset:0;marker-end:url(#Triangle)"
       d="m 63.012886,36.144075 -0.399241,4.980574"
       id="path12"
       sodipodi:nodetypes="cc" /><text
       xml:space="preserve"
       style="font-weight:bold;font-size:3.175px;font-family:Ubuntu;-inkscape-font-specification:'Ubuntu Bold';text-align:center;writing-mode:lr-tb;direction:ltr;text-anchor:middle;fill:#000000;stroke:none;stroke-width:0.264583;stroke-linecap:round;stroke-dasharray:none;stroke-dashoffset:0"
       x="83.563301"
       y="29.273684"
       id="text15"><tspan
         sodipodi:role="line"
         style="font-style:normal;font-variant:normal;font-weight:normal;font-stretch:normal;font-family:Ubuntu;-inkscape-font-specification:Ubuntu;fill:#000000;stroke:none;stroke-width:0.264583"
         x="83.563301"
         y="29.273684"
         id="tspan15">Pared</tspan></text><text
       xml:space="preserve"
       style="font-weight:bold;font-size:3.175px;font-family:Ubuntu;-inkscape-font-specification:'Ubuntu Bold';text-align:center;writing-mode:lr-tb;direction:ltr;text-anchor:middle;fill:#000000;stroke:none;stroke-width:0.264583;stroke-linecap:round;stroke-dasharray:none;stroke-dashoffset:0"
       x="50.771748"
       y="12.948891"
       id="text17"><tspan
         sodipodi:role="line"
         style="font-style:normal;font-variant:normal;font-weight:bold;font-stretch:normal;font-family:Ubuntu;-inkscape-font-specification:'Ubuntu Bold';text-align:center;text-anchor:middle;fill:#000000;stroke:none;stroke-width:0.264583"
         x="50.771748"
         y="12.948891"
         id="tspan17">Percepción de un punto de luz</tspan></text><path
       style="fill:#0000ff;stroke:none;stroke-width:1.05833;stroke-linecap:round"
       d="m 130.19362,52.870195 2.63436,-0.841534 0.25612,0.561021 -2.60997,0.902514 z"
       id="path18"
       sodipodi:nodetypes="ccccc" /><path
       style="fill:#333333;stroke:none;stroke-width:1.05833;stroke-linecap:round"
       d="m 116.80827,45.401321 -2.00076,-0.137983 -1.48332,-0.172479 c 0,0 -1.10386,-0.137983 -1.55231,0.103489 -0.44845,0.241469 -0.93139,1.000379 -0.93139,1.000379 l -0.37945,1.897271 c 0,0 -0.37946,0.896893 -0.34496,3.82904 0.0345,2.932146 0.55193,4.725929 0.55193,4.725929 l 1.13836,2.621685 3.22968,-1.474698 -0.95068,-2.575424 -0.2655,-1.254407 c -0.0243,-0.970719 -0.21433,-1.760138 -0.12456,-2.653388 0.1716,0.777964 0.19797,1.849977 0.26778,2.642084 l 0.25922,1.279453 0.82548,2.242591 0.1784,0.439715 -3.28093,1.56451 0.2751,3.342629 0.069,2.276725 -0.44844,2.86315 -0.93139,6.6577 -0.31046,2.58719 c 0,0 0,1.55231 1.82828,1.75929 1.82828,0.20697 2.41471,-1.51782 2.41471,-1.51782 l 2.10421,-14.315765 c 0,0 0.0173,-0.32771 0.18973,-0.319087 0.17248,0.0086 0.32771,0.336336 0.32771,0.336336 l 0.65542,5.200246 1.24185,9.20177 c 0,0 0.55193,1.58681 2.10425,1.44882 1.55231,-0.13798 2.34571,-1.69029 2.34571,-1.69029 l -2.00076,-18.248306 -0.27596,-1.6558 v -5.381352 c 0,0 -0.0517,-0.388078 0.0517,-0.431197 0.10349,-0.04312 0.55193,0.534684 0.55193,0.534684 0,0 0.60391,0.827555 1.28689,1.266615 0.68299,0.439061 2.92707,1.244005 2.92707,1.244005 l 3.61005,0.09757 c 0,0 0.78056,-0.292709 0.75616,-1.390359 -0.0244,-1.09765 -0.85373,-1.463534 -0.85373,-1.463534 0,0 -3.53688,0.341492 -4.34182,-0.292706 -0.80494,-0.634198 -1.244,-1.195221 -1.51232,-1.829419 -0.26831,-0.634198 -0.3171,-2.390442 -0.3171,-2.390442 0,0 0.003,-0.726198 -0.73178,-1.304984 -0.735,-0.578787 -1.67083,-0.539671 -3.4637,-0.548824 -0.87845,-0.0045 -2.68934,-0.114612 -2.68934,-0.114612 z"
       id="path19"
       sodipodi:nodetypes="cccsccsccccccccccccccccsccscccsccccccsccscssczscc" /><circle
       style="fill:#333333;stroke:none;stroke-width:1.05833;stroke-linecap:round"
       id="circle19"
       cx="117.27792"
       cy="40.978981"
       r="3.9027596" /><rect
       style="fill:#f2f2f2;stroke:#000000;stroke-width:0.529167;stroke-linecap:round;stroke-dasharray:none"
       id="rect19"
       width="44.292664"
       height="35.047779"
       x="146.94518"
       y="25.083271" /><path
       style="fill:#f2f2f2;stroke:#1a1a1a;stroke-width:0.264583;stroke-linecap:round;stroke-dasharray:0.264583, 1.05833;stroke-dashoffset:0"
       d="m 133.14718,52.265996 23.52616,-9.589847"
       id="path20" /><path
       style="fill:#ff0000;stroke:#000000;stroke-width:0.264583;stroke-linecap:round;stroke-dasharray:none;stroke-dashoffset:0;marker-end:url(#Triangle)"
       d="m 171.6996,46.442317 -4.72898,-3.317346"
       id="path21"
       sodipodi:nodetypes="cc" /><text
       xml:space="preserve"
       style="font-weight:bold;font-size:3.175px;font-family:Ubuntu;-inkscape-font-specification:'Ubuntu Bold';text-align:center;writing-mode:lr-tb;direction:ltr;text-anchor:middle;fill:#000000;stroke:none;stroke-width:0.264583;stroke-linecap:round;stroke-dasharray:none;stroke-dashoffset:0"
       x="138.25995"
       y="64.714203"
       id="text22"><tspan
         sodipodi:role="line"
         id="tspan21"
         style="font-style:normal;font-variant:normal;font-weight:normal;font-stretch:normal;font-family:Ubuntu;-inkscape-font-specification:Ubuntu;text-align:center;text-anchor:middle;fill:#000000;stroke:none;stroke-width:0.264583"
         x="138.25995"
         y="64.714203">Movimiento</tspan><tspan
         sodipodi:role="line"
         style="font-style:normal;font-variant:normal;font-weight:normal;font-stretch:normal;font-family:Ubuntu;-inkscape-font-specification:Ubuntu;text-align:center;text-anchor:middle;fill:#000000;stroke:none;stroke-width:0.264583"
         x="138.25995"
         y="68.682953"
         id="tspan22">rápido y circular</tspan></text><text
       xml:space="preserve"
       style="font-weight:bold;font-size:3.175px;font-family:Ubuntu;-inkscape-font-specification:'Ubuntu Bold';text-align:center;writing-mode:lr-tb;direction:ltr;text-anchor:middle;fill:#000000;stroke:none;stroke-width:0.264583;stroke-linecap:round;stroke-dasharray:none;stroke-dashoffset:0"
       x="156.07928"
       y="12.948891"
       id="text28"><tspan
         sodipodi:role="line"
         style="font-style:normal;font-variant:normal;font-weight:bold;font-stretch:normal;font-family:Ubuntu;-inkscape-font-specification:'Ubuntu Bold';text-align:center;text-anchor:middle;fill:#000000;stroke:none;stroke-width:0.264583"
         x="156.07928"
         y="12.948891"
         id="tspan28">Percepción de un contorno circular continuo</tspan></text><circle
       style="fill:none;stroke:#ff0000;stroke-width:0.661458;stroke-linecap:round;stroke-dasharray:none;stroke-dashoffset:0"
       id="path28"
       cx="161.03731"
       cy="41.419067"
       r="4.5733228" /><text
       xml:space="preserve"
       style="font-weight:bold;font-size:3.175px;font-family:Ubuntu;-inkscape-font-specification:'Ubuntu Bold';text-align:center;writing-mode:lr-tb;direction:ltr;text-anchor:middle;fill:#000000;stroke:none;stroke-width:0.264583;stroke-linecap:round;stroke-dasharray:none;stroke-dashoffset:0"
       x="174.96429"
       y="50.411976"
       id="text32"><tspan
         sodipodi:role="line"
         style="font-style:normal;font-variant:normal;font-weight:normal;font-stretch:normal;font-family:Ubuntu;-inkscape-font-specification:Ubuntu;fill:#000000;stroke:none;stroke-width:0.264583"
         x="174.96429"
         y="50.411976"
         id="tspan31">Círcunferencia</tspan><tspan
         sodipodi:role="line"
         style="font-style:normal;font-variant:normal;font-weight:normal;font-stretch:normal;font-family:Ubuntu;-inkscape-font-specification:Ubuntu;fill:#000000;stroke:none;stroke-width:0.264583"
         x="174.96429"
         y="54.380726"
         id="tspan32">de luz roja</tspan></text></g></svg>
